<?xml version="1.0" encoding="UTF-8"?>
<svg xmlns="http://www.w3.org/2000/svg" height="1737" width="1449">
<path d="m10 1059c0.1 367 319.9 667 714.5 667 394.5 0 714.5-300 714.5-667v-1049h-1429z" stroke="#000" stroke-width="20" fill="#fff"/><path fill="#2a57c6" d="m821.6 121.1c-4-0.8-9.5-0.6-12.6-3-1.3-3.6-6.7-1.5-7.7-5.3-3.2-2.9-7.1-5.4-9.1-9.2 5.5 5.5 14.4 8 21.6 4.2l5.1-4.3c8.2-12.3 1.2-31.4-13.2-35.1-7.3-1.7-16.3-0.8-21 5.6 1.2-7.6-5.6-13-12.2-14.9-9.9-4.8-24.3-3.7-29.8 7.1-6.9 10.4-4.3 25.7 5.8 33-8.3 5.8-17 16-13.6 26.8 5.1 11.5 21.7 14.7 31.9 8.4 7.1-4.2 6.7-13.3 7.7-20.4 3.9 6 6.2 13 10.8 18.5 3.5 5.7 6.4 12.4 11.9 16.6-6.2-0.2-11.9 6.6-8 12.4 1.5 2.7 4.9 4.3 7.6 4.4-3.2 2.8-4 7.3-2.8 11.3 17.7-4.1 35.1-9.4 53.5-9.3 36.5-1.7 73.4 2.4 108.7 11 2.9 3 6.9 7.8 11.6 5 6-1.4 10.7-7.2 9.8-13.6-4.1-0.3-2.9-1-0.7-3 5.1-6.3-2.7-14-9.2-14-1-0.4 3.3-2.3 3.9-3.6 7.4-8.5 16.1-16.5 20.8-26.9 0.9 11.4 13.6 21.3 24.6 17 11-6.3 16-22.5 7-32.2-2-2.5-5-4.1-7-4.8 12-5.9 15-24.3 4-32.8-8-7.7-22.7-10.1-29.7-0.1-3.7 4.2-4.4 10.5-4.8 15.4-3.8-3.4-6.7-8-12-9.3-7.1-2.3-16.2-1.9-22.3 2.5-6.3 6.5-6.3 17.2-0.9 24.2 4.4 8.4 14.8 13.6 23.9 10.2-2.5 6.4-10.4 6.9-14.6 11.8-10.3 4.8-22.2 6.5-33.4 4.3-11.1 0.9-23.7-3.8-29.2-13.8-2.2-6-4.5-13.6-4.2-19.3 6.7 12 25.2 12.6 34.6 3.8 7.2-7.2 8.6-21.4-1-27.2-7.4-5.3-17.1-2.4-25.1-0.7-4.4 1.9-0.1-0.9 1.5-2.3 5.3-3.5 5.8-10.8 1.8-15.5-5.6-8.2-15.6-15.2-25.9-14.9-11.1-0.2-23.6 10.3-19.5 22 0.7 2.2 2.8 4.9 2.9 6.5-7.5-2.5-16-8.1-23.8-3.3-10 4.4-14.4 17.5-9.2 27.1 1 4.2 3.9 7.8 7.5 10.1l15.3 2.2c5.7-0.4 11.3-4.8 12-10.2 3.3 11.5-3.2 27.2-16.3 28.2l-27-0.6z"/><path d="m401.3 1184c-2.4 4-5.7 9-3.6 15 1.7 7 8.8 12 12.8 18 3.4 4 8.4 7 13.9 7 5.9 0 11.8 1 17.6-1 1.4 1 1.3 3 1.8 4-10-3-20.5-2-30.6-1-9.3 2-19.1-3-27.3-7-3.9-3-20-1-24.6 0-10.8 21-54.6 26 1.5 80 7.4-1 19.2-2 26.3 0 5.8 0 16.9 3 21.5-1 3.8-3 7.7-9 10.9-12 2.2 1 9.6-1 11 2-9.8-1-13.1 8-23.9 18-2.4 4-2.8 10-5.3 14-2.8 6-4.7 12-7.3 17-2.2 4 1.6 8 3.1 12 1.3 3 5.9 6 7.1 10 0.9 10 42 17 53.2 4 11.1-12 11-36 11.3-43s10-8 14.1-12c30.5-36 42.2-70 41.9-95 0-1-9.3-6-9.3-8-6-4-5.8-13-12.4-16-5.3-3-10.4-7-16.4-8-5.4-1-9.6-5-13.9-8-5.4-5-8.4-12-15.5-14-5-2-10.5-3-15.9-1-21.8 1-33.7 12-42 26z"/>
<path fill="#ed1b24" d="m442.1 1183c3.4-4 6.4-10 4.1-16 1.8-1 4.3-2 6.5-1 5.1 3 7 9 10.5 13 3.2 2 6.1 5 8.9 8 7.9 4 18.3 2 26.1 7 5.4 4 6.4 11 11.5 15 3.3 3 10.9 8 14 11-11.2 46-34.9 108-68.2 141-1.7 1-3.9 2-6.1 1-1.4-3-1.7-7-1.4-11 13.5-6-15-16-19.8-17-4.6 0-7.8 4-11.3 6-2.3 2-4.3 5-3.8 8-2.8-1-8.4 0-9.1-11 2.3-5 4.5-11 8.2-15 3.7-5 5.5-11 6.3-16 0.6-5 4.9-7 8.6-8 9-1 16.9-9 23.7-17-7.9-5-12.6-5-15.9-8-4.9-1-6.8-3-11.7-3-4.1 0-8.6 3-9.2 7-0.6 5-3 9-4.9 13-1.6 3-5.3 5-8.5 3-8.1-3-16.9-1-25.3-2-4.3-3-7-7-9.2-12 1.9-1 3.7-2 5.7-3 1.4 1 2.7 2 4.1 2 4.1-1 9.9-4 6.9-9-4.1-8-2.1-28-11.5-40 0.6-3 3.9-5 6.8-4 4.5 2 9.7 3 14.1 5 6.7 2 14 3 21 2 8-1 16.4-2 23.9 2 6.7 2 13.5 4 20.2 6-0.1-4-0.4-9 0.7-14 1-1 2.1-1 3.2-2 1.2-2 3.7-3 5.9-4-0.9-3-2.8-6-6.2-7h-13.9c-4.9 1-9.9 2-15 2-4.1-1-10.2-4-14.1-4-4.9-1-3.7-4-7.7-8-2.1-2-3-6-4.3-9 0.2-3 3.5-5 5.7-8 4-3 9.7 0 14.4-1 8.3 0 10.7 5 16.1-2z"/><g stroke="#000" stroke-linecap="round" transform="translate(3.3 3.2)">
<path d="m335.3 101.6c36.4 0 65.9 34.1 65.9 76.2s-29.5 76.2-65.9 76.2-65.9-34.1-65.9-76.2 29.5-76.2 65.9-76.2zm0-48.9c-59.7 0-108.2 56-108.2 125s48.5 125 108.2 125c59.8 0 108.2-56 108.2-125s-48.5-125-108.2-125z" stroke-width="9" fill="#2a57c6"/><g stroke-linejoin="round" stroke-width="8">
<path d="m359.6 345.5-3.4-59.1-57.4 1.7-10.5 56.1s-3.2 700.8-6 1052c-0.4 10-5.4 3-9.5 1-78.3-87-110.5-216-149.7-331l44 126s30-35 37.8-43c17.1-17 10.2-27 6.2-40-4.5-14-92.4-169.7-97.5-173-5.6-8-21.6-15.3-30-12.7-31.6 7.8-41.8 180.7-46.1 208.7-1.6 17 2.2 30 19.4 43 20 16 42.3 23 42.3 23 27.7 79 77.5 206 151.8 290 7.6 8 63.1 75 69.1 74 207.3-108 282-303 257.8-536 11.2 122 1.2 151-1 168 1 2 60.3-36 69.5-49 10.3-15-1.8-43-10.2-84s-31.5-99.3-37.2-111.3c-5.6-12-23.1-24.3-29.7-21.3-32.6 14.5-79 133.6-102.1 205.6-0.9 3-3.3 14 6.3 17 2.5 1 64.7 31 64.7 31l-12.6-7c0.2 56-26.1 102-50.7 151-26.8 41-57.9 98-112.9 102 1.7-361-2.2-1083-2.2-1083l-0.2 0.5z" fill="#2a57c6"/><path d="m383.2 1424c-0.8 1-36.1 20-43.3 12l1-1143" fill="none"/>
<path d="m550.5 413.8c13.7-3.3 23.1-11.5 22.6-24.7l0.2-42.1h-500.5l-0.9 40c-0.2 9.8 6.8 24 28.4 26.6z" fill="#2a57c6"/>
</g></g><path fill="#ed1b24" d="m1234 67.2c-59 21-44 120.6-59 105.7-11-32.1 14-126-20-42.7-12 25.4 10 137-17 65.6-10-36.7 5-114.3-20-31.3-18 38.4 69 170.8-17 70.5-5 32 16 55.2 49 88 18 17.7 7 50.6 13 72.4 6 65.6 39 124.3 70 183.1-25 33.4-51 156.2-72 76.8-15-27.6-27-130-60-125.9 48 83.2 22 236.7 95 295.9 53 66.8 94 162.2-9 129.8-43-35.6-71-85.1-112-123.3-31-49.4-97.1-117.1-112.5-148.6 34.2-4.4 54.5-3 48.5-41.9-65.6 65.4-70.3-95.7-20.1-70.2 102.1 14.2-61.8-24.6 23.1-86.1 2-12.5-15.5-42.1 4-53.9 6-3.8 14 2.7 25-2-27-23.6-38-110.5-40-154.5 10 6.6 22 14.8 26 11.7-35.5-47.8-11-107.2-58.9-103.8-11-2.5-178.4-43.8-205.5 18.7-81.8-9.7-56.7 123.9 13.2 90.2 64.7-2.3 54.8-30.3 99.9 84 11.8 22.2-135.4-13.2-97 59.5 40.6-2.7 6.6 48.3-30 12.1-53.4 2.2-106.3 44.1-120.3-30.2-32.4 49.7 62.2 71.4-4.8 85-140.5-55.5-80.1-69.4-142.1-81.9l-113.8 0.4c-15 10 4.9 37 6.2 85.5 10.9 17.4 21.3-4.6 26.2 5.6 10.1 21.1 2.9 66.3-17.2 78.1 36.3 33.3 60.3-78.6 63.2-20.3 10.1 46.8 4.7 60.8-30.7 84.8-7 1.9-4.4-19.6-10.5-23.6-37.3 72.1 113.6 52.2 48.8 106.6-55.7 3.9-65.7 34.9-93.7 35.7-23.1 0.7-29.3-29.3-50-28.4-15.6-49.5-64.1-38.7-51.2 10.8-46.9 41.3 54.5 22.7 8.2 54.9-37.2-15.7-85.9 2.7-39.8 37.4-36.2 45.6 13.4 60.3 43.5 10.3 59.4-9.9-56.9 47.9 17.6 49.2-11.4 57.7 56 31.1 33.7-10.1 25.1-20 29.3-17.7 44.4-16.6-10.5 17.7 18 57.6 39.7 16.1 53.1 31.7 15.4-47.6 56.9-38.6 27.7 18.8 28.6 9.7 46 39.7 23.6-15.5-32.8-56.3-24.7-52.4 20.9 10.5 77.8 3.1 104.4 34.5 15.3-29-57.5-50.9-1.2-44.4 26.3 0.3 96.3 56 46.5-9.5-43.4-38.9 103.5 48.1 121.8 3.1-29.3 11.5-80.6-39.8-33.5-37.9 58.7 37.3 127.6 50.4 191.7 76.4 57.3 25.1 61.9 76.3-4.2 84.9-87.8 63.9-128.1 33.1-149.3 52.9-31.7 29-79.2 59-112.1 42-4.5 56 65.3-7 58.1 46 6.9 84-35.9 130-127.2 127l-39.4 128c49.5-24 2.1 30 32.5 26 58.9-103 23.7 25 66.7 32 2.2-1-18.2-19-7-44 29.8-35 42-26 41.3 15-13.1 36 65.8 87 71.7 45-82.4-3 10.2-109 24.4-49 59.3 70-11.8-51 37.5-65 33.6-52-9.4-74 72.2-160 22.8-26 126.8-107 110.4-85-34.6 65-14.9 178-73.8 218 68 13 70-108 108.2-47 26 38 28 152-18 153-25.8-16-76-59-69.8-2-17.1-4-27.1 33-6.2 39 16.6 6 48-2 63.2 0-32.5 51-52.5 9-86.8 37-5.9 4-30.5 5 22.3 19 2.2 25-85.4 44-3.2 56 41.2 12 15.3-29 72.4-30 24.1-19 48.1-34 32.1 11-33.8 53-16 48 13 49-12 59 87 10 29-35 37-20 42-99 77-44 89 20 47-95-23-70 36-21 32-23 54-20 2-31 1-44 0-46 14 21 53 40 75 32-34-7-33-25-51-41-40-50 108 41 125-39-15 2-67 42-111-31 45 29 162-14 135-64-13 42-44 52-87 45-40-7-93-29-108-57-38-77-1-110 18-195 68 31 136-17.4 134-97.3 6-71.7 34-138 62-203.3 15-102.5 41-175.8 38-198-42 49.8-52 132.9-65 194.8-23-23.6-46-69.8-70-116 4-8.6 9-20.8 15-37.3 20-71.2 43-145.2 34-220.1 26-11.9 90-63.7 60-112.2-23 73-42 57-22 16.2 16-36.8 4-142.5-8-35.5-49 79.4 24-76.1-33-103.5 3 24.1 14 91-13 110 1-24.4 1-111.6-42-129.2 9 26.2 6 119.9-6 198.8 54 91.1 34 141.8 16 212.5-10 21-16 44.8-20 65.6-9-17.8-19-34.6-30-49.2-29-68.2-65-159.2-11-222.7 23-67.3-9-139.9 17-207.4zm-383.3 149c48.6 2.8 45.6 32.6 0 27.1-37.5-4.5-33.9-29 0-27.1zm-371.9 370.2c2.8 29.3-4 36.8 18.1 41.4-3.6 21.8-11 31-22.1 39.5-11.5 4-55.2 3.8-36.9-9.2 33.2-5.7 40.8-43.7 40.9-71.7zm774.2 29.6c25 49.8 46 100.6 46 156.7 9 51.1-51 95.7-69 26.9-38-49 19-127.9 23-183.6z"/><path d="m881.8 32.52c-11.3 0.3-21 7.39-25 14.85-2.4 3.96-0.9 8.66-0.5 12.93-7.1-1.5-14.6-3.02-21.5-0.15-5.7 2.05-9.2 7.13-13 11.44-4.1-2.74-8.4-5.42-13.4-6.44-6.4-1.72-13.2-0.96-19.7-2-5-1.71-8.1-6.64-13.3-8.03-8.9-2.36-18.7-2.71-27.3 1.12-7.4 3.04-12.5 10.21-14.7 17.72-1.9 8.04 4.7 15.4 4 23.41-1.1 6.03-6.4 10.83-7.2 16.93-0.9 8.6 2.6 17.9 10 22.8 4.5 3.1 10.3 3.1 15.6 2.6 7.5-0.7 14.4-4 21.2-7.2 3.6 4.6 8.3 9.2 9.2 15.3-0.8 3.4-2.2 6.5-3.4 9.7 1.9 3 4.2 6 5.2 9.4-3.6 7.4-11.7 10.7-16.7 16.9-3 3-4.9 7.2-8.7 9.1-10.7 2.8-20.8 7.1-31.6 9.6-6.7 1.4-12.2 6-16.1 11.4-2.6 3.9-1 8.9-1 13.3 0.9 7.8-5.1 14.1-5.7 21.7-0.4 5.7-0.5 11.6 1.6 17 2.9 5.6 8.2 9.4 12.2 14.2 6.2 6.9 9 15.9 11.4 24.6 1.7 6.8 7 14.2 14 15.8 4.1-2.8 6.4-9.8 11.9-10 3.3-0.4 4.6 3.2 6.4 5.2 4.4 6.8 15.6 10.7 23.5 9.2 2.6-5.4 10.3-16 19.4-16.5 6.2-0.4 11.9 4.1 16.9 6.7 1.5-4.5 4.3-5.7 10.2-4.6 9.5 1.8 9.6 11.8 11.4 18.8-12.3-2.5-24.7-5.2-37.4-4.5-11 0.3-21.7 3.3-32 7.1-13.3 3.8-27.4 3.4-41.2 3.1-9.5-0.6-19.3 0.4-28.5-2.4-9-2.5-16.8-7.7-24.3-13-6.9-5-14.4-9.4-20.5-15.5-4.8-4.3-9.7-9.6-16.6-10.1-6.3-0.4-13.8-0.2-18.2 5-5.8 7.2-6.6 18.7-0.7 26.2 12.8 15.6 31.5 26.7 51.7 29 16 3.9 32.5 3.3 48.8 3.3 15.5-1.7 30.9-4 46.5-5 15.2-2.3 30.5-2.5 45.8-2.6 7.5 0.5 14.8 2.4 22 4.1 1.9 0.2 3.8 2.6 2.1 4.1-3.7 5.2-7.2 10.5-11 15.6-1.8-3.6-3.3-7.7-7.1-9.6-4-2.2-8.4-4.4-13.1-4.4-7.3 2-10.4 9.9-14.6 15.4-3-3.6-5.6-7.5-8.6-11.1-5.5 6.4-8.9 14.3-12.5 21.8-2 3.6-1.8 7.8-1.9 11.8 0.3 4.7-4 7.9-5.3 12.2-0.6 4.2 0.3 8.4-0.9 12.5-0.5 2.4-1.7 4.8-1.6 7.3 2.8 5.5 8.3 9.7 14.4 10.8 4.2 0.8 8.3 1 12.5 1.7-6.8 10.2-21 10.1-31.4 6.6-6.6-2.9-12.4-7.6-19.4-9.4-8.5-2.4-17.6 0.2-25.1 4.3-10.5 5.2-21 10.7-32.7 12.7-12.8 3.7-27.4 1.8-38.1-6.4-6.3-4.8-8.5-12.9-11.3-20-2.1-5-1.6-9.7 1.4-16.8-5-1.3-11.2 0.3-14.5 4.9-5.5 7.7-7 18.4-3.4 27.2 2.6 7.2 4.4 14.8 9.1 21 5 6.4 10.6 12.4 16.4 18.1-4.2 6.2-11.6 8.5-18.6 9.6-3.7-0.8-6.9-2.8-10.3-4.4-12-5.6-24.2-10.8-36-16.8-7.4-3.8-16-4.2-23.6-7.7-4.6-2.2-9.2-4.4-13.6-6.9-5.8-2.7-5.6-10.1-9.2-14.7-6.4-8.5-15.9-16.3-21.1-25.6h-152.2v32.4c1.7 10.9 5.2 21.5 10.6 31 1.5 7.1 2.4 14.4 3.8 21.5-1 0.3-3.1 0.9-4.2 1.2 0.2 6.9 5.9 11.1 10.6 15.3 3.5 3.2 8.5 3 13 3.5 0.8-3.9 2.1-7.8 4.7-10.9 1 6.9 0.8 13.9 2.7 20.5 1.4 4.9 2.7 9.9 1.6 15-1.9 10.8-3.3 22.7-11 31.3-3.7 4.4-9.9 3.7-15 4.8 2 5.3 5 10.9 10.8 12.9 9.7 3.4 20.2-0.3 28.6-5.3 7.5-5.3 14.7-10.9 22.1-16.2 3.4 7.2 5.2 15.1 5.4 23.1 0.2 8.8 1.3 17.6-0.3 26.2-0.8 4.5-4 8-7.3 10.8-6.6 5.4-12.7 11.5-19.1 17.2-2.1-3.7-3.2-7.8-2.9-12.1 0.3-6.3-2.2-12.3-5.4-17.5-4.1 3.3-8.2 7.1-9.8 12.3-1.6 5.7-2.2 11.8-1.1 17.7 0.9 4-0.1 7.9-0.7 11.9 5.5 3.8 8.4 10.4 14.3 13.7 4.5 2.6 8.1 6.4 11.9 9.8 3.8 3.5 9 4.9 13.8 6.6 10.8 3.7 20.3 10.2 31.1 13.9-6.5 7.2-12.9 15.1-21.8 19.5-9.1 3.7-18.9 5.5-27.9 9.4-10 3.9-19.3 10-30 11.9-8.9 1.8-17.5 5.8-24.5 11.6-2.8 2.1-4 5.5-5.1 8.7-2.9-0.4-5.8-0.7-8.7-1.1-1.5-4.2-2.6-9-6.3-11.9-3.4-2.2-7.3-3.2-11.1-4.6-1.2-3.7-1.9-7.9-4.6-10.9-3.2-3.3-8.1-3.7-11.8-6.2-3.6-6.3-6.2-13.3-11.3-18.8-9.7-10.3-25.3-14.1-38.5-9.4-4.7 2.4-6.5 7.9-10.5 10.9l-13.9 46.6c0.3 8.5-0.4 18.7 4.9 25.8 6.3 8.4 18.2 7 27.5 8.9-1.6 1.9-2.6 4.7-5.3 5.3-6 1.3-12.4 0.5-18-1.8-7.1-3-14.9-3.9-22.6-4.1-5.1 0.8-9 4.6-13.1 7.4-8.7 5.7-14.1 14.7-20.9 22.3l13.8 48.1c0.9 3 0.7 6.8 3.6 8.7 4.9 4.3 11.8 4.1 17.5 6.6 3.9 1.4 7.8 3.9 12 2.7 4.8-1.3 9.6-2.7 13.9-5.3 6.6-4.8 7.9-13.3 10.8-20.4 1.8-3.7 6.2-3.9 9.8-3.9 0 3.8 2.1 9.2-2.1 11.6-6 4.2-11.1 10.1-12.7 17.5-0.5 4 1.7 7.7 2 11.7l29.1 35.4c10.2 1.3 22.8 2.3 30.2-6.4 8.6-10.9 6.6-25.8 5.2-38.7 6.7-4.8 13.5-9.8 21.1-13 3.8-1.6 8.2-2 12-0.3 3.4 10.5 4 22.3 10.6 31.5 2.7 3.7 7.7 4.8 11.9 3.5 8.6-2.3 16.5-6.5 24-11 2.2-1 4.7-2.2 7.2-1.6 3.3 2.1 5.6 5.4 8.9 7.6 4.4-0.6 8.6-2.2 12.6-3.8 3.7-1.6 5-5.7 6.4-9 2.9-7.9 6.4-15.5 9.1-23.4 1.6-4.2 3.1-8.6 5.9-12.1 3.1-1.3 6.6-0.8 9.8-0.1 8.1 1.9 15.3 6.4 21.8 11.5 3.7 3.1 8.7 5.1 10.5 9.8 2.4 5.6 4.4 11.3 5.6 17.3 2.4-0.4 5-0.3 7.3-1.5 4.1-3.1 5.9-8.6 5.6-13.7-0.8-9.5-4.8-18.4-10.2-26.1 9.5-0.6 19-0.1 28.4-1.3 6.3-0.8 12.6 0.3 18.8 1.4 6.8 1.2 14 3.2 19.1 8.3 4.9 5.2 11 9.9 13 17.2 0.6 0.1 2 0.3 2.7 0.4 4.2-5 7.5-11.2 6.8-17.9-0.6-8.6-7.7-14.6-9.9-22.6 11.4-1.3 23.9-2.2 34.4 3.5 7.2 3.8 16.2 4.3 22.3 10 2.4 4.7 3.8 9.9 5.8 14.7l3.2 0.4c2.2-7.8 3.4-15.9 3.2-24 0-3.7-1.7-7.1-4.4-9.6-5.3-4.9-10.5-9.9-14.7-15.8 12.5 3.8 25.2 7 37.2 12.4 9.8 4.2 20.8 3.6 31 6.2 5.9 1.4 11.8 3.6 18 2.8 8.2-0.9 17.2-0.8 24.1-5.9 5.9-4.3 12.1-8.5 17-13.9-5.1 0-10.2 0.3-15.3-0.3-7.2-0.7-14.7-0.7-21.3-3.9-6.5-3.1-12.4-7.7-16.3-13.7-3.2-5.5-1.2-11.9 1.5-17 7.5 7.3 16.4 13.6 26.8 16.3 7.9 2.1 16 4.6 22.6 9.8 4.8 3.1 8.7 7.7 14.2 9.7 7.3 2 14 5.7 21.4 7.8 10.2 5.2 21.3 8.4 32.6 9.9 6.3 0.8 10.1 6.5 15.9 8.4 5.4 1.7 10.6 5 16.4 4.8 5.6-0.2 10.9 1.9 16.2 3.5 5.8 1.9 12.3 0.7 17.9 3.7 8.2 4.5 16.7 8.7 24.6 13.8 5 4.6 9.3 9.9 14.7 14.1 4.9 4.9 11.9 6.3 17.4 10.2 4 2.8 5.1 9 1.8 12.8-3.3 3.5-7.8 5.7-11.1 9.3-6.5 7-14.9 11.8-23.2 16.4-11.1 5.6-23.4 8.6-34.2 15-7.2 3.5-14.3 7.1-21 11.3-8.1 4.1-14.5 10.8-22.6 14.7-9.4 5.3-20.1 8-30.8 8.1-9.3 0.1-18-4.6-27.2-3.4-11.1 2.2-20.4 9-30.4 14.3-8.1 3-12.4 12-20.1 17-7.2 4-12 11-19.3 15-8.9 5-18.3 9-28 13-16.9 5-23.1 3-40.4-5-2.7 14 0.4 18 3.9 25 3.7 7 25.5 11 31.8 11 5.6 0 11.1-1 16.6-2-2.8 11-1.8 23-1.8 35-0.1 6 5 12 4.6 19 0.5 7-5.3 12-7.9 17-4.6 10-7.8 21-11.7 31-2.6 7-8.6 11-13.8 16-4.2 4-9.8 6-15.2 7-5 2-9.6 4-14.4 6-6.3 3-13.4 4-20.1 5-12.8 3-26.5 6-39.3 1-12.5 47-25.3 98-43.1 139 7.5-2 15.1-2 22.6-1 0.2 6-0.4 12 1.8 18 2.1 6 6.1 10 10.1 14 3.2 3 8.4 6 12.8 3 1.3-4-0.5-8-1.4-12-2-6-0.1-13 2.7-19 3.1-6 10.1-8 16-10 3.7-2 7.1 1 9.4 4 2.9 12-4.9 24-1.1 35 2.5 9 6.8 18 15.5 21 10.2 3 21.6 2 31.7-1-8.5-3-18.5-6-22.1-15-2.3-7 1.4-15 4.4-22 2.1-6 8.2-8 13.2-10 4.7-2 9.8-2 14.8-2-0.1 12-4.6 24-0.9 35 9 20 26.8 35 45.7 46 9.1 3 19.8 3 28.7-1 7.4-3 9.3-13 12.1-20-5.3 0-10.8 2-16 3-6.9 1-13.4-4-16.8-9-2.6-4-1.9-9-2.4-14-0.6-5-1.3-11 1.8-16 2.3-5 8-7 12.4-10 5.9-3 12.3-6 18.2-10 2.1-2 4.8-1 7.2-2 1.4 6 3.1 11 6.4 16 5.2 8 10.8 16 19.3 20 5.8 3 11.9 6 18.3 6 2.8-4 1.7-9 0.8-13-1.6-7-6-14-7.4-21s0.2-14 1-20c1-9 6.1-17 12.4-23 7.8-8 13-19 20.7-27 4-5 6.9-10 8.2-16 2.9-10 1-20 0-30-1-11-4-21-1.9-32 0.5-7 5.8-12 8.5-18 5.9-12 17.9-18 26.7-27 5-6 11.5-9 16.1-15 3.6-5 6.9-9 11.1-13 8.7-8 17.1-17 27-24 3.7-2 7.3-5 10.7-8 8.8-7 19-13 29.3-17 2.2 5-1 11-2.2 16-2.6 10-2.1 20-4.2 30-1.3 7-2.6 14-1.8 21 1.2 9 1.2 19 1.4 28 0.2 8-2.9 15-4.8 22-1.7 6-2.8 13-4.7 19-5.5 16-14.8 32-29.5 42-5 3-10.3 5-14.2 10 4.2 5 11.3 4 17.3 5 4.7 0 9.7 1 14.1-1s7.8-5 11.4-8c4.1-4 9.8-4 13.8-8 3.1-3 6-6 9.3-9 6.5-5 11.2-12 17.2-17 5-5 7.3-13 14.7-14 7-2 13 4 17 9 10 19 19 40 15 61-2 14 1 28-3 41-2 9-1 18-3 27-1 4-4 6-7 8-8 3-17 2-23.5-3-6.2-3-6.5-11-12.4-15-8-5-17.8-6-26.8-9-9.7-3-20.1 1-27.5 8l-9 33c-6.9 3-10 10-12.9 16 3 4 6.5 8 10 12 3.8 5 7.4 11 13.7 12 7.1 1 15.4 3 21.7-2 4.5-3 10.6-4 15.9-2 2.9 1 5.9 3 5.4 6 0.4 6-3.8 9-7.8 12-4.3 3-10.1 2-15.1 2-5.2 0-9.7-3-14.5-5-7.6 1-13.5 6-19.9 10-6.3 3-14.1 2-20.3 6-3.4 2-7.7 4-8.6 8 0.1 3 1.4 5 2.2 8l1.6 56c5.2 4 10.4 8 16.7 9 12.9 2 26 6 39.2 4 3.8-1 6.1-4 8-7 5.3-8 10.4-17 19-22 7.7-1 15.4-2 22.9-3 6-1 11-5 16-7 5 0 10 1 14 1 0 4 1 8-1 11-4 4-9 8-12 13-1 5-1 10-3 14-1 5-5 10-8 14l28 32c5 2 9 6 15 7 13 1 26-4 37-10 3-2 4-6 6-9 2-5 6-10 6-16s-2-11-4-16c-3-5-9-7-13-11 0-2 1-3 2-5 4-5 8-10 12-14 5-6 8-14 14-19 3-4 7-8 11-11 5-4 10-6 16-8 6 9 15 15 25 16h18c6-2 10-5 15-8 7-5 10-13 13-21 3-6-2-14 1-20l-23-30c-4 2-8-1-11-2-7-3-14-1-22-1 3-5 5-11 11-12 7-2 14 2 21 2 6 0 10 2 16 4-2-9-13-10-15-18-3-7 1-14 2-21 4 1 8 2 11 4 5 4 10 8 16 10 9 3 19 8 29 8 9 0 16-5 24-7 3-1 7-3 5-7-5 0-10 1-15 2-14 1-29-8-35-21-4-6-7-14-6-21 8 3 17 6 26 7 12 2 24 4 36 2 12-3 25-6 36-13 9-5 17-11 22-19 2-7 0-14-1-21-4 0-7 1-9 4-8 9-18 16-30 16-8 1-16 0-24 0-7-1-13-5-19-9-9-4-16-12-22-20 4-1 8-1 12 0 14 3 28 5 41 0 9-3 17-6 26-8 9-4 18-6 27-10 5-2 8-8 12-12 8-9 12-20 15-31 1-3 1-6-1-9-2-4-4-10-10-12-2 10-5 18-10 26-3 5-7 9-12 13-11 8-24 12-38 14-2 0-5-1-7-2-6-1-13-2-19-5-9-3-19-4-29-5-9 0-17-5-25-8-7-4-15-5-21-11-3-3-8-6-11-10-3-6-4-12-7-17-2-5-5-10-7-15s-4-12-7-17c-3-7-8-14-8-22-1-10 1-20 4-29 2-5 3-12 7-17 3-6 4-12 5-18 2-7 5-13 7-19 2-8 4-17 6-25 1-6 6-11 12-13 17-2 33 2 49-2 7-2 14-3 20-6 7-3 14-6 20-10 8-6.5 15-14.5 20-23.6 4-7.8 9-15.3 10-24.1 3-11.9 5-23.8 7-35.7 2-7.6 1-15.3 2-22.9 2-9.3 5-18.3 6-27.7 2-17.7 8-34.5 12-51.9 2-10.6 7-20.3 10-30.8 2-6.7 4-13.2 6-19.8 2-5.6 6-10.5 9-15.6 6-12 10-25 15-37.8 4-11.9 5-24.5 6-36.8 3-16 6-32 8-48.2 1-10.6 3-20.9 4-31.5 0-6 2-11.7 4-17.5 1-6.7 1-13.7 4-20.2 3-9.2 6-18.3 9-27.6 3-10.3 5-20.9 7-31.6v-6.6c-11 5.8-21 13.5-27 24-10 15.3-12 34.1-19 50.7-3 6.7-7 12.8-9 19.6-3 8.5-5 17.5-7 26.5-2 11-4 21.9-4 33.1-2 12.5-3 25.2-6 37.4-1 2.2-1 5-4 6.1-1-1.8-2-3.7-3-5.6-5-12-11-23.7-16-35.6-9-17.3-18-33.8-27-50.9-3-5.2-7-10.1-7-16.2-1-8 2-15.8 5-23.3 4-12.8 9-25.6 12-38.9 2-7.4 5-14.2 6-21.7 3-12.4 8-23.9 10-36.4 2-10.4 2-21.1 4-31.6 2-14.6 4-29.3 6-43.9 1-9.1 4-18.1 4-27.4 0-13.2 2-27.3 10-37.8 5-5.7 9-12.3 15-16.4 8-5.1 14-12.7 20-19.7 7-7.2 11-16.3 12-26.1 1-10.9 1-21.8-1-32.6-1-8.8-4-18.5-12-23.6-4 12.4-2 26.3-9 38-3 7-9 12.9-16 17.7 3-7.3 8-13.6 11-21.3 3-11.5 5-23.3 7-35.3 1-11.2 0-22.6 0-33.8 0-13.8-6-27.9-17-36.6-1 6.1-2 12.3-1 18.6 0 8.9-2 17.7-4 26.4-1 11.7-5 23.6-13 32.8 1-5.6 3-10.6 4-16.1 2-11.2 3-22.4 4-33.6 2-11 1-22.4 0-33.5-1-7.6-3-15.2-7-22-4-6.28-10-10.7-15-15.29-4-3.21-8-5.1-13-6.35 3 9.06 7 17.63 9 27.04 2 13 1 26.3-1 39.1-1 12.2-4 24.2-7 36-1 0.1-3 0.3-4 0.5 2-9.7 3-19.3 3-29.1 1-11.2-1-22.4-3-33.5-1-5.9-3-11.5-6-16.7-7-13.34-16-25.54-28-35.03-5-4.03-11-6.89-17-7.56 4 9.16 5 19.27 6 29.25 1 13.94 0 28.14 2 41.94 3 11.5 2 23.3 2 35 1 8.8-3 17.1-5 25.5-2 8.2-3 16.8-5 25.1-3 14-5 28.5-4 42.9 1 11.2 4 22.5 10 32.2 5 8.9 11 17.4 17 25.9 4 6 7 12.9 7 20.1 1 9.1 0 18.3 0 27.4-1 11.3 1 22.7-1 33.9-2 12.1-1 24.6-4 36.5-4 11-4 22.7-8 33.6-4 11.7-7 23.8-11 35.2-3 6.1-6 12.5-9 18.5-3-0.2-4-3.5-5-5.8-5-10.5-13-18.8-18-29.1-7-16.1-15-32.3-19-49.5-5-15.8-8-32.1-11-48.4 0-8.5-4-16.5-5-24.9-1-7.9-2-15.8-1-23.8 0-7-3-14.2 0-21.1 3-7.1 10-11.7 14-18.3 10-16.1 16-34.6 20-52.9 4-18.8 2-37.9 1-56.8 0-7.5-1-15-2-22.3-2-8.2-2-16.6-3-24.7-1-7.8-1-15.8-2-23.7-1-21.8 10-41.42 13-62.53-11 1.07-20 10.04-27 18-8 8.12-15 16.26-19 26.53-3 6-5 12.4-7 18.5-6 14.1-5 29.6-7 44.3-5-17.6-5-36.2-3-54.2 2-13 9-24.13 13-36.32-8-0.08-12 8.68-17 14.35-8 9.37-15 20.27-20 31.37-4 11.9-6 24.6-6 37.2-1 7-2 14.1-1 21.1 2 8 4 16 3 24.1-8-10.1-9-23.9-12-36.3-2-6.9-1-13.9 0-20.8 0-10 5-19.5 3-29.5-10 4.9-16 15-19 25.1-4 8.9-6 18.7-8 28-2 7.2-2 14.7-2 22 1 7.7 4 14.9 5 22.4 2 8.7 7 16.2 11 23.9 3 8 9 15.5 9 24.8-8-6.1-16-12.2-20-21.2-3-4.5-3-9.8-4-14.8-2-4.3-5-7.7-9-10.6-6 6.7-4 16.5-5 24.8-1 13.3 5 25.7 10 37.4 3 7.7 9 13.9 15 19.8 6 6 13 12.1 20 17.4 2 1.6 4 3.1 4 5.7 2 12.3 3 24.9 6 36.9 4 16.7 3 34.3 8 50.6 5 17 8 34.4 14 51.2 2 7.5 4 15.3 7 22.8 9 20.8 17 42.4 28 62.5 4 9.8 8 19.8 14 28.7 5 6.3 0 13.3-4 18.9-6 10-12 20.8-18 31.1-4 6.9-8 13.7-11 21-4 10.4-7 21.3-12 31.5-3-4.8-5-10.5-6-16.3-2-8.7-6-16.5-9-25-7-23.7-14-47.2-24-69.9-3-5.4-6-10.8-8-16.5-3-6-8-11-12-15.9-4-4.1-7-9.6-12-11.9-7-3.2-14-5.9-22-7 3 5 7 8.6 10 12.5 10 11.9 17 25.6 20 40.4 3 9.7 6 19.3 7 29.3 2 8.9 4 17.5 6 26.4 2 12.2 3 24.7 5 37 1 14 1 28.2 3 42.2 1 7.1 2 14.3 3 21.4 2 13 5 25.7 10 38 3 12.1 8 23.7 15 34.4 3 5.5 8 9.6 12 14.8 3 3.2 5 6.2 8 9 5 4.5 8 10.8 12 15.6 4 4.4 7 9.5 11 14.1 9 11.2 18 22.1 26 34.3 3 5.8 4 12.4 6 18.5 4 10.2 2 21.4-2 31.1-2 5.5-7 9.4-12 11.8-5 2.3-11 1.6-16 1.5s-11 0-16-3.3c-6-3.6-12-6.8-16-11.7-13-12.2-21-27.3-31-41.3-4-6.8-11-11.8-16-18.1-5-7.2-13-12.6-19-18.5-9-7-14-16.8-22-24.5-7-7.6-10-17.7-17-26-7-9.8-15-18.9-21-29-5-7.8-12-14.5-18-21.9-7-10-15-19.5-23-28.8-8-9.5-17.2-17.7-26.2-26.3-1.9-2-4.8-4.8-3.1-7.8 3.5-5.3 9-9.3 14.9-11.6 5.4-2.2 10.4-5.8 14.4-10.4 4-4.4 5-10.3 5-15.8s-3-10.6-4-15.9c-7 7.5-15.8 13.4-25.9 15.2-11.9-3.8-20-15.9-20.6-28.1-0.8-11.9-1.5-25.1 5.2-35.6 2.9-4.2 5.6-9.3 10.7-11 4.9-0.2 9.7 1.4 14.5 2.1 10.1 2.1 21.1-1 30.1-5.3 4-1.7 7-4.9 9-8.2 3-5.1 7-10.6 9-16.3-5 0.3-9 3.1-13 5.4-7 3.8-15 1.7-21-3.6-6-6.4-14.2-12.8-16-22.4-0.9-8.7 3.9-16.5 8-24 3-7.7 11-11.6 15-18.9 3-4.2 5-9.1 4-14.1 0-5.2-4-9.3-6-14 0-3.7 2-7.1 3-10.7 2-4.9 2-10.2 3-15.4 6 0.4 12 1.8 17 0.5 5-1.6 9-4.6 13-7.2 4-1.9 5-5.9 7-9.3-5-1.1-11-0.4-16-2-4-2.7-7-6.8-11-10.5-4-4.9-5-11.6-6-17.7-1-6.9-2-13.9-1-20.9 1-11.1-1-22.3-1-33.4-3-14.2-6-28.2-9-42.3 9 5.4 21 5.8 31 1.8-6-7.6-13-12.7-20-19.2-6-5.5-8-13.4-10-20.9-4-15.2 0-30.6 0-45.8 1-9.4-4-18.2-11-24.4-4.4-4.2-11.4-4.5-15.9-8.9-4.3-7-4.7-16.7-0.4-23.8 3.1-3.3 7-6.5 11.5-7.6 4.8 1.1 8.8 5.1 13.8 3.8 7-1.5 13-3.6 18-8.4 4-4.5 4-11 4-16.8-1-6.5-6-11.9-7-18.4 0-5.16 2-10 3-14.8 2-6.42 0-13.82-4-18.75-7-7.89-19-10.84-29.5-7.56-6.7 2.07-10.6 5.99-16.9 8.78-6.6 3-16.4 1.01-23 4-4.4 2.01-9.1 4.25-12.2 8.22-3 5.24-4.5 11.56-3.8 17.59 2.2 6.82 8.8 10.62 13 16.02-1.5 7.4-9.9 10.3-16.6 9.8-8.2-0.7-16.7-1.6-24.4-5-4.3-1.8-4.6-7-5.8-10.9 6.9-0.6 14.2-0.6 20.6-3.8 6.3-3.1 9.7-10.06 10.9-16.71 0.9-6.03 0.6-13.08-4.1-17.6-5.3-5.7-13.7-5.36-20.8-6.62-2.3-6.24-4-12.97-8.6-17.94-5.4-6.35-14.2-14.65-23-14.41zm-1.3 10.13c3.9-0.02 7.8 1.02 10.9 3.15 5.1 3.5 10.8 7.5 12.7 13.63 1.4 4.3-3.3 6.47-5.8 8.94-3 2.23-4.7 5.02-5.9 8.56 2.7 1.62 5.4 0.83 8-0.5 5.5-2.54 11.6-2.93 17.5-3.28 6.9-0.6 14.1 6.49 12.1 13.53-0.8 5.61-4.2 11.61-10 13.07-5.8 1.55-12.6 2.45-17.8-1.1-4.2-2.82-5.7-7.86-8.8-11.66-1.8 0.17-4 1.01-3.7 3.32-0.5 9.69 1.7 19.49 5.7 28.39 4.1 5.7 10.4 9.4 16.8 12 6.8 2.8 14.3 1.3 21.4 2.5 8.4 1.5 16.7-1.2 24.6-3.6 4.9-1.4 8.4-5.4 13-7.5 5.3-2.5 8.2-8.1 9.1-13.6-5.7-0.2-11.6 1.9-17.2-0.1-6.2-3.4-10.3-10.16-12-16.91 0.4-4.44 1.6-10.15 6.2-12.06 6-1.26 12.8-2.26 18.4 1.03 3.6 1.85 5.6 5.59 8.8 7.88 1.9 0.84 4.1 0.63 6.2 0.87 0.2-4.77-0.5-9.83 1.7-14.25 2.3-4.81 7.2-8.91 12.6-8.22 8 0.71 17 5.84 18 14 2 7.98-3 16.07-10 19.13-4 1.33-7 3.63-8 6.93 4 0.1 8-1 12-0.3 5 2.9 9 8.9 8 14.9-2 6.2-5 12.5-11 15.1-5 0.5-10-2.1-13-5.4-4.7-3.9-4.6-10.1-6.4-15.2-5.7-0.3-6.1 6.5-8.8 10.1-5.1 7.5-11.2 14.3-17.6 20.7-4.5 4.6-12.6 7.1-12.6 14.7-7.5-0.4-14.3-4-21.8-4.2-7.3-0.5-14.5-1.8-21.5-3.8-5.1-1.4-10.5-0.8-15.7-2.3-2.8-3.3-3.3-8.5-7.6-10.5-5.3-2.5-12.1-3.7-17.3-0.4-3.9 2.3-4.3 7.2-5.7 11.1-10.8-0.2-21.5 2.2-32.3 2.4-9.3 1-18.4 3.2-27.6 4.7-0.3-3-0.5-6-1.2-8.9-2.9-2.8-7.1-4.2-9.2-7.9-5.7-9.1-11.8-18.1-16.5-27.8-1.6-3.5-4.7-5.6-7.5-7.9-0.9 5.8-1.9 11.5-2.5 17.3-0.5 4.7-4.7 8.5-9.1 9.6-6.4 0.9-13.6 0.1-18.7-4.2-3.7-3.2-4.3-8.8-2.3-13.1 3.1-7 8.1-11.7 15.8-16.35-5.9-4.94-12.6-11.4-12.3-19.66 0.3-8.66 6-19.09 15.6-19.34 7.6-0.2 16.3 1.52 20.6 7.91 2.9 4.23 1.7 11.79 2.7 16.81 2.9-3.64 5.9-10.53 10.5-12.31 6.8-2.61 15.3-1.31 20.6 4.09 6.4 6.49 7.7 17.48 2.4 24.85-2.7 3.8-8.1 4.2-12.4 3.2-4.1-1-7.1-4.4-10.9-5.95-1.9-0.09-3.6 0.68-5.4 1.09 2.3 8.66 10.2 13.46 16.2 19.26 3.5 3.5 8.7 3.9 13.3 4.8 9.5 1.9 19.2 1 28.8 1.5 5.3 0.3 10.9-0.8 15.1-4.3 9.4-7.1 12.2-20.7 8.2-31.45-0.5-2.3-3.7-3.56-5.6-2.06-1.8 3.33-1.4 8.43-5.4 10.22-5.4 2.15-12.1 3.19-17.3-0.13-4.6-2.87-5.9-8.61-7.3-13.47-2.3-8.93 5.9-17.92 14.6-18.31 7.2 0.95 14 6.96 21.4 6.37 0.8-7.09-7.6-13.84-3.7-20.81 3-5.8 9.5-8.78 15.9-8.81zm351.5 26.81c-9 16.38-14 35.54-14 54.44 1 10.6 0 21.3 1 31.8 2 23.7 5 47.5 4 71.4 0 14.5-3 28.6-7 42.5-2 7.7-6 14.4-10 21.3-4 7.4-12 11.2-16 18.5-5 7.5-5 17-5 25.7 0 11.3-1 22.7 2 33.8 2 9.2 2 18.7 4 27.8 3 12.4 5 25.2 10 37.3 4 11.6 5 23.9 10 35.4 5 13.4 10 26.9 19 38.8 5 7.4 11 14.1 15 22.2 4 8.9 10 16.8 15 25.5 4 7.6 7 16.3 13 23.3 8 11.5 12 25.9 21 37.7 3 4.8 5 10.3 8 15.5 9 16.3 17 33.2 24 50.6 1 3.3 4 4.4 6 7.2 4 7.3 8 15 12 22.3 10-20.5 15-42.8 18-65.3 0-4.6 0-9.2 1-13.8 1-9 3-18.1 6-26.7 2-5.6 4-11.4 6-17 9-18.9 13-39.6 22-58.8 3-8.2 7-16.7 14-22.7 0 17.4-7 33.6-14 49.5-1 4.1-2 8.2-3 12.5-1 4.5-4 8.5-5 13.3 0 8.2 0 16.6-2 24.8-4 17.3-6 34.9-9 52.3-4 12.8-6 26.2-9 39.2-3 9.7-6 19.1-10 28.5-5 10.4-11 20.3-16 30.4-7 13.1-10 27.2-15 40.9-3 8.4-2 17.4-5 26-3 10.3-7 20.3-9 31-1 6.2 0 12.5-1 18.7-1 5.8-3 11.5-4 17.4-2 10.8-1 22-3 32.8-2 18.4-10 35.4-19 51.1-8 7.9-16 16.8-27 21.1-7 3.3-15 2.3-22 3.3s-14 2-22 1c-10-2.3-20-3.2-30-3.8-5-0.3-11-3.9-15-1-4 4.8-7 10.8-7 16.8 1 9-3 16-3 24 0 6-1 12-3 17-2 7-4 15-7 21-2 6-3 12-5 18-3 5-5 11-8 17-4 7-5 16-6 24-1 9 4 19 9 27 4 5 6 12 9 17 4 7 6 15 10 22 2 3 3 7 4 10 1 5 4 9 7 13 3 5 8 7 13 9 9 5 19 11 29 14 6 2 12 2 17 3 10 2 21-1 30 3 8 2 16 2 23 4 10 3 20 0 29-3s18-4 24-11c4-3 7-7 10-11 2-4 4-9 7-14 1 0 3-1 3-1 0 4 1 9 0 13-2 4-5 8-7 12-4 9-15 13-23 17-12 4-23 11-34 14-10 3-20 2-30 0-9-2-17-6-26-6-8 0-15 1-22 0 1 6 3 11 5 16 2 6 7 10 11 14 7 7 17 11 26 16 12 6 25 6 39 7 7 1 13-3 20-6 5-2 9-6 13-9 0 9-8 14-15 19-8 5-18 7-28 9-7 1-14-1-22 0s-15-5-24-5c-11 0-24-2-34-6-9-5-14-15-21-22 1 9 4 16 8 24 4 10 9 19 16 27 7 9 15 19 26 26 5 3 11 3 16 6-11 1-22-4-31-8-16-7-31-18-40-32-3-4-5-8-7-12 0 5 1 11 4 16 2 3 5 6 5 11-1 11-7 22-2 33 0 2 1 4 2 6-5-2-9-5-14-5-5 1-10-2-15-1-6 6-12 13-20 19-3 3-8 3-12 4 2 2 5 5 9 4 12 0 23 0 35-1 3 0 6 1 9 4l20 38c-1 7 0 16-6 21-4 4-9 3-14 3s-12 2-17-1c-3-2-7-4-9-8-3-7-10-12-11-20-11 1-16 11-24 18-1-1-3-3-5-3-2 4 1 8-1 12-1 7-3 14-8 19-4 4-10 4-15 4-6 0-10-4-16-6 2 3 3 6 6 7 4 2 9 2 14 4-4 4-8 8-11 13-4 5-10 10-8 16 3 8 13 9 16 16 2 4 4 10 3 15 0 4-4 7-8 10-7 6-16 7-25 9-3 0-5-1-8-2 0-7 4-13 3-19 0-6-6-9-9-13-5 0-9 2-13 3s-8 0-12 0c3-6 7-12 8-19 1-4 1-7 4-10 5-5 11-10 12-18 0-8 1-16 3-24 1-4-2-7-4-11-4 2-9 4-13 7-4 4-8 10-13 15-6 3-13.3 8-20.8 6-4.9-2-7.4-7-12-9-4.2-1-8.7-2-13.1-2-3.6 9-7 19-9 29-2.4 7-8.7 13-16.5 13-7.7 0-15.1-2-22.7-3-6.4 0-12.4-3-17.5-7 4-16 25-21 34.7-30 4-7-0.7-27-12.4-28-10.6-2-11.7 2-21.2 1 5.1-6 13.7-4 20.1-7 7.4-3 14.4-11 23.2-8 8.6 3 18 3 26.8 1 7.9-4 15-10 18.5-18 2.1-4 5.5-8 8.4-12-6.1 0-12.3-1-18.1-3-8.2-4-17.4-1-25.1 3-5.1 2-11 2-16.4 1-3.7-1-5.4-4-7.4-7-2.6-4-6.1-7-7.7-12-0.3-4 1.1-7 1.5-11l21-34c5.3 1 10.4 3 15.8 4 4.1 1 8.4 1 12.2 3 5 3 6.6 10 11.6 13 3.7 2 7.6 4 11.5 6 5.6 3 12.6 4 19.6 6 6 2 14 1 19-3 7-10 7-24 8-36 2-10 4-21 4-31 1-10 4-20 5-30 0-6 1-13-2-18-5-10-7-20-12-29-4-6-10-11-14-17-5-6-9-15-17-18 11-3 17-14 22-24 4-15 0-30-5-45-3-7-9-13-10-21-1-4 1-7 1-10-3 0-6 2-5 5 0 12 7 21 11 31 4 13 7 26 4 39-4 8-8 16-16 20-6 2-12.6 0-17-5-1.9 3-4.2 6-5.6 9-0.7 4-0.2 9-1.6 13-2.1 6-3.7 12-6.9 18-5.7 10-11.9 20-21 27-3.2 2-7.1 0-10.4-1-3.7 6-9.1 11-15.8 13-3.8 1-7.8 1-11.6 2 9.1-4 15.1-12 21.6-19 7.9-9 13-20 15.9-32 2-13 9.2-24 11.7-37 2.7-9 2.1-18 2.7-27 0.6-8-0.7-16 0.3-23 1.7-15 3.5-30 7.8-44 2.8-8 7.4-16 12.4-24 4.3-10 5.3-20 4.5-30-4.5 4-10.5 6-14.3 12-3.1 3-7 6-9.8 10-4.4 6-10.5 10-16.2 15-6.2 5-13.6 8-20.2 12-4.4 3-9.3 5-13.9 8-5.8 3-8.8 10-13.8 14-3.4 3-7.1 6-9.9 9-4 5-9.1 10-12.9 15-3.1 5-8.6 6-12.5 10s-8 7-10.9 12c-2.1 3-4.1 6-7.6 8-6.9 3-9.6 10-14.4 16-3.6 5-9.8 7-14.4 12-1.9 1-2.1 4-2.6 6-0.8 5-3.6 9-3 14 0.5 7-2 14-0.8 21 2.1 12 3.5 25 0.5 38-9.6 17-24.4 31-35.6 47-8.9 18-4.9 41 7.3 56 3.1 4 4.5 9 2.4 13-6.4-3-12.8-7-16-13-2.5-6-6.4-10-7.3-16-0.7-4-0.6-8-1.1-12-0.2-5-4.5-9-3.6-13 0.5-4-0.7-8-2.4-11-3.1 2-5.9 4-8.1 7-4.7 6-10.8 10-14.1 17-1.3 3-3 6-5.8 7-7.3 5-14.8 9-20.8 16-4.8 5-4.7 14-3.4 20 1.5 7 3.3 14 4 21-0.1 2 2.2 2 3.5 3 7 6 16.9 7 25.4 5 0.3 0 1.1 2 1.4 2-3.1 3-5.7 6-8.5 9-6.5 0-14 2-19.5-3-5.9-3-12.2-6-16.8-11-6.1-7-13.2-13-18.2-21-4.9-7-5.2-16-5.3-24 0-7-0.8-14 0.8-21 1.5-8 4.7-16 5.4-24 0.7-2-1.8-4-3.9-4-5.1 4-9.9 8-15.8 10-7.9 4-17.7 4-24 11-8.1 8-15.4 19-14.7 31 0.6 11 8.2 18 14.8 26-10.5-4-17.3-14-19.8-25-4.2-17-1.2-36 4.3-52-8.9 1-18 2-26.3 6-7.8 3-14.2 9-19.7 15-5.2 6-4.3 15-5.2 22-2.4-7-3.7-16-2.2-24 2.8-6 8.1-11 12.6-16 1.5-1 0.1-3 0.1-5-5.4 1-10.9 2-16.2 4-2.8 3-4.9 7-8.4 9-2.9 2-12.1 4-15.7 4 19.1-38 30.4-86 36.8-120 2.5 2 11.8 2 14.6 3 4 0 7.7-2 11.7-3 8.1 0 15.9-3 24-4 9.1 0 16.6-6 25.3-8 4.7-1 10.2-1 13.9-5 6.7-6 18.2-7 22.4-16 5.7-14 10.9-28 17.2-42 2-4 5.4-7 7.1-11 0.6-4-0.6-7-1.1-11-1.3-6-0.7-13-0.9-19 0.2-5-2.9-8-3.5-12-1.1-7 0.7-14 2.2-21 14 1 24.6-9 37.2-13-0.3-1-0.8-2-1.1-2-12.5 0-23.6 9-36.2 6-5.1 0-10 2-15 3-8.9 1-17.8 3-26.8 2-5.7-1-12.4 1-16.5-3-4.5-5-4.1-12-4.3-19 3.9 3 7.5 6 11.1 9 2.3 2 5.7 1 8.6 1 7-1 14.4-2 21-4 5.7-3 11.9-4 17.3-7 8.7-5 18.2-9 25.3-16 5.9-6 14.2-9 19.5-16 2.3-3 5.2-6 8.6-7 5.9-3 11.6-7 17.9-8.8 6.2-2.3 13-1.5 19.5-0.8 4.9 0.4 8.7 4.6 13.4 5.6 5.3 2 10.9 0 16.2-1 10.2-2 20.3-5.3 29.2-10.7 5.8-3.7 10.3-8.9 14.6-14.2 2.5-3 6.4-4.3 9.9-5.7 4.7-1.8 9.2-4.1 13.7-6.6 4.3-2.3 7.1-6.7 11.2-9.2 9.4-5.9 20.6-7.1 30.6-11.4 10.1-3.8 18.5-10.9 26.2-18.2 4.3-3.1 9.7-6 11.5-11.3 0.8-4.9-3-9-6.1-12.4-3.3-3.1-6.4-6.5-8.8-10.5-9-12.9-23.8-18-37.3-25-4.3-2.4-7.2-7-12.2-8.1-5.2-1.2-9.3-5-14.7-5.5-9-1.2-17-6.1-26-7.1-7-1.1-14.7-1.2-20.9-5.1-3.4-2-4.6-7.5-9.2-7.2-5.9-0.5-11.9 0.9-17.6-0.8-4.6-1.3-8.5-4.1-12.1-7.1-3.5-3.1-8.5-2.3-12.8-3-5.9-0.4-10.9-3.9-15.6-7.1-3.3-2.4-7.6-3.2-10.8-6-3.7-3-6.9-7.2-11.9-8.3-6.3-1.2-13 0.1-18.9-2.9-8.7-3.4-14.3-11.3-20.7-17.8-7.1 1-14.2 2.5-21.3 3.8-6.8 1.3-13.3-1.3-19.4-4.1 6.4 8.1 14.7 14.3 21.7 21.8 2.7 2.8 2.9 7.1 5.9 9.8 3.4 3.3 6 7.5 9.9 10.5 4.6 2.7 9.6 4.9 14.6 6.9 6.2 2.5 13.1 1.7 19.7 1.7-5.5 4.9-13 5.9-19.9 6.4-10.4 0.2-19.8-5.1-30-6.6-18-2.6-34.2-11.1-51.2-17.3-8-2.7-15.6-7.3-24.4-7.5-16.3-0.9-32.6-0.5-48.9 0.4-6.3 0.3-12.6 0.4-18.6 2 21.2 2.1 43.2 0.3 63.8 6.8 4.9 1.7 10.9 4.8 10.7 10.8-0.2 4.3 3.3 7 6 9.7 3 3 6.3 5.7 9.3 8.8 2.9 2.7 2.6 7 2.6 10.7-5.4-2.9-9.4-7.7-14.9-10.4-6.8-3.6-13.1-8.3-20.5-10.7-13.6-4.7-28.2-4.9-42.4-4.1-6.1 0.5-11.8-3-17.9-1.6-4.2 0.8-8.6 1.5-12.4 3.6 5 2.8 11.1 2 16.3 4.4 9.6 3.9 18.3 10.3 25 18.2 5.6 5.3 7.6 14.3 4.6 21.4-4.9-5.8-7.4-13.6-13.9-18.1-6.4-4.1-13.4-7.4-20.9-9-4.8-1-9.2-4-14.3-3.9-11.4-0.2-22.3 4.4-33.7 3.4-8.4 0.6-14-6.5-20.9-9.9-3.6-2.1-7.9-1.4-11.8-1.4 1.1 2.6 2.2 5.6 4.9 7.1 8.6 5.6 15.8 13 22.9 20.3 7.2 6.6 11.3 17 8.1 26.6-0.5-3.6 0.1-7.7-2.5-10.6-5.4-6.9-10.8-14-18.1-19-6.4-4.9-14.1-7.9-22.1-8.7-6.7-0.8-13.7-0.5-20.1-3.2-5.1-2.1-9.9-5.1-15.5-5.1 1.4 5.1 4.1 9.7 6.1 14.5 1.5 4.4 1.4 9.2 2.1 13.8 0.9 7.8-2.8 15-6.2 21.7-1.5 2.5-2.9 5.8-6.1 6.5-4.9-0.9-5.8-6.8-7.4-10.7-9.3 0.2-19.5 1.8-26.1 8.9-2.8 2.4-2.8 6.4-3.4 9.7-5.4 1-12.1 1.1-15.8-3.8-4.2-6.1-4.3-14.2-3.6-21.3 3-9.5 13.3-13.2 20-19.6-3.9-0.1-8.1 0.8-11.7-1.1-5-2.4-7.9-7.4-10.8-11.9 1.4 6.6 3.1 13.3 2 20-0.5 2.8-2.4 6.1-5.6 5.9-7.3 0.1-11.5-8.4-18.8-7.6-3.3 0.4-2.4 5-5.1 6.2-5.4 2.9-6.7 9.7-11.4 13.4-2.6 0.9-6.2 0.3-7.9 2.9-1.7 2.7-4 5.7-3 9 1.9 6.6 4.3 13.1 8.1 18.8-3.4 6.6-10.1 10.3-16.3 13.9-3.7 2.2-8.2 2.5-12.5 2.4l-26.7-42.9c0.9-3.2 3.3-5.7 4.5-8.7 1-2.8 1.8-5.8 4.1-7.9 6.3-6.4 14.6-10.1 21.7-15.4 1.9-1.3 2.2-3.6 3-5.6 1-3.4 2.5-6.6 4-9.8-6.8 2.3-13 5.9-19.5 8.7-9-1.8-18.1-1.2-27.2-1-0.9 6.7-1.8 13.5-4.5 19.8-2.2 4.7-7.6 6.5-12.5 6.8-8.1 1-15.5-3.4-22.8-6.2-0.7-4.8-0.8-9.5-0.2-14.3l-4.5-34.8c-3-2.6-1.5-7.4 1.7-8.9 5.6-3.1 10.4-7.6 16.3-10.2 8.7-1.1 17.2 1.9 25.4 4.5 6.2 1.8 13.6 2.3 19-2.1 3.1-2.5 8-3.6 9.2-7.9 1.6-4.7 4.6-8.8 6.9-13.2 1.5-2.4-0.1-5-1.3-7.1-1.6-2.3-3.2-5.7-6.6-5.2-4.1-0.4-6.4 4.1-10.3 4.7-6.4 1.1-13 0.5-19.4-0.5-3.5-0.1-5.9-6-5.4-13.5l12.1-43c0.5-3.5 2.6-6.8 5.6-8.5 7.2-0.5 14.5-0.2 21.5 1.5 10.6 5.7 13.1 18.7 17.4 28.9 3.5 0.2 7.5-0.4 10.4 2 3 2.8 3 7.7 6.5 10.1 2.9 2.4 6.6 3.8 8.9 6.8 1 4.4-1.4 9.8 2.4 13.2 5.5 5.3 13.9 4.6 20.8 3.7 14-1.9 24.9-11.6 36.5-18.8 9.4-6.1 20.2-9.6 30.2-14.3 8.5-3.8 17.8-3.7 26.8-4.7 6.6-2.2 11.4-7.8 15-13.5 3.3-5.4 9.9-6.7 14.3-10.9 5-4.8 10.5-9.3 15.2-14.6-3.2 0-6.4 0.1-9.5 0.2-0.1-0.8-0.2-2.4-0.3-3.2-8.5-1.1-16.8-3.8-24.4-7.7-5.6-3.7-12.5-4.2-18.6-6.6-4-1.6-8.3-2-12.5-2.4-0.4-1-0.7-2-1-3.1-5.4-0.5-8.1-5.6-12.5-8.1-4.3-3.2-10.3-5.6-11.3-11.5-1.2-6.9-4-13.8-3.1-20.9 0.4-3.1 1.7-6 3-8.8 0.4 3.9 0.4 8 1.1 12 0.9 4.4 3.9 7.9 6.3 11.5 2.8 3.9 5.4 8.3 9.7 10.7 8.1 4.6 17.4 7 26.7 6.6 8.3-0.3 16.8 1.3 24.9-1 10.9-2.8 22.5-3.1 32.8-8.1 8.4-3.7 16.6-8.9 21.9-16.6 8.1-11.3 19.7-19.7 26.7-31.8-9 5.9-18.2 11.9-28.9 14.1-5.8 1.3-11.6-1-17.4-0.6-6.1 0.3-11.8-2.4-17.8-3.6 0.2-5.3 0-10.9 2-16 1.5-2.9-0.6-5.8-1.9-8.4-4.9-8.6-8.9-18.5-17.5-24.1-0.3 6.3 0.3 12.6 1 18.8 0.8 7.2-1.6 14.3-2.8 21.3-0.8 4.5-2.9 8.7-6.1 11.9-3.4 3.1-2.8 8.1-5.3 11.6-1.8 2.9-3.7 5.9-6.5 8-3.3 1.8-7.1 2.6-10.7 3.7-6.1 1.6-12.1 3.8-18.4 4.7-2.9 0.9-4.6-2.3-6.3-4.1 5.4-4.8 11.9-8.1 18.8-10.1 10.8-3.8 17.1-14.9 18.4-25.8 0.2-8 0.4-16 0.2-24.1-0.4-7.1-5.7-13-5.8-20.2 0.6-18.9-6-37-7.8-55.7-4.1 10.7-7.8 21.6-10.3 32.8-3.2 8.2-8.1 15.7-12.6 23.4-3.7 5.4-6.7 11.6-11.9 15.7-6 4-14.9 6.5-20.7 0.9 4.2-1.4 8.9-2.5 11.9-6.1 4.5-5.4 9.1-11.2 10.7-18.3 1.6-6.7 3.6-13.4 4-20.3 0.1-6.7-0.9-13.4-2.6-19.8-0.9-3.7-3.7-6.5-5.4-9.9-2.3-4.2-3.4-9.1-6.5-12.8-2.8-3.2-6.3-5.6-9.7-8.1-0.5 4.4-0.3 10.1-4.9 12.5-3.3 2.5-6.6-1-9.1-2.9 2.7-2.1 7-4.1 6.4-8.2-0.2-9.2-1.9-18.5-5.5-27-3.3-8.1-6.2-16.5-8.8-24.9-0.8-6.6 0.3-13.4 0.2-20.1l113.1 0.1c1 2.4 1.6 5.5 2.3 8 9.7 1.1 19.7 1.9 28.8 5.6 9.1 3.6 13.2 13.1 17.8 20.9 1.7 3.3 5.4 4.3 8.4 6 5.3 2.4 9.7 6.4 15 8.7 8.1 3.6 17.1 4.4 24.8 8.9 4.2 2.4 8.4 4.6 12.9 6.5 6.6 2.6 11.2 8.6 18 10.8 4.3 1.4 7.6 5 11.9 6.4 3.4-0.7 6.6-2.3 9.9-3.6 14.8-6.4 31.2-6.7 46.8-10.5-5-4.3-12-5.9-15.8-11.6-3.9-5.5-10-8.5-15.6-12-8.5-6.3-17.3-14.1-19.3-25.1-0.7-6.6 0.5-13.2 1.9-19.6 3 6.1 2.6 13.3 5.5 19.5 5.4 9 12.2 17.8 22.1 22.1 4.5 1.1 9.1 0.2 13.6 0.8 7.3 1 14.1-2.1 21.1-3.1 9.4-1.6 17.8-7 27.3-8.1 6-0.5 11.5-3.2 17.6-3.2 4.8-0.1 9.6-0.9 14.5-0.6 8.9 1.8 13.8 11.3 22.7 12.8 11.4 1.7 24.1-3 30.6-12.8 2.8-3.6 1.6-8.4 1.7-12.5 1.3-0.9 2.6-1.7 3.9-2.6 0.9 0.8 1.7 1.7 2.6 2.5 3.3-5.1 9.2-7.9 15.1-8.8 5.8-1 11.5-1.7 17.3-2.5 14.1-2.3 28.5-1.1 42.6-2.4 10.5-1.8 20.7-5 31-7.2 5.3-1.1 8.9-5.4 12.7-8.8 2.5-2.2 4.7-2.9 8.2-4.4 3.1-4.2 5.4-16 10.3-18.1 1.4-7.8 0.1-15.5 0.7-23.8 0.3-4.1 5.8-5.9 6.9-9.9 1.2-4 2.7-7.5 5.9-11.2 3.4-3.9 3.4-9.9 7.6-13 3.9-2.9 2.3-8.3 0.4-11.8-1.6-0.3-3.1-0.5-4.7-0.6 0.1 8-7 12.6-11.5 18.2-3.1 3.7-7.3 6.2-10.9 9.4-2.6 2.4-4.1 5.7-5.8 8.7-1.8 3.1-3.8 6.1-4.6 9.6-1.3 5.9 0 12.1-1.5 17.9-1.2 4.8-1.2 9.9-3.5 14.4-3 5.5-5.1 12.6-11.9 14.4-13.7 3.7-27.9 4.7-41.7 7.6-5.3 1.3-10.8 1.4-16.2 2.1-9.2 1.1-18.1 3.9-27.4 4.2-5.3 0.3-10.8 0.5-15.8 2.7-7.6 3.5-15.9 4.5-24.1 5.9-5.1 1-9.8-1.6-14-4 0.7-4.1 1.6-8.3 1.8-12.5 0.1-3.7 2.4-8.2 6.5-8.4 5.1-1.1 10.6-1.6 15.8-0.3 5.4 1.7 10.4-1.7 15.5-3.1 5.1-1.5 9.5-4.8 14-7.6 4.3-2.7 9.6-0.8 14.3-1.4 3.1-1.4 5.5-3.9 8.7-5 5.8 0.3 10.6 5.6 16.5 4 3.4-0.9 6.7-1.9 9.7-3.6 3.5-2.3 3.9-4.8 5-9.2-1.1-10-1.8-16.4 1.9-20 1-9.6 0.6-16.2 2.1-25.5 2.8-9.5 3.2-19.9 3.4-29.1-2.5-9-4.5-12-9.3-13.9-4.1-2.2-7.5-6.3-12.5-6.4-4-0.3-8-0.7-12.1-0.8-5.1-0.4-9.4 3-14.3 3.6-2.6-0.8-4.7-2.5-7.3-3.3-4.9-0.8-9.5 1.6-14.3 1.7-3.6-0.3-7-2-10.6-2.2-3.5 0.8-6.3 3.4-9.8 4-4.3-0.6-8.2-2.6-12.1-4.3-3.2-1.2-5.3-4.2-8.4-5.7-7.2 1.8-12.8 7.1-19.4 10.3-0.4-1.6-0.9-3.2-1.4-4.8-4.7-0.6-9.5-1.7-13.9-3.6-5.1-2.3-11-2.8-15.8-5.8-4.1-2.7-9.5-3.7-12.3-8-4.3-4.6-2.8-11.3-1.8-16.8 1.8-0.3 3.7-0.5 5.6-0.8-1.2-8.3-0.4-16.8-1.7-25.1-1.1-3.9 2.7-6.3 5.2-8.6 4.4-4.1 11-3.3 16.4-5.2 8.8-2.1 17.3-6.9 26.7-5.9 2.3 0.4 3.7-2 5.4-3.2 2.3 9.2 10.3 15 18.4 18.9 6.8 3.5 16.8 6.9 25 8.1-0.5 2.8 6.5 7.8 8.8 11 1.9 2.1 3.4 5.1 6.6 5.4 5.2 0.8 10.2 2.3 15.4 2.8 10.9 0.4 22 0.1 32.1-4.2 1.2-1.1 1.9-2.6 2.7-4 3.9 0 8-0.6 11.5 1.3 3.6 1.7 7.1 4.5 11.3 4.2 4.2-0.6 9-1.2 11.6-4.9-9.3 0.2-18.2-3.4-26.2-8.1-4.6-2.9-7-8.2-11.1-11.8-5-1.4-10.7-1.7-14.7-5.5-3.8-3.2-4.7-8.3-5.4-12.9-7.1 0-14.7-0.5-21.3 2.7-4.6 4.1-8.4 10-15.1 11.1-11 1.9-23.1 2.8-33.3-2.6-5.8-3-9.1-8.9-11.6-14.6 2.6-3.7 3.8-8.1 6.5-11.6 5-4.5 11.7-6.3 17.8-8.7 23-7.8 47.7-8.1 71.8-6.8 18.7 1.1 37.6 1.5 56 5.7 8.1 1.7 15.1 6.2 22.1 10.4l2.6 4.8c-0.4 3.2-1.4 8.3-1.4 11.6 5.9-0.9 5.3-8.9 8.1-12.8 3.2-6.6 11.7-8.2 18.1-5.9 5.6 2.1 11.9 4.8 14.6 10.6 5 8.8 10 19.1 6 29.2-2.9 8.6-4.4 19-12.8 24.3-8.8 3.3-18.5 1.7-27.5 0.5 0.1 2.5 0.2 5 0.3 7.4 11.1 5.4 22.6-2.3 34-1.7 0.4 10.3 0.3 20.7 3 30.7 3 10.9 5 22 6 33.2 1 9.4 1 19 4 28.2 2 8.1 2 16.5 4 24.8 1 4.1-1 7.9-2 12 1 6.8 4 13.2 6 19.5 4 10.7 12 20.9 23 24.5-4 2.7-11 3.2-16 0.6-6-2.8-8-9-12-14.4-2-4.3-7-6.6-9-10.8-6.6-10.8-7.3-23.7-11-35.4-0.6 11.9 0.9 24 4.9 35.2 1.6 5 5.1 9.2 9.1 12.2-1 3.7-3 7.6-3 11.7 0 14-1 28.1-2 42.1 0 4.4 2 8.3 4 12.2 3-2.4 5-5.3 8-8 0 5.9-3 11.2-7 15.4-5 4.5-12 3.9-17.5 6.7-5.9 9.3-10.3 20.1-9.6 31.3 2 9.3 8.2 17.1 14.2 24.3 2.9 3.4 5 7.8 8.9 10 6 3.4 14 5.6 20 8.1 0 0.8-1 1.8-1 2.6-7 2.3-15 0.6-21.7 0.2-6.5-0.1-11.1-5.3-16.2-8.6-17.7-14.1-26.9-35.4-37.7-54.7 3.6 11.5 9 22.2 13.5 33.3 2.2 5.6 5.1 11.1 6 17.1-1.5 7.8-6.5 14.3-8.4 21.9-1.5 6-3.6 11.8-4.9 17.9-1.4 8.7-1.8 17.6-1.3 26.4 0.1 6.9 4.5 12.6 7.7 18.4 2.6 4.5 5.8 8.7 10.4 11.4 4.8 3 9.6 6.5 15.4 7.1 9.3 1.3 20.2-3.6 23.2-12.5 1-2.2 2-4.3 3-6.3 2 9.5 2 22.2-8 27.6-15.3 9.6-35.5 14.1-52.5 6.4-15.8-7.6-28.3-20.3-40.2-32.9 7.9 13.5 17.7 26.4 31 35 5.4 3.8 11.9 4.8 17.9 7.2 5.8 5.9 7.5 14.5 12.8 20.8 6.8 8 14.3 15.3 21.5 22.9 8.5 9.2 15.5 19.8 24.5 28.7 4 4.7 8 10.2 12 15.3 8 9.6 15 19.4 22 30 3 5.9 8 11.2 11 17.2 6 10.4 14 18.8 22 27.6 5 7.5 13 12.5 19 18.7 9 6.5 16 14.2 22 23.2 2 4 4 8.1 8 11.3 5 5.7 9 13.1 14 19.2 4 5.1 9 9.7 13 14.5 5 5.2 8 11.9 13 16.8 3 2.7 7 3.7 11 5.2 5 2 9 5 15 5.5 9 0.8 18 1.3 27 0.1 8 0 16-3.7 21-10.3 3-3.2 6-5.8 7-10.1 1-8.4 0-16.9 1-25.3 0-11.4-4-22.8-12-31.2-4-6.5-8-13.4-13-19.9-3-5.8-8-10.8-12-16.6-5-8.9-14-15.9-19-24.9-3-4.7-7-8.7-10-13.2-5-7.5-12-13.6-17-21-5-5.6-7-12.7-10-19.1-5-10.6-10-21.7-12-33.4-1-6.3 0-12.6-1-18.9-1-6.8-4-13.3-3-20.2 0-6.3-3-11.9-4-18-1-10.9-2-21.9-4-32.6-2-6.4-1-13.3-3-19.6-2-14.4-7-28.2-9-42.6-1-8-6-14.7-8-22.6-2-8.5-5-16.4-10-23.7-2-3.2-3-6.7-4-10.4 8 7 16 14.5 20 24.7 5 12.8 11 25.9 14 39.4 3 13.1 7 25.9 11 38.9 1 4.7 2 9.6 5 13.8 4 6.5 6 14 9 20.8 3 6 4 12.8 7 18.6 2 4.3 6 7.7 10 11.1 4-3.2 7-7.8 8-12.9 2-7.4 5-14.8 7-21.9 7-20.2 19-38.1 29-56.4 2-3.8 5-7.1 8-10.1 1 4.4 3 8.7 7 11.8 3 3.2 3 8.2 6 11.7 1 1.2 2 2.5 1 4.1-2 8.5-6 16.4-10 24.5-2 4.8-3 9.9-4 14.8-5 11.7-8 23.9-10 36.3-2 9.3-3 18.7-5 28-2 6.6-3 13.5-3 20.3 0 7.2 0 14.5 1 21.6 4 20.8 14 40.8 27 57.2 4 5 6 12.7 13 14.6 6 1.5 14 3.3 19-1.4 2-2 5-2 8-2.7 3-6.8 8-13 11-20.1 4-10 7-20.6 9-31.3 1-7 1-14.1 2-21.1-1-15.2-3-30.5-6-45.5-2-6.4-4-12.8-6-19.3-4-15.8-12-29.9-17-45.4-1-3.2-2-6.4-4-9.3-5-8.6-9-17.9-14-26.5-5-8.8-11-16.7-15-25.9-3-7.7-7-15.4-11-22.6-6-10.4-11-21.5-17-31.9-2-2.9-3-5.9-4-9-10-20.4-22-39.6-26-61.8-3-11.2-6-22.1-9-33.1-3-12.4-4-25.1-7-37.5-1-7.3-3-14.8-3-22.3-1-12.9-3-25.5-5-38.3 0-6.5 1-13.1 1-19.6-4-0.2-7 0.3-10-1.1-3-2.1-5-5.5-7-8.3-3-3.6-8-5.7-11-8.8-5-4.4-10-9.1-15-14.1-3-3.9-5-9.1-8-13.4-2-3.5-5-7.3-5-11.6 0-6.7-3-13.2-2-19.9 3 4.7 3 10.6 7 15.1 3 5.1 8 9.2 12 14.1 5 6.1 13 7.7 19 12 2-1.5 3-2.9 5-4.7 0-4.5-1-8.9-2-13.3-1-4.7-2-9.7-4-14.2s-5-8.3-8-12.7c-1-3.3-1-7-3-10.4-2-5.5-5-10.7-8-15.9-2-8.7-2-17.9-2-27-1-6.9 3-13.3 3-20.2 1-7.6 3-14.9 5-22.2 1-3.2 3-6 5-8.3 1 9.5-3 18.5-4 28-1 7.3-2 14.9 1 22 3 11.8 6 24.3 13 34.8 5 8.6 11 17.2 15 26.7v0.4c0-12.8 0-25.5 1-38.3-1-8.9-1-17.9-4-26.6-1-6.2 0-12.7-1-18.9-1-7.4-1-15.1 2-22.1 4-8.9 7-18 12-26.9 1-2.7 3-4.7 5-6.6-1 6.7-4 13-4 19.7-1 9.5-1 19.1-1 28.6 0 9.4 3 18.5 5 27.6 2 8.4 6 15.9 7 24.5 1-6.5 1-13.1 3-19.3 5-13.4 4-28.1 7-41.9 3-11.6 6-23.1 9-34.5 5-8.75 9-17.98 16-24.69 6-5.09 11-11.32 18-13.75zm37 2.35c9 3.88 14 12.21 18 20.06 3 5.84 10 9.23 12 15.73 2 6.9 6 13.6 6 21.1 0 14.4 0 28.8-1 43.2 1 14.1 3 28.3 3 42.4 6-5.1 8-12.6 11-19.1 5-14.2 8-28.9 13-43.2 2-7.5 1-15.5 1-23.3 0-12.1-3-24.1-7-35.55 6 0.63 10 5.13 11 10.55 3 8.2 6 16.2 7 24.8 1 10.5-1 21-2 31.4 0 7.5-3 14.5-4 21.9-1 18.2-9 35.2-11 53.4 5-3.6 8-8.2 13-11.6 5-3.7 10-7.7 13-13.5 3-5.9 7-11.2 7-17.8 1-6.8 5-12.6 6-19.5 1-7.9-1-16 2-23.8 2 4.3 2 9.6 3 14.6 2 12.5-1 24.8-3 37.1-1 7.8-2 15.8-5 23.3-3 8.5-5 17.1-8 25.8-3 7.7-6 15.9-8 24.3 8-4.7 16-10.7 23-17.1 12-10.9 16-27.8 18-43.3 3 10.7 2 22 0 32.8-2 9.3-4 19.1-11 26.1-3 3.3-5 7.4-8 10.8-5 4.5-9 8.8-13 13.3-4 4-8 8.6-13 11.6-7 4.6-15 9.2-21 15.1 1 5.5 2 11.1 4 16.5 1 4.2 1 8.8 1 13.2 0 11.7 0 23.6-3 35-1 4.3-1 8.6-1 13-1 5.3-3 10.4-3 15.7-1 5.8-2 11.6-3 17.3-3 10.3-4 21-6 31.4-2 6-2 12.2-4 18-2 6.7-3 13.6-5 20.3-2 9.5-6 18.6-9 28-3 9.8-8 18.6-11 28.2-1 0.2-2 0.6-3 0.8-4-3.8-6-8.9-9-13.2-4-4.9-9-11.7-6-18.4 3-9.2 9-17.3 12-26.4 6-16 12-32.2 14-49.2 3-10 3-20.5 6-30.6 2-12.2 3-24.6 4-36.9 1-5.8 0-11.6 0-17.4 0-14.3 1-28.6 0-42.9-1-4.7-3-9.6-6-13.3-9-10.1-15-22.2-23-33.3-3-8-4-17-4-25.7 0-5.1-1-10.3 0-15.4 1-6.5 4-12.7 5-19.4 0-6.2 3-12.2 4-18.3 2-8.1 3-16.4 5-24.6 1-3.9 1-8 0-12.1-1-7.9 0-16-2-23.9 0-5.7 1-11.7-1-17.3-2-5-1-10.3-2-15.5-1-11.81-6-23.12-6-35.19zm-442.2 30.19c9.6 3.4 19.7 5.1 29.9 6.6-2.2 3.8-5.4 7.1-9.8 8.1-10.3 2.8-21.9 2.3-31.1-3.5 1.5-5.4 7.2-7.6 11-11.2zm52.6 42.2c2.9 0.1 5.6 3 5 5.9-2.7 2.9-8 1.2-9.6-2.2 0.6-1.2 1.3-2.5 2.7-3.2 0.6-0.3 1.3-0.5 1.9-0.5zm-82.3 8.8c1.9-0.1 4 0.4 5.7 1.1-0.4 2.7-1.3 5.8-4.2 6.9-3.4 2.1-7.7-1.9-6.6-5.5 1.3-1.7 3.2-2.4 5.1-2.5zm68 2.7h3.5c18.3 0.7 36.8 0.4 54.8 4.4 7.5 1.5 15.3 1.9 22.7 3.9 9.5 2.2 18.2 6.7 27.5 9.5-1.6 4.2-5.7 5.9-9.7 7-2.8-2.8-5.5-6.1-9.6-6.8-27.3-6.2-55.3-9.7-83.4-10.5-22.6-0.5-45.5 0.6-67.3 7.3-2.1 0.6-4.3 1.1-6.5 1.4 2.7-4.5 7.3-7.7 12.1-9.9 10.5-2.1 21.1-4.3 31.9-4.7 8-0.7 16-1.7 24-1.6zm100.6 1.3c3.8-0.1 7.7 1.4 9 5.3-0.7 3.9-6.3 5.4-8.8 2.3-2.4-1.7-2.5-4.7-2.8-7.3 0.8-0.1 1.7-0.3 2.6-0.3zm-123.1 62.8c3.7-0.1 7.5 0.9 10.7 2.1 2.4 0.6 1.7 3.2 2.1 5-4.4-0.1-8.4-1.9-12.4-3.2-0.8 5.3 2.5 10.9 7.3 13.2 4.6 1 9.5 0.8 14.1 0.3 3.9-1.9 4.5-6.8 6.3-10.4 4.4 1.6 8.3 4.2 11.8 7.2-4.9 2.6-9.9 5.1-15.2 6.6-5.2 0.2-10.4-0.4-15.6-0.3-5.7 0.3-11.7-1.6-16-5.5-2.5-2.8-4.9-7.2-2.9-10.8 2.6-2.9 6.1-4 9.8-4.2zm158.4 26.5c1 8 4 15.7 8 22.4 5 6.7 12 10.5 17 16.3-6-2-11-5.7-16-9.8-4-3.2-7-6.9-8-11.8-2-4.5-2.2-9-3.5-13.4 0.9-1.2 1.5-2.5 2.5-3.7zm-360.8 53.7c3.7-0.2 7.5 1.1 10.4 3.4 6.7 4.9 12.8 10.5 19.4 15.5 12.5 8.8 25.8 18 41.4 20 11.8 1 23.8 2.6 35.7 1.7 4.1-0.3 8.2-0.3 12.2-0.4 10.3 0.1 19.8-4.5 30-4.7 8 0 16-1.3 24-0.9 11 0.5 21.8 2.6 32.7 4 9.1 1.2 18.3 3.1 26.6 6.9 3.5 2.7 3.3 7.8 3.4 11.7-11.6-1.4-21-9.8-32.7-11.3-8-0.8-15.9-3-24-2.2-3.6 0.3-7.1 0.5-10.7 0.4-14.2-0.2-28.3 1.5-42.2 4.1-29.7 5.2-60.1 4.7-89.8 0.1-6.4-1.1-11.6-5-16.9-8.4-7.9-5-15.9-10.3-22.7-16.8-3-2.9-5.7-6.5-6.2-10.8-0.8-4.1 0.5-9.2 4.5-11.1 1.6-0.8 3.2-1.1 4.9-1.2zm230 10c2.6 0 5.2 0.3 7.7 1.3 1 10.2 0 20.3 0.5 30.5-3-3-5.1-6.7-7.4-10.2-3.1 0-6.2-0.2-9.3-0.4 1.8-6.5-0.3-12.9-1.4-19.4 3.2-1 6.5-1.7 9.9-1.8zm-384.3 314.1c2.7 1.5 5.3 3.1 8 4.8-3.8 10.6-7.9 21.2-13.4 31-1.6 2.7-3.4 6-6.9 6.2-6 0.6-11.9-0.7-17.9-0.5-5.7-0.3-11.7 1-17.3-1.1-1.3-0.5-2.2-1.4-2.4-2.8 5.3-2.2 11.4-2.6 16.1-6.1 6.4-2.9 10.9-8.3 16.2-12.6 6.5-5.6 13.6-11.1 17.6-18.9zm30 11.8c2.5-0.1 5.1 0.2 7.5 0.5 0 3.9-0.2 7.8-0.6 11.8-8.8 5-17 12-27.4 13.3-5.5 0.8-10.7 2.7-16.2 3 8.3-8.5 14.4-19.3 24.8-25.5 3.7-2.2 7.8-3 11.9-3.1zm744.1 11.3c1-0.1 2 0.1 2 1.1 5 6.4 6 14.3 9 21.5 8 22.7 13 46.7 15 70.9 1 10.7-1 21.3-2 31.9-1 12.8 1 26.2-4 38.4-3 6.4-9 10-14 13.8-4 3.1-10 0.5-13-2.9-5-6.8-10-14.2-13-22.3-4-9.6-11-18.2-11-28.7 0-9.8-3-19.5-1-29.2 2-9.9 2-20.1 4-30 2-12.5 5-25 10-36.5 2-6.1 5-11.5 9-16.8 2-3.6 3-9 7-10.9 0-0.2 1-0.3 2-0.3z"/>
<path stroke-linejoin="round" d="m140.9 1248c-0.1 0-16.3-38-17-44-7.3 2-14.6 0-21.9-2m21.9-56c7.2 41 121.6 304 161.8 287 0.1-12 0-33 0-33m-206.5-1046h476.8m0 55v-54l20.6-4.1" stroke="#000" stroke-linecap="round" stroke-width="8" fill="none"/>
<path d="m352 196.2c-14.2 0-33.5 0.3-40.9 5-5.6 3.5-4.6 4.8-9.1 9.9-2.6 23.3-25 36.8-25.6 55.2 0.8 5.8 4 9.6 5.9 15.2-7.3-5.9-12.7-11.3-19.8-17.3-15.6 12-29.3 17.3-39.6 34.6 3.6 13.5 1 36.8 6.6 47.9l66.7 0.4v-40.2h63.8v39.8h85c8.4 0-10.7-9.5-1.8-23.5 6-9.8 14.4-23.3 16-33.6 2.1-13.4-6.9-26.4-6.7-34.5-2.7-7.1-21.2-16-21.2-16-1.9 4-17.4 20.3-21.1 22.8-13.9 9.3-4.7 7.4-23.2 14.7-10 3.9-9.9 10.2-14.9 11-11.6 3.9-4.4 4.1-2.9-5.9-1-8-3.2-15.9-3.2-24.1 11.2-9.2 19.6-24.3 27.4-36.4-15.7-14.7-22.1-33-41.4-25z"/>
<g fill="#ed1b24" transform="translate(3.3 3.2)">
<path d="m353.3 204.9c9.2 1.2 17.9 8.9 18.2 17.8 2.4 7.8-8.9 22.3-14 18.8-30.4-19.2-5.9 5.5-8.5 10.9 11.6 3.6 8.7 26.2 0 41.3-7.1 2-24.1 7.4-18.4-5.1 18-15-8.1-26-17.9-29.5-8.6 1.9-22.1 10.2-22.9 21.1 5 5.2-6.3 4.7-5.5-3.1-9.3-12.3 0.5-23.2 7.8-32.9 7.3-8.9 7.6-20.9 13-30.5 5.6-8.6 16.2-7.3 25-7.3 8.2 0.5 15.3 1.8 23.2-1.5z"/>
<path d="m428.7 256.5-9 1.6c-0.5 3.9-6.3 7.9-9 11.8-3.3 0.8-5.6 8.1-8.2 6.6-4.7 0.9-15.8 5.6-18.2 9.6-5 8.8 2.4 13.2 0.4 17.1-10.4-11.4-15.3-1.8-18.9 0.4v42.4c12.2 0.1 53.5 0 65.7 0l-4.5-4.6c-13.4-0.2-40.8 4.4-25.1-22.8 9.4 14.2 18.7 13.7 20.9 12.2 3.8-2.5 0.1-7.8 2.2-10.2 8.2-6.1 15.7-20.6 21.1-27.1 5.8-6.5-5.1-15.1-5.8-21.8 1.3-9.2-2.8-14.1-11.6-15.2z" transform="translate(-2.3 -2.8)"/>
<path d="m281.5 289.9c3.5 12.3 2.7 10.6 2.3 14.3 1.2 4.3 1.6 9.8-0.5 13.9-1.9 3.3-11.3 3-14.2 1-5.1-2.8-9.5-7.7-15.6-8-4.7-0.3-8.3 3.4-10.8 7-2.3 3.6-3.9 7.7-4.6 11.9 0.4 3 3.8 4.3 4.7 7.1-0.2 2.9-4.2 4-5.6 1.2-3.4-4.5-3-10.5-3.8-15.8-0.4-3.9 1.9-7.7-0.7-10.8-0.5-8.2 1.5-12 4.3-16.8 3.7-4.1 4.3-9.1 9.4-10.9 3.5-1.3 9.7-5.8 11.8-9.1 9.8 6.1 22.9 15 23.3 15z"/>
</g>
<g transform="translate(3.3 3.2)">
<path fill="#0f0" d="m632.2 423.2c0.2-0.1 0.3-0.4 0.4-0.8-0.2 0.3-0.3 0.5-0.4 0.8z"/>
<path fill="#0f0" d="m1234 62v0.3c-1 0.7-2 1.4-2 2.2 0-1.2 1-2.5 2-2.5z"/>
<path d="m977.1 190c-4.1 0.3-8.7 2.1-10.5 6.1-1.6 4.5-0.3 9.4 1.1 13.7 1.3 3.9 5.9 5.6 7 9.6-0.2 1.6-1.4 2.8-2.2 4.1-3.3-0.3-7.7-5.5-9.8-2.6-1.9 2.7-4.8 11.8-2.4 15.3 0.9 1 1.4 3.5 3.2 3 5.3-1 11.8 0.8 16.2-3.3 4-4.6 8.6-9.1 9.8-15.3 2.5-8.2 0.9-16.7-1.6-24.7-2.7-3.2-6.7-5.3-10.8-5.9zm1.9 14.2c2.7 1.1 4.4 3.6 6 5.8 2.3 3.1 0.6 7.1 0.3 10.5-6.7-2.4-7.2-10.4-6.3-16.3z"/>
<path transform="translate(-2.3 -2.8)" d="m730.1 222.9c-2.1 0.9-4.6 2.8-3.9 5.4 0.9 2.5 3 4.7 2.3 7.5-0.6 2.1 0.3 4.1 1.3 5.9 1.3 0.2 2.7 0.4 4 0.5 0.5 1.6 0.6 3.5 1.8 4.8 1.9 0.6 3.9 0.6 5.9 0.7 0.4-2.6-0.2-5.8 2.2-7.5 0-3.6 0.8-7.7-1.8-10.6-3.2-3.3-7.1-6.7-11.8-6.7z"/>
</g>
<g fill="#fff" transform="translate(3.3 3.2)">
<path d="m734.1 281.9c3.7-3.1 18.4 1.4 18.3 5.5 1.3 6.1-3.3 14.2-7.7 16.8-6.4-4.2-12.3-14.5-10.6-22.3z"/>
<path d="m790.3 291.3c-2.4 5-6.1 13.2-8 18.4-14.9-2.9-11.9-14.4-11.8-20.1 7.4-5.3 13.7-3.5 19.8 1.7z"/>
<path d="m862 289.4c-1.9 8.3-6.7 8.6-9.9 13.3-3.5-1.8-7.4-8.4-6.5-13.6 7.7-7.1 10.1-2.3 16.4 0.3z"/>
<path d="m810.4 286.4c6-0.1 12.2 0.5 18.2 0.6-0.2 4.2-4.1 14.1-7.2 15.1-12.4-1.5-10.4-9-11-15.7z"/>
<path d="m869.9 358.7c-0.9 4 7.7 17.7 0.7 19.5-4.7 3-13.5 4.3-11.2 0.2-4.2-4.6-0.9-16.4 10.5-19.7z"/>
<path d="m847.9 362.7c2.9-0.2 4.2 13.6 3.8 16.5-2.2 2.1-10.4 1.2-13.2 2.3-10.1-4.2 2.6-15.6 9.4-18.8z"/>
<path d="m813 365.5c4.2 1.6 7.1 8.3 9.8 12 0.5 2.4-0.5 4.8-0.6 7.3-6.3-0.3-8.3 7-14.9 4.4-0.3-2.8-1.8-4.5-2.5-7.1 2-4.2 5.4-12.8 8.2-16.6z"/>
<path d="m789.5 372.9c3.4 4.3 8.4 11.6 7 18.7-3.3-0.6-9 0.5-12.4 0.9-3.2 0.8-1.7-5.9-0.2-8 1.2-2 3.2-11.5 5.6-11.6z"/>
</g>
<g transform="translate(3.3 3.2)">
<path stroke-linejoin="round" d="m769.8 1165c-4.3-27 11-53 32.5-68 15.9-12 31.4-26 44.7-41 22-19 50-30 69.1-52 8-7.3 19.4-8.4 27.6-15.3m86.3 63.3c-2 15-2 28-2 43m46 50c-3 11 5 22 0 32-5 6-9 15-6 24 2 9 10 14 16 21s11 15 14 24c2 6 1 12 0 17 0 1 1 2 1 2m40-255c-2 12-3 24-8 34-4 10-8 19-13 28-4 12-10 22-12 34-5 14-11 28-10 44-1 12 2 23 10 32 8 11 18 19 26 30 6 10 13 19 18 30 6 10 22 14 22 27-1 12-1 24-3 36-4 10-17 8-26 9-1 0-3 1-4 1m-153.6-267c-11.8-10-12.5-28-5.2-41 4.4-9.9 11.5-18.5 18.8-26.4 6-3.9 12-8.9 11-16.6 1-11-4-21.1-6-31.6-1-9.9 0-20.7-6.1-29.4-6.6-9.5-16.9-10.8-27.1-14.1m-158.3-356.9c-44.2 29-155.7 40.8-85.4 125.1 12.6-73 80.9-22.3 108.8-71.2m-342.7 22.4c36.4 14.6 55.2-18.5 71.2-37.6m141 210.8c1.4-9.7 17.5-14.8 18-24 1.7-9.4 3.4-8-1.2-16.4-4.2-10.5 7.5-26.5 7.5-26.5s-10.2 13.6-29.4 14.3c-11.8 0.5-17.7 21.9-17.8 23.8-5.3-2.3-7.8-10.5-10.1-18.7-2.5-8.8 14.9-28.5 14.5-30.9s-34.5 26.9-43.4 41.4c-8.9 14.4 1.5 31 18.1 46.8-28-2.9-63.9-13-61.8-51.1 1.1-20.5 12.3-36.1 34.4-54l-18.3-0.8c-10.1 0.5-39.3 46.1-55 54.1-17.4 8.9-60.7 0.6-60.7 0.6 14.5-7.7 28.6-10.4 40.2-19.7 11.3-9.2 26-48.5 26-48.5-26 48.5-65.4 33.7-93.6 26.5m296.6-54.2c-12 11-17.2 29.6-14.3 45.4 6.1 14.7 13.2 30.8 7.8 46.8-7.6 15.4-6.5 34.2 6.5 46.3 12.2 12 30.4 12.8 45.8 14.7 7.1 0.9 33.1-17.3 29.1-31.7-23.7 10.6-32.1 0.2-32.2-13.3-1.3-6.4-0.2-10.8 5.8-14.4 6.6-3.9 9.2-8.7 10.3-20.9 0.8-9.1-4.8-16.9-7.4-25.5-2.3-7.6-1.1-16.2-2.5-24.5-0.7-4.2 26.4-40.3 40.9-45m-40.8 45c0.4 17.6 5 28.6 13.6 38.9 9.5 11.4 27.6 13.5 42.4 15.1-12.3-17.8-15.5-37-3-55 7.5-9.9 24.1-18.1 18.8-0.5m-23 8.1c9.2 32.2 60.9 46.4 79.7 29.7-11.2-6.4-29.5-15.8-35.4-27.3-5.6-5.3-12.7-39-2.9-60.3 7.3-16 19.5-27.1 18.5-36.1m-76.9-94.5c-23 8.8-50.1 24.1-65.7 1.1 13-0.4 40.2-8.7 41.6-28.5m-177.8 203.3s36.4 5.7 45.4-4.5c9.1-10.2 14.1-27.3 14.1-27.3m253.3-232.7s-6 48.9 1.9 57.9c8 9.1 20.5 23.9 27.3 19.3m-52.3-11.3s4.5 21.6 18.2 27.3c13.6 5.7 30.7 9.1 30.7 9.1m-127.4 21.9s7.3 9.1 8.6 21.8c-5.8 33.2-31.9 26.4-37.1 7-6.6 5.6-4.6 37.9 19.8 37.1 23.8 3.1 54.1-40.1 54.5-49.9 0.2-6.3-13.5-34.4-6.4-48.7 9.3-18.5 30.2-22.1 23.7-55.4m-181.5 43.3c-22.2 0.5-44.5 1-61.4 6.8m44.9 49.6c-12.8 2.9-26.1 5.4-37.7 11.9-6.8 5-7.1 14.3-9.8 21.6-2.4 8.5-7.6 17.1-16.5 19.9-21.1 8.4-43.9 12.8-63.5 24.6-7.4 4.1-10.5 12.3-13.7 17.2m67.8-139.6c-51 18.5-102.1 42.7-128.8 23.7-15.7-10-21.4-12.7-35.4-20 15 38.3 60.2 69 96.9 63.1 21.7-4 54.2-26.9 54.2-26.9" stroke="#000" stroke-linecap="round" stroke-width="5" fill="none"/>
</g>
<path d="m759.8 805.2c13.5 1.6 19.3-2.8 25.9-9.3" stroke="#000" stroke-width="5" fill="none"/><g stroke="#000" stroke-width="8" stroke-linecap="round" fill="#2a57c6">
<path d="m1165 1427c2 9 11 24 22 24 10 0 14-17 27-15 12 3 26 13 26 13s-2-29-16-34c-13-5-58-9-59 12z"/><path d="m1032 1584c1-25-10-32-18-28s-18.1 14-19 26c-2.9 12 3.1 39 32 42-12-15-5-39 5-40z"/><path d="m919 1501c10.3-9 9.6-34-6.2-31-8-1-21.5 7-27.8 13-32 30-28.8 51-5.4 87 6-37 8.1-47 39.4-69z"/><path d="m923.3 1394c29-10 23-17 19.7-36-29.5-11-67 8-65.5 42 18.1-20 50.1-15 45.8-6z"/><path d="m408 1349c6.9 23 25.2 46 51.5 44 0 0-21.3-27-18.1-32s5.6-16-2.4-20c-12.3-4-31.5-5-31 8z"/><path d="m381.6 1251c-0.3-3-14.2-26-22.3-24-15.9 7-44 40-31.2 64 4.8 7 12 7 12 7s3.6-23 11.7-25c8-2 10.8 3 19.7-4 20.6-8 10.6-11 10.1-18z"/><path d="m406.1 1185s31.3 8 34.6 1c3.2-6 8-19-1.6-25-9.6-5-28.1-16-37.8-12-9.7 5-32.1 12-33.8 23-1.6 10 2.4 16 2.4 16 1.3-12 34.4-16 36.2-3z"/><path d="m385.4 913.4c12.6 21.3 1.4 21.5-15.5 35.5 30 5.6 49-3.1 59.8-38.4-16.4-19.3-28.1-5.3-44.3 2.9z"/><path d="m274.4 900.6c-23.1 30.7-5.5 49.9 5.6 66.8-1.1-35.2 15.2-29.3 16.8-37.4 5.2-26.1-18.2-33.2-22.4-29.4z"/><path d="m222.9 859.3c8.4-15.1 6.7-21.6 2.3-25.9-6.5-6.5-12-5.2-18.2-2.9-36.6 7.5-33.4 77.1-8.2 87.5-5.8-22.4-5.3-40.6 2.8-43.8 8-3.3 22.9-11.7 21.3-14.9z"/><path d="m262.1 748.4c17.3-25.9 5.2-26.3-6.1-26.2-11.2 0-28.5 6.7-35.8 16.4-7.8 10.3-13.3 35.8-0.4 48.6 0 0 4.8-28.5 17.7-28.5s13 7.7 17.8 2.9 1-4.6 6.8-13.2z"/><path d="m881.1 342.5s-43-16.5-69.5-13.8c-25.9 2.6-65.9 16.7-96.1 9.6-28.1-6.6-33.3-14.8-47.4-25.1-9.8-7.2-20.6-20.1-34.8-16.3-12.8 3.4-3.8 31.1 15.5 43 16.9 10.4 37.5 12.6 48.1 13.3 21.6 1.4 67.5-2 82-3.9 74.8-10.2 59.5 12.9 95.4 14.5"/><path d="m304 266.3c9.5-2.1 15.6-7.8 21.2-5 4.9 2.4 9.6 12.5 14.4 18.5-12.9 30.6-21.4 41.2 12.6 66.9-59 0.4-62.1-48.3-48.2-80.4z"/><path d="m385.4 298.1c-16.1 18.6-21.8 25.5-44.8 29 19.9 12.4 46.7 17.7 66.8 1 10.4-30.1-3.1-37.9-22-30z"/><path d="m275 325c13.2 3 22.5 10 36.4 9.2 0 0-1.2 8.7-10.5 11.6-20.1 6.4-42.7 4.8-48.3 0.8-14.3-20.5 2.4-36.6 22.4-21.6z"/></g></svg>