<?xml version="1.0" encoding="UTF-8" standalone="no"?>
<svg id="Coat_of_arms_of_the_city_of_Cologne_(Germany)" xmlns="http://www.w3.org/2000/svg" xml:space="preserve" height="579.01" width="482" version="1.0" xmlns:xlink="http://www.w3.org/1999/xlink" viewBox="0 0 482 579.00635">
		<rect id="upper_red_area" height="198.76" width="472" y="5" x="5" fill="#f0000b"/> 
   		<path id="lower_white_area" fill="#fff" d="m477 338.01c0 130.34-105.66 236-236 236s-236-105.66-236-236v-134.34h472v134.34z"/>
<g id="crown" fill="#ffe600">
<path d="m270.92 107.79c0 0.81-0.66 1.46-1.46 1.46h-8.58c-0.81 0-1.46-0.65-1.46-1.46 0-0.8 0.65-1.46 1.46-1.46h8.58c0.8 0 1.46 0.66 1.46 1.46z"/>
<circle cy="100.88" cx="265.67" r="3.417"/>
<path d="m293.04 90.542l1.75-37.875s-9.54 5.5-9.54 10.5 1.63 4.75 1.63 8.125-1.13 3.875-2.5 3.875c-1.38 0-5-3.25-7.13-3.25s-5.63 2.875-5.63 6.375 2.5 8.25 2.5 8.25 3.76-4.375 6.26-4.375 5.87 2.625 4.12 8.375h8.54z"/>
<path d="m293.94 94.292c0 0.806-0.66 1.459-1.46 1.459h-9.83c-0.81 0-1.46-0.653-1.46-1.459 0-0.805 0.65-1.458 1.46-1.458h9.83c0.8 0 1.46 0.653 1.46 1.458z"/>
<path d="m241 90.501h-5c2-4.5 0.17-8.5-5.17-8.5-5.33 0-7 5.166-7 5.166s-5.16-5.666-5.16-10.333 3.66-7 7-7c3.33 0 6 2.667 7.66 3.667 1.21-3.25 3.63-4.084 3.63-4.084s-5.63-4.916-5.63-8.25c0-3.333 3.15-4.856 5.34-6.833 3.02-2.729 4.33-6.812 4.33-6.812s1.31 4.083 4.33 6.812c2.19 1.977 5.34 3.5 5.34 6.833 0 3.334-5.63 8.25-5.63 8.25s2.42 0.834 3.63 4.084c1.66-1 4.33-3.667 7.66-3.667 3.34 0 7 2.333 7 7s-5.16 10.333-5.16 10.333-1.67-5.166-7-5.166c-5.34 0-7.17 4-5.17 8.5h-5z"/>
<path d="m234 96.417c-0.97 0-1.75-0.783-1.75-1.75 0-0.966 0.78-1.75 1.75-1.75h14c0.97 0 1.75 0.784 1.75 1.75 0 0.967-0.78 1.75-1.75 1.75h-14z"/>
<path d="m193.67 131.08c0-6.75-3.84-32.746-3.84-32.746h9.34s3.91 2.836 3.91 7.666-4.16 6.42-4.16 12.08c0 5.67 4.91 8.09 8.16 8.09s8.25-1.75 8.25-7.25-1.5-6.75-1.5-6.75h6.34s-1.5 1.25-1.5 6.75 5 7.25 8.25 7.25 8.16-2.42 8.16-8.09c0-5.66-4.16-7.25-4.16-12.08s3.91-6.916 3.91-6.916h12.34s3.91 2.086 3.91 6.916-4.16 6.42-4.16 12.08c0 5.67 4.91 8.09 8.16 8.09s8.25-1.75 8.25-7.25-1.5-6.75-1.5-6.75h6.34s-1.5 1.25-1.5 6.75 5 7.25 8.25 7.25 8.16-2.42 8.16-8.09c0-5.66-4.16-7.25-4.16-12.08s3.91-7.666 3.91-7.666h9.34s-3.84 25.996-3.84 32.746h-94.66z"/>
 <path d="m211.08 107.79c0 0.81 0.66 1.46 1.46 1.46h8.58c0.81 0 1.46-0.65 1.46-1.46 0-0.8-0.65-1.46-1.46-1.46h-8.58c-0.8 0-1.46 0.66-1.46 1.46z"/> <circle cy="100.88" cx="216.33" r="3.417"/> <path d="m188.96 90.542l-1.75-37.875s9.54 5.5 9.54 10.5-1.63 4.75-1.63 8.125 1.13 3.875 2.5 3.875c1.38 0 5-3.25 7.13-3.25s5.63 2.875 5.63 6.375-2.5 8.25-2.5 8.25-3.76-4.375-6.26-4.375-5.87 2.625-4.12 8.375h-8.54z"/> <path d="m188.06 94.292c0 0.806 0.66 1.459 1.46 1.459h9.83c0.81 0 1.46-0.653 1.46-1.459 0-0.805-0.65-1.458-1.46-1.458h-9.83c-0.8 0-1.46 0.653-1.46 1.458z"/>
<path d="m193.92 138.33c-1.25 0-2.25-1-2.25-2.25 0-1.24 1-2.25 2.25-2.25h94.16c1.25 0 2.25 1.01 2.25 2.25 0 1.25-1 2.25-2.25 2.25h-94.16z"/>
 <path d="m194.67 154.17c-0.92 0-1.67-0.75-1.67-1.67s0.75-1.67 1.67-1.67h92.66c0.92 0 1.67 0.75 1.67 1.67s-0.75 1.67-1.67 1.67h-92.66z"/>
<path d="m195.17 169.5c-0.92 0-1.67-0.75-1.67-1.67s0.75-1.66 1.67-1.66h91.66c0.92 0 1.67 0.74 1.67 1.66s-0.75 1.67-1.67 1.67h-91.66z"/><rect y="141" width="93" x="194.5" height="6.6665"/><rect y="156.17" width="91" x="195.5" height="6.8335"/></g>
<use width="482" xlink:href="#crown" transform="translate(-142.4)" height="579.00635"/>
<use width="482" xlink:href="#crown" transform="translate(142.4)" height="579.00635"/>
<line stroke-width="6" y2="203.76" x2="5" stroke="#000" y1="203.76" x1="477" fill="none"/>
<path id="border" d="m477 0h-477v338.01c0 132.88 108.11 241 241 241s241-108.12 241-241v-338.01h-5zm-5 10v328.01c0 127.37-103.63 231-231 231s-231-103.63-231-231v-328.01h462z"/>
<path id="drip" d="m248.12 251.67s-5 7.75-5 13.25 3.76 11.5 7.26 16 9 12.75 9 22-4.76 22.25-18.5 22.25c-13.76 0-18.26-12.75-18.26-19.5 0-9 8.77-16.17 10.8-17.79 2.03-1.61-0.75-5.63-0.75-5.63s-1.96-3.54-1.96-7.04 1.91-15.29 17.41-23.54z"/>
<g id="upper_drip_row">
<use width="482" xlink:href="#drip" transform="translate(-168)" height="579.00635"/>
<use width="482" xlink:href="#drip" transform="translate(-84)" height="579.00635"/>
<use width="482" xlink:href="#drip" transform="translate(84)" height="579.00635"/>
<use width="482" xlink:href="#drip" transform="translate(168)" height="579.00635"/>
</g>
<g id="middle_drip_row">
<use width="482" xlink:href="#drip" transform="translate(-126,100)" height="579.00635"/>
<use width="482" xlink:href="#drip" transform="translate(-42,100)" height="579.00635"/>
<use id="use1416" xlink:href="#drip" width="482" height="579.00635" transform="translate(42,100)"/>
<use width="482" xlink:href="#drip" transform="translate(126,100)" height="579.00635"/>
</g>
<g id="lower_drip_row">
<use width="482" xlink:href="#drip" transform="translate(75,200)" height="579.00635"/>
<use width="482" xlink:href="#drip" transform="translate(-75,200)" height="579.00635"/>
</g>
</svg>