<?xml version="1.0" encoding="UTF-8" standalone="no"?>
<!-- Created with Inkscape (http://www.inkscape.org/) -->
<svg xmlns:svg="http://www.w3.org/2000/svg" xmlns="http://www.w3.org/2000/svg" version="1.1" width="100%" height="100%" viewBox="0 0 500 600" id="svg2">
  <defs id="defs6361"/>
  <g transform="translate(-21.75,398.5)" id="layer1">
    <path d="M 26.75,-393.5 C 26.75,-393.5 26.75,-145.20833 26.75,-30.486109 C 26.75,149.79167 190.08334,196.5 271.75,196.5 C 353.41667,196.5 516.75,149.79167 516.75,-30.486109 C 516.75,-145.20833 516.75,-393.5 516.75,-393.5 L 26.75,-393.5 z" id="path12445" style="fill:#36a5fe;fill-opacity:1;stroke:none;stroke-width:2;stroke-linecap:square;stroke-linejoin:miter;marker:none;stroke-miterlimit:4;stroke-dasharray:none;stroke-opacity:1;visibility:visible;display:inline;overflow:visible;enable-background:accumulate"/>
    <path d="M 416.75,-133.5 L 466.75,-133.5 L 466.75,-83.5 L 416.75,-83.5 L 416.75,-133.5 z" id="path12548" style="fill:#f90000;fill-opacity:1;stroke:#000000;stroke-width:5;stroke-linecap:round;stroke-linejoin:bevel;marker:none;stroke-miterlimit:4;stroke-dasharray:none;stroke-opacity:1;visibility:visible;display:inline;overflow:visible;enable-background:accumulate"/>
    <path d="M 466.75,-83.5 L 516.75,-83.5 L 516.75,-33.5 L 466.75,-33.5 L 466.75,-83.5 z" id="path12546" style="fill:#f90000;fill-opacity:1;stroke:#000000;stroke-width:5;stroke-linecap:round;stroke-linejoin:bevel;marker:none;stroke-miterlimit:4;stroke-dasharray:none;stroke-opacity:1;visibility:visible;display:inline;overflow:visible;enable-background:accumulate"/>
    <path d="M 466.75,-183.5 L 516.75,-183.5 L 516.75,-133.5 L 466.75,-133.5 L 466.75,-183.5 z" id="path12550" style="fill:#f90000;fill-opacity:1;stroke:#000000;stroke-width:5;stroke-linecap:round;stroke-linejoin:bevel;marker:none;stroke-miterlimit:4;stroke-dasharray:none;stroke-opacity:1;visibility:visible;display:inline;overflow:visible;enable-background:accumulate"/>
    <path d="M 466.75,-133.5 L 516.75,-133.5 L 516.75,-83.5 L 466.75,-83.5 L 466.75,-133.5 z" id="path12540" style="fill:#ffffff;fill-opacity:1;stroke:#000000;stroke-width:5;stroke-linecap:round;stroke-linejoin:bevel;marker:none;stroke-miterlimit:4;stroke-dasharray:none;stroke-opacity:1;visibility:visible;display:inline;overflow:visible;enable-background:accumulate"/>
    <path d="M 26.75,-83.5 L 76.75,-83.5 L 76.75,-33.5 L 26.75,-33.5 L 26.75,-83.5 z" id="path12528" style="fill:#ffffff;fill-opacity:1;stroke:#000000;stroke-width:5;stroke-linecap:round;stroke-linejoin:bevel;marker:none;stroke-miterlimit:4;stroke-dasharray:none;stroke-opacity:1;visibility:visible;display:inline;overflow:visible;enable-background:accumulate"/>
    <path d="M 26.75,-183.5 L 76.75,-183.5 L 76.75,-133.5 L 26.75,-133.5 L 26.75,-183.5 z" id="path12532" style="fill:#ffffff;fill-opacity:1;stroke:#000000;stroke-width:5;stroke-linecap:round;stroke-linejoin:bevel;marker:none;stroke-miterlimit:4;stroke-dasharray:none;stroke-opacity:1;visibility:visible;display:inline;overflow:visible;enable-background:accumulate"/>
    <path d="M 76.75,-183.5 L 126.75,-183.5 L 126.75,-133.5 L 76.75,-133.5 L 76.75,-183.5 z" id="path12542" style="fill:#f90000;fill-opacity:1;stroke:#000000;stroke-width:5;stroke-linecap:round;stroke-linejoin:bevel;marker:none;stroke-miterlimit:4;stroke-dasharray:none;stroke-opacity:1;visibility:visible;display:inline;overflow:visible;enable-background:accumulate"/>
    <path d="M 416.75,-183.5 L 466.75,-183.5 L 466.75,-133.5 L 416.75,-133.5 L 416.75,-183.5 z" id="path12536" style="fill:#ffffff;fill-opacity:1;stroke:#000000;stroke-width:5;stroke-linecap:round;stroke-linejoin:bevel;marker:none;stroke-miterlimit:4;stroke-dasharray:none;stroke-opacity:1;visibility:visible;display:inline;overflow:visible;enable-background:accumulate"/>
    <path d="M 26.75,-133.5 L 76.75,-133.5 L 76.75,-83.5 L 26.75,-83.5 L 26.75,-133.5 z" id="path12530" style="fill:#f90000;fill-opacity:1;stroke:#000000;stroke-width:5;stroke-linecap:round;stroke-linejoin:bevel;marker:none;stroke-miterlimit:4;stroke-dasharray:none;stroke-opacity:1;visibility:visible;display:inline;overflow:visible;enable-background:accumulate"/>
    <path d="M 76.75,-133.5 L 126.75,-133.5 L 126.75,-83.5 L 76.75,-83.5 L 76.75,-133.5 z" id="path12534" style="fill:#ffffff;fill-opacity:1;stroke:#000000;stroke-width:5;stroke-linecap:round;stroke-linejoin:bevel;marker:none;stroke-miterlimit:4;stroke-dasharray:none;stroke-opacity:1;visibility:visible;display:inline;overflow:visible;enable-background:accumulate"/>
    <path d="M 76.75,-83.5 L 126.75,-83.5 L 126.75,-33.5 L 76.75,-33.5 L 76.75,-83.5 z" id="path12544" style="fill:#f90000;fill-opacity:1;stroke:#000000;stroke-width:5;stroke-linecap:round;stroke-linejoin:bevel;marker:none;stroke-miterlimit:4;stroke-dasharray:none;stroke-opacity:1;visibility:visible;display:inline;overflow:visible;enable-background:accumulate"/>
    <path d="M 416.75,-83.5 L 466.75,-83.5 L 466.75,-33.5 L 416.75,-33.5 L 416.75,-83.5 z" id="path12538" style="fill:#ffffff;fill-opacity:1;stroke:#000000;stroke-width:5;stroke-linecap:round;stroke-linejoin:bevel;marker:none;stroke-miterlimit:4;stroke-dasharray:none;stroke-opacity:1;visibility:visible;display:inline;overflow:visible;enable-background:accumulate"/>
    <path d="M 394.58922,68.343514 L 394.1657,75.306423 L 145.08648,75.306423 C 145.08648,75.306423 140.31056,76.535605 135.08248,76.535605 C 130.46415,76.535605 118.06892,70.947709 116.96372,57.327419 C 116.85856,-59.32145 116.09529,-166.96342 116.01682,-284.6487 C 117.44709,-298.31461 127.38229,-311.88598 138.55324,-312.70544 C 146.69805,-313.30291 157.33628,-313.11516 157.33628,-313.11516 C 157.33628,-313.11516 429.28179,-313.11516 429.28179,-313.11516 L 429.28179,42.528229 C 429.28179,42.528229 423.56522,37.611501 409.68211,46.625504 C 396.36943,55.269146 394.58922,60.148966 394.58922,68.343514 z" id="path12474" style="fill:#fce94f;fill-opacity:1;stroke:#000000;stroke-width:6.54442215;stroke-linecap:square;stroke-linejoin:miter;marker:none;stroke-miterlimit:4;stroke-dasharray:none;stroke-opacity:1;visibility:visible;display:inline;overflow:visible;enable-background:accumulate"/>
    <path d="M 116.09529,-285.2537 C 116.09529,-168.60234 116.85856,-55.224176 116.96372,61.424694 C 118.06892,75.044983 130.46415,76.535605 135.08248,76.535605 C 140.31056,76.535605 145.08648,75.306423 145.08648,75.306423 L 394.1657,75.306423 L 395.79902,-277.05915 L 139.02427,-274.67345 C 139.02427,-274.67345 134.66814,-270.54469 130.04846,-271.12413 C 122.30762,-272.09505 114.8703,-278.28833 116.09529,-285.2537 z" id="path12468" style="fill:#000000;fill-opacity:1;stroke:#000000;stroke-width:6.54442215;stroke-linecap:square;stroke-linejoin:miter;marker:none;stroke-miterlimit:4;stroke-dasharray:none;stroke-opacity:1;visibility:visible;display:inline;overflow:visible;enable-background:accumulate"/>
    <path d="M 426.4235,-310.6568 L 428.05682,37.611501" id="path12840" style="fill:#000000;fill-opacity:1;stroke:#000000;stroke-width:6.54442215;stroke-linecap:round;stroke-linejoin:bevel;marker:none;stroke-miterlimit:4;stroke-dasharray:none;stroke-opacity:1;visibility:visible;display:inline;overflow:visible;enable-background:accumulate"/>
    <path d="M 396.57761,-6.9317692 C 396.57761,-6.9317692 422.77095,-33.677627 429.24374,-39.709962 C 435.61379,-45.646551 443.53517,-27.827867 428.83541,-15.126318 C 414.13565,-2.4247677 396.37345,17.447012 396.37345,17.447012 L 380.24455,17.447012 C 373.9608,22.323324 378.73504,35.692043 380.24455,41.825793 C 372.90921,45.672478 355.18547,28.027026 366.78957,10.31546 C 362.33044,5.429969 365.26168,1.5547344 366.78957,-0.068835068 C 354.53977,-18.711432 374.38029,-32.959818 380.24455,-30.695959 C 381.26537,-24.959775 373.50716,-15.126318 380.24455,-6.9317692 L 396.57761,-6.9317692 z" id="path12483" style="fill:#ffffff;fill-opacity:1;stroke:#000000;stroke-width:3.27221107;stroke-linecap:square;stroke-linejoin:miter;marker:none;stroke-miterlimit:4;stroke-dasharray:none;stroke-opacity:1;visibility:visible;display:inline;overflow:visible;enable-background:accumulate"/>
    <path d="M 383.14089,-273.37161 C 392.12407,-300.41361 410.15551,-307.68929 428.05682,-309.42761 L 153.66134,-309.42761 C 153.66134,-309.42761 154.27382,-311.06653 139.77823,-311.2714 C 135.85147,-311.32689 130.4888,-308.81302 130.4888,-308.81302" id="path12489" style="fill:none;fill-opacity:1;stroke:#000000;stroke-width:6.54442215;stroke-linecap:square;stroke-linejoin:miter;marker:none;stroke-miterlimit:4;stroke-dasharray:none;stroke-opacity:1;visibility:visible;display:inline;overflow:visible;enable-background:accumulate"/>
    <path d="M 161.26658,-309.42658 C 133.54846,-303.47122 133.54846,-280.19119 137.01322,-271.52886" id="path12495" style="fill:none;fill-opacity:1;stroke:#000000;stroke-width:6.54442215;stroke-linecap:square;stroke-linejoin:miter;marker:none;stroke-miterlimit:4;stroke-dasharray:none;stroke-opacity:1;visibility:visible;display:inline;overflow:visible;enable-background:accumulate"/>
    <path d="M 173.66935,47.444958 L 353.33305,-247.55877" id="path12499" style="fill:none;fill-opacity:1;stroke:#ffffff;stroke-width:6.54442215;stroke-linecap:butt;stroke-linejoin:miter;marker:none;stroke-miterlimit:4;stroke-dasharray:none;stroke-opacity:1;visibility:visible;display:inline;overflow:visible;enable-background:accumulate"/>
    <path d="M 173.66935,-247.55877 L 353.33305,47.444958" id="path12501" style="fill:none;fill-opacity:1;stroke:#ffffff;stroke-width:6.54442215;stroke-linecap:butt;stroke-linejoin:miter;marker:none;stroke-miterlimit:4;stroke-dasharray:none;stroke-opacity:1;visibility:visible;display:inline;overflow:visible;enable-background:accumulate"/>
    <path d="M 173.66935,-100.0569 L 261.86789,-247.55877 L 350.06644,-100.0569 L 261.86789,47.444958 L 173.66935,-100.0569 z" id="path12503" style="fill:none;fill-opacity:1;stroke:#ffffff;stroke-width:6.54442215;stroke-linecap:square;stroke-linejoin:bevel;marker:none;stroke-miterlimit:4;stroke-dasharray:none;stroke-opacity:1;visibility:visible;display:inline;overflow:visible;enable-background:accumulate"/>
    <path d="M 136.14961,-251.03888 C 131.24119,-251.03888 120.02932,-251.79035 112.9855,-266.60853 C 112.53064,-267.56544 111.1648,-267.51714 110.35168,-266.84521 C 107.14536,-264.19557 107.72951,-256.73816 111.76052,-251.44861 C 119.77588,-240.93074 130.18647,-239.97624 136.14961,-239.97624" id="path12516" style="fill:#ffffff;fill-opacity:1;stroke:#000000;stroke-width:1.63610554;stroke-linecap:butt;stroke-linejoin:bevel;marker:none;stroke-miterlimit:4;stroke-dasharray:none;stroke-opacity:1;visibility:visible;display:inline;overflow:visible;enable-background:accumulate"/>
    <path d="M 136.14961,-191.80165 C 131.24119,-191.80165 120.02932,-192.55312 112.9855,-207.37128 C 112.53064,-208.32819 111.1648,-208.2799 110.35168,-207.60797 C 107.14536,-204.95834 107.72951,-197.50093 111.76052,-192.21137 C 119.77588,-181.6935 130.18647,-180.739 136.14961,-180.739" id="path12518" style="fill:#ffffff;fill-opacity:1;stroke:#000000;stroke-width:1.63610554;stroke-linecap:butt;stroke-linejoin:bevel;marker:none;stroke-miterlimit:4;stroke-dasharray:none;stroke-opacity:1;visibility:visible;display:inline;overflow:visible;enable-background:accumulate"/>
    <path d="M 136.14961,-132.56439 C 131.24119,-132.56439 120.02932,-133.31587 112.9855,-148.13403 C 112.53064,-149.09094 111.1648,-149.04265 110.35168,-148.37072 C 107.14536,-145.7211 107.72951,-138.26369 111.76052,-132.97412 C 119.77588,-122.45625 130.18647,-121.50175 136.14961,-121.50175" id="path12520" style="fill:#ffffff;fill-opacity:1;stroke:#000000;stroke-width:1.63610554;stroke-linecap:butt;stroke-linejoin:bevel;marker:none;stroke-miterlimit:4;stroke-dasharray:none;stroke-opacity:1;visibility:visible;display:inline;overflow:visible;enable-background:accumulate"/>
    <path d="M 136.14961,-73.327146 C 131.24119,-73.327146 120.02932,-74.078618 112.9855,-88.896786 C 112.53064,-89.853682 111.1648,-89.805399 110.35168,-89.133478 C 107.14536,-86.483853 107.72951,-79.026421 111.76052,-73.736874 C 119.77588,-63.219006 130.18647,-62.264505 136.14961,-62.264505" id="path12522" style="fill:#ffffff;fill-opacity:1;stroke:#000000;stroke-width:1.63610554;stroke-linecap:butt;stroke-linejoin:bevel;marker:none;stroke-miterlimit:4;stroke-dasharray:none;stroke-opacity:1;visibility:visible;display:inline;overflow:visible;enable-background:accumulate"/>
    <path d="M 136.14961,-14.089904 C 131.24119,-14.089904 120.02932,-14.841376 112.9855,-29.659545 C 112.53064,-30.616439 111.1648,-30.568157 110.35168,-29.896238 C 107.14536,-27.246612 107.72951,-19.789179 111.76052,-14.499631 C 119.77588,-3.9817646 130.18647,-3.0272636 136.14961,-3.0272636" id="path12524" style="fill:#ffffff;fill-opacity:1;stroke:#000000;stroke-width:1.63610554;stroke-linecap:butt;stroke-linejoin:bevel;marker:none;stroke-miterlimit:4;stroke-dasharray:none;stroke-opacity:1;visibility:visible;display:inline;overflow:visible;enable-background:accumulate"/>
    <path d="M 136.14961,45.147338 C 131.24119,45.147338 120.02932,44.395865 112.9855,29.577696 C 112.53064,28.620803 111.1648,28.669085 110.35168,29.341005 C 107.14536,31.99063 107.72951,39.448062 111.76052,44.737611 C 119.77588,55.255478 130.18647,56.209979 136.14961,56.209979" id="path12526" style="fill:#ffffff;fill-opacity:1;stroke:#000000;stroke-width:1.63610554;stroke-linecap:butt;stroke-linejoin:bevel;marker:none;stroke-miterlimit:4;stroke-dasharray:none;stroke-opacity:1;visibility:visible;display:inline;overflow:visible;enable-background:accumulate"/>
    <path d="M 137.73659,71.037259 L 137.73659,-263.91541" id="path12505" style="fill:#729fcf;fill-opacity:1;stroke:#ffffff;stroke-width:6.54442215;stroke-linecap:round;stroke-linejoin:bevel;marker:none;stroke-miterlimit:4;stroke-dasharray:none;stroke-opacity:1;visibility:visible;display:inline;overflow:visible;enable-background:accumulate"/>
    <path d="M 396.61567,-7.8682422 L 396.61567,16.305675" id="path12554" style="fill:none;fill-opacity:1;stroke:#000000;stroke-width:3.27221107;stroke-linecap:round;stroke-linejoin:bevel;marker:none;stroke-miterlimit:4;stroke-dasharray:none;stroke-opacity:1;visibility:visible;display:inline;overflow:visible;enable-background:accumulate"/>
    <path d="M 396.84511,-212.61493 C 396.84511,-212.61493 423.03845,-239.36078 429.51125,-245.39312 C 435.88131,-251.32971 443.80268,-233.51102 429.10292,-220.80948 C 414.40315,-208.10792 396.64096,-188.23614 396.64096,-188.23614 L 380.51205,-188.23614 C 374.2283,-183.35982 379.00254,-169.99111 380.51205,-163.85736 C 373.17671,-160.01067 355.45298,-177.65613 367.05707,-195.36769 C 362.59794,-200.25319 365.52918,-204.12842 367.05707,-205.75198 C 354.80727,-224.39459 374.6478,-238.64297 380.51205,-236.37911 C 381.53287,-230.64292 373.77467,-220.80948 380.51205,-212.61493 L 396.84511,-212.61493 z" id="path12556" style="fill:#ffffff;fill-opacity:1;stroke:#000000;stroke-width:3.27221107;stroke-linecap:square;stroke-linejoin:miter;marker:none;stroke-miterlimit:4;stroke-dasharray:none;stroke-opacity:1;visibility:visible;display:inline;overflow:visible;enable-background:accumulate"/>
    <path d="M 396.88317,-213.5514 L 396.88317,-189.37748" id="path12558" style="fill:none;fill-opacity:1;stroke:#000000;stroke-width:3.27221107;stroke-linecap:round;stroke-linejoin:bevel;marker:none;stroke-miterlimit:4;stroke-dasharray:none;stroke-opacity:1;visibility:visible;display:inline;overflow:visible;enable-background:accumulate"/>
    <g transform="matrix(3.2666128,0,0,3.2778192,-469.11866,-679.85044)" id="g12597">
      <path d="M 210,200 C 205,195 206.75993,193.25 210,193.25 C 213.54955,193.25 215,195 210,200" id="path12599" style="fill:#ffffff;fill-opacity:1;stroke:#000000;stroke-width:1;stroke-linecap:round;stroke-linejoin:bevel;marker:none;stroke-miterlimit:4;stroke-dasharray:none;stroke-opacity:1;visibility:visible;display:inline;overflow:visible;enable-background:accumulate"/>
      <path d="M 210,200 C 205,205 203.25,203.24007 203.25,200 C 203.25,196.45045 205,195 210,200" id="path12601" style="fill:#ffffff;fill-opacity:1;stroke:#000000;stroke-width:1;stroke-linecap:round;stroke-linejoin:bevel;marker:none;stroke-miterlimit:4;stroke-dasharray:none;stroke-opacity:1;visibility:visible;display:inline;overflow:visible;enable-background:accumulate"/>
      <path d="M 210.11467,200.5 C 215.11467,205.5 213.35474,207.25 210.11467,207.25 C 206.56512,207.25 205.11467,205.5 210.11467,200.5" id="path12603" style="fill:#ffffff;fill-opacity:1;stroke:#000000;stroke-width:1;stroke-linecap:round;stroke-linejoin:bevel;marker:none;stroke-miterlimit:4;stroke-dasharray:none;stroke-opacity:1;visibility:visible;display:inline;overflow:visible;enable-background:accumulate"/>
      <path d="M 210,200 C 215,195 216.75,196.75993 216.75,200 C 216.75,203.54955 215,205 210,200" id="path12605" style="fill:#ffffff;fill-opacity:1;stroke:#000000;stroke-width:1;stroke-linecap:round;stroke-linejoin:bevel;marker:none;stroke-miterlimit:4;stroke-dasharray:none;stroke-opacity:1;visibility:visible;display:inline;overflow:visible;enable-background:accumulate"/>
      <path d="M 208.15625,196.65625 C 208.15625,197.93341 207.12091,198.96875 205.84375,198.96875 C 204.56659,198.96875 203.53125,197.93341 203.53125,196.65625 C 203.53125,195.37909 204.56659,194.34375 205.84375,194.34375 C 207.12091,194.34375 208.15625,195.37909 208.15625,196.65625 L 208.15625,196.65625 z" transform="translate(4.15625,3.4375)" id="path12607" style="fill:#000000;fill-opacity:1;stroke:none;stroke-width:1;stroke-linecap:round;stroke-linejoin:bevel;marker:none;stroke-miterlimit:4;stroke-dasharray:none;stroke-opacity:1;visibility:visible;display:inline;overflow:visible;enable-background:accumulate"/>
    </g>
    <g transform="matrix(3.2666128,0,0,3.2778192,-380.28453,-679.85044)" id="g12621">
      <path d="M 210,200 C 205,195 206.75993,193.25 210,193.25 C 213.54955,193.25 215,195 210,200" id="path12623" style="fill:#ffffff;fill-opacity:1;stroke:#000000;stroke-width:1;stroke-linecap:round;stroke-linejoin:bevel;marker:none;stroke-miterlimit:4;stroke-dasharray:none;stroke-opacity:1;visibility:visible;display:inline;overflow:visible;enable-background:accumulate"/>
      <path d="M 210,200 C 205,205 203.25,203.24007 203.25,200 C 203.25,196.45045 205,195 210,200" id="path12625" style="fill:#ffffff;fill-opacity:1;stroke:#000000;stroke-width:1;stroke-linecap:round;stroke-linejoin:bevel;marker:none;stroke-miterlimit:4;stroke-dasharray:none;stroke-opacity:1;visibility:visible;display:inline;overflow:visible;enable-background:accumulate"/>
      <path d="M 210.11467,200.5 C 215.11467,205.5 213.35474,207.25 210.11467,207.25 C 206.56512,207.25 205.11467,205.5 210.11467,200.5" id="path12627" style="fill:#ffffff;fill-opacity:1;stroke:#000000;stroke-width:1;stroke-linecap:round;stroke-linejoin:bevel;marker:none;stroke-miterlimit:4;stroke-dasharray:none;stroke-opacity:1;visibility:visible;display:inline;overflow:visible;enable-background:accumulate"/>
      <path d="M 210,200 C 215,195 216.75,196.75993 216.75,200 C 216.75,203.54955 215,205 210,200" id="path12629" style="fill:#ffffff;fill-opacity:1;stroke:#000000;stroke-width:1;stroke-linecap:round;stroke-linejoin:bevel;marker:none;stroke-miterlimit:4;stroke-dasharray:none;stroke-opacity:1;visibility:visible;display:inline;overflow:visible;enable-background:accumulate"/>
      <path d="M 208.15625,196.65625 C 208.15625,197.93341 207.12091,198.96875 205.84375,198.96875 C 204.56659,198.96875 203.53125,197.93341 203.53125,196.65625 C 203.53125,195.37909 204.56659,194.34375 205.84375,194.34375 C 207.12091,194.34375 208.15625,195.37909 208.15625,196.65625 L 208.15625,196.65625 z" transform="translate(4.15625,3.4375)" id="path12631" style="fill:#000000;fill-opacity:1;stroke:none;stroke-width:1;stroke-linecap:round;stroke-linejoin:bevel;marker:none;stroke-miterlimit:4;stroke-dasharray:none;stroke-opacity:1;visibility:visible;display:inline;overflow:visible;enable-background:accumulate"/>
    </g>
    <g transform="matrix(3.2666128,0,0,3.2778192,-380.28453,-832.23979)" id="g12633">
      <path d="M 210,200 C 205,195 206.75993,193.25 210,193.25 C 213.54955,193.25 215,195 210,200" id="path12635" style="fill:#ffffff;fill-opacity:1;stroke:#000000;stroke-width:1;stroke-linecap:round;stroke-linejoin:bevel;marker:none;stroke-miterlimit:4;stroke-dasharray:none;stroke-opacity:1;visibility:visible;display:inline;overflow:visible;enable-background:accumulate"/>
      <path d="M 210,200 C 205,205 203.25,203.24007 203.25,200 C 203.25,196.45045 205,195 210,200" id="path12637" style="fill:#ffffff;fill-opacity:1;stroke:#000000;stroke-width:1;stroke-linecap:round;stroke-linejoin:bevel;marker:none;stroke-miterlimit:4;stroke-dasharray:none;stroke-opacity:1;visibility:visible;display:inline;overflow:visible;enable-background:accumulate"/>
      <path d="M 210.11467,200.5 C 215.11467,205.5 213.35474,207.25 210.11467,207.25 C 206.56512,207.25 205.11467,205.5 210.11467,200.5" id="path12639" style="fill:#ffffff;fill-opacity:1;stroke:#000000;stroke-width:1;stroke-linecap:round;stroke-linejoin:bevel;marker:none;stroke-miterlimit:4;stroke-dasharray:none;stroke-opacity:1;visibility:visible;display:inline;overflow:visible;enable-background:accumulate"/>
      <path d="M 210,200 C 215,195 216.75,196.75993 216.75,200 C 216.75,203.54955 215,205 210,200" id="path12641" style="fill:#ffffff;fill-opacity:1;stroke:#000000;stroke-width:1;stroke-linecap:round;stroke-linejoin:bevel;marker:none;stroke-miterlimit:4;stroke-dasharray:none;stroke-opacity:1;visibility:visible;display:inline;overflow:visible;enable-background:accumulate"/>
      <path d="M 208.15625,196.65625 C 208.15625,197.93341 207.12091,198.96875 205.84375,198.96875 C 204.56659,198.96875 203.53125,197.93341 203.53125,196.65625 C 203.53125,195.37909 204.56659,194.34375 205.84375,194.34375 C 207.12091,194.34375 208.15625,195.37909 208.15625,196.65625 L 208.15625,196.65625 z" transform="translate(4.15625,3.4375)" id="path12643" style="fill:#000000;fill-opacity:1;stroke:none;stroke-width:1;stroke-linecap:round;stroke-linejoin:bevel;marker:none;stroke-miterlimit:4;stroke-dasharray:none;stroke-opacity:1;visibility:visible;display:inline;overflow:visible;enable-background:accumulate"/>
    </g>
    <g transform="matrix(3.2666128,0,0,3.2778192,-469.11866,-832.23979)" id="g12645">
      <path d="M 210,200 C 205,195 206.75993,193.25 210,193.25 C 213.54955,193.25 215,195 210,200" id="path12647" style="fill:#ffffff;fill-opacity:1;stroke:#000000;stroke-width:1;stroke-linecap:round;stroke-linejoin:bevel;marker:none;stroke-miterlimit:4;stroke-dasharray:none;stroke-opacity:1;visibility:visible;display:inline;overflow:visible;enable-background:accumulate"/>
      <path d="M 210,200 C 205,205 203.25,203.24007 203.25,200 C 203.25,196.45045 205,195 210,200" id="path12649" style="fill:#ffffff;fill-opacity:1;stroke:#000000;stroke-width:1;stroke-linecap:round;stroke-linejoin:bevel;marker:none;stroke-miterlimit:4;stroke-dasharray:none;stroke-opacity:1;visibility:visible;display:inline;overflow:visible;enable-background:accumulate"/>
      <path d="M 210.11467,200.5 C 215.11467,205.5 213.35474,207.25 210.11467,207.25 C 206.56512,207.25 205.11467,205.5 210.11467,200.5" id="path12651" style="fill:#ffffff;fill-opacity:1;stroke:#000000;stroke-width:1;stroke-linecap:round;stroke-linejoin:bevel;marker:none;stroke-miterlimit:4;stroke-dasharray:none;stroke-opacity:1;visibility:visible;display:inline;overflow:visible;enable-background:accumulate"/>
      <path d="M 210,200 C 215,195 216.75,196.75993 216.75,200 C 216.75,203.54955 215,205 210,200" id="path12653" style="fill:#ffffff;fill-opacity:1;stroke:#000000;stroke-width:1;stroke-linecap:round;stroke-linejoin:bevel;marker:none;stroke-miterlimit:4;stroke-dasharray:none;stroke-opacity:1;visibility:visible;display:inline;overflow:visible;enable-background:accumulate"/>
      <path d="M 208.15625,196.65625 C 208.15625,197.93341 207.12091,198.96875 205.84375,198.96875 C 204.56659,198.96875 203.53125,197.93341 203.53125,196.65625 C 203.53125,195.37909 204.56659,194.34375 205.84375,194.34375 C 207.12091,194.34375 208.15625,195.37909 208.15625,196.65625 L 208.15625,196.65625 z" transform="translate(4.15625,3.4375)" id="path12655" style="fill:#000000;fill-opacity:1;stroke:none;stroke-width:1;stroke-linecap:round;stroke-linejoin:bevel;marker:none;stroke-miterlimit:4;stroke-dasharray:none;stroke-opacity:1;visibility:visible;display:inline;overflow:visible;enable-background:accumulate"/>
    </g>
    <g transform="matrix(3.2666128,0,0,3.2778192,-53.36025,-427.83885)" id="g12726">
      <path d="M 96.5722,99.87054 C 91.5722,94.87054 93.33213,93.12054 96.5722,93.12054 C 100.12175,93.12054 101.5722,94.87054 96.5722,99.87054" id="path12659" style="fill:#ffffff;fill-opacity:1;stroke:#000000;stroke-width:1;stroke-linecap:round;stroke-linejoin:bevel;marker:none;stroke-miterlimit:4;stroke-dasharray:none;stroke-opacity:1;visibility:visible;display:inline;overflow:visible;enable-background:accumulate"/>
      <path d="M 96.5722,99.87054 C 91.5722,104.87054 89.8222,103.11061 89.8222,99.87054 C 89.8222,96.32099 91.5722,94.87054 96.5722,99.87054" id="path12661" style="fill:#ffffff;fill-opacity:1;stroke:#000000;stroke-width:1;stroke-linecap:round;stroke-linejoin:bevel;marker:none;stroke-miterlimit:4;stroke-dasharray:none;stroke-opacity:1;visibility:visible;display:inline;overflow:visible;enable-background:accumulate"/>
      <path d="M 96.68687,100.37054 C 101.68687,105.37054 99.92694,107.12054 96.68687,107.12054 C 93.13732,107.12054 91.68687,105.37054 96.68687,100.37054" id="path12663" style="fill:#ffffff;fill-opacity:1;stroke:#000000;stroke-width:1;stroke-linecap:round;stroke-linejoin:bevel;marker:none;stroke-miterlimit:4;stroke-dasharray:none;stroke-opacity:1;visibility:visible;display:inline;overflow:visible;enable-background:accumulate"/>
      <path d="M 96.5722,99.87054 C 101.5722,94.87054 103.3222,96.63047 103.3222,99.87054 C 103.3222,103.42009 101.5722,104.87054 96.5722,99.87054" id="path12665" style="fill:#ffffff;fill-opacity:1;stroke:#000000;stroke-width:1;stroke-linecap:round;stroke-linejoin:bevel;marker:none;stroke-miterlimit:4;stroke-dasharray:none;stroke-opacity:1;visibility:visible;display:inline;overflow:visible;enable-background:accumulate"/>
      <path d="M 208.15625,196.65625 C 208.15625,197.93341 207.12091,198.96875 205.84375,198.96875 C 204.56659,198.96875 203.53125,197.93341 203.53125,196.65625 C 203.53125,195.37909 204.56659,194.34375 205.84375,194.34375 C 207.12091,194.34375 208.15625,195.37909 208.15625,196.65625 L 208.15625,196.65625 z" transform="translate(-109.27155,-96.69196)" id="path12667" style="fill:#000000;fill-opacity:1;stroke:none;stroke-width:1;stroke-linecap:round;stroke-linejoin:bevel;marker:none;stroke-miterlimit:4;stroke-dasharray:none;stroke-opacity:1;visibility:visible;display:inline;overflow:visible;enable-background:accumulate"/>
    </g>
    <path d="M 179.59007,19.208479 C 191.18508,19.208479 195.92314,24.944662 179.59007,41.333759" id="path12761" style="fill:#ffffff;fill-opacity:1;stroke:#000000;stroke-width:3.27221107;stroke-linecap:round;stroke-linejoin:bevel;marker:none;stroke-miterlimit:4;stroke-dasharray:none;stroke-opacity:1;visibility:visible;display:inline;overflow:visible;enable-background:accumulate"/>
    <g transform="matrix(3.2666128,0,0,3.2778192,-54.993556,-427.83885)" id="g12797">
      <path d="M 71.8125,143.13559 C 66.8125,138.13559 68.57243,136.38559 71.8125,136.38559" id="path12763" style="fill:#ffffff;fill-opacity:1;stroke:#000000;stroke-width:1;stroke-linecap:round;stroke-linejoin:bevel;marker:none;stroke-miterlimit:4;stroke-dasharray:none;stroke-opacity:1;visibility:visible;display:inline;overflow:visible;enable-background:accumulate"/>
      <path d="M 71.8125,143.13559 C 76.8125,138.13559 78.5625,139.89552 78.5625,143.13559 C 78.5625,146.68514 76.8125,148.13559 71.8125,143.13559" id="path12765" style="fill:#ffffff;fill-opacity:1;stroke:#000000;stroke-width:1;stroke-linecap:round;stroke-linejoin:bevel;marker:none;stroke-miterlimit:4;stroke-dasharray:none;stroke-opacity:1;visibility:visible;display:inline;overflow:visible;enable-background:accumulate"/>
      <path d="M 208.15625,196.65625 C 208.15625,197.93341 207.12091,198.96875 205.84375,198.96875 C 204.56659,198.96875 203.53125,197.93341 203.53125,196.65625 C 203.53125,195.37909 204.56659,194.34375 205.84375,194.34375 C 207.12091,194.34375 208.15625,195.37909 208.15625,196.65625 L 208.15625,196.65625 z" transform="translate(-134.03125,-53.426914)" id="path12767" style="fill:#000000;fill-opacity:1;stroke:none;stroke-width:1;stroke-linecap:round;stroke-linejoin:bevel;marker:none;stroke-miterlimit:4;stroke-dasharray:none;stroke-opacity:1;visibility:visible;display:inline;overflow:visible;enable-background:accumulate"/>
    </g>
    <g transform="matrix(0,-3.2778192,3.2666128,0,-128.01755,412.40423)" id="g12810">
      <path d="M 113.0921,138.8234 C 116.64165,138.8234 118.0921,140.5734 113.0921,145.5734" id="path12802" style="fill:#ffffff;fill-opacity:1;stroke:#000000;stroke-width:1;stroke-linecap:round;stroke-linejoin:bevel;marker:none;stroke-miterlimit:4;stroke-dasharray:none;stroke-opacity:1;visibility:visible;display:inline;overflow:visible;enable-background:accumulate"/>
      <path d="M 113.0921,145.5734 C 108.0921,140.5734 109.85203,138.8234 113.0921,138.8234" id="path12804" style="fill:#ffffff;fill-opacity:1;stroke:#000000;stroke-width:1;stroke-linecap:round;stroke-linejoin:bevel;marker:none;stroke-miterlimit:4;stroke-dasharray:none;stroke-opacity:1;visibility:visible;display:inline;overflow:visible;enable-background:accumulate"/>
      <path d="M 113.0921,145.5734 C 118.0921,140.5734 119.8421,142.33333 119.8421,145.5734 C 119.8421,149.12295 118.0921,150.5734 113.0921,145.5734" id="path12806" style="fill:#ffffff;fill-opacity:1;stroke:#000000;stroke-width:1;stroke-linecap:round;stroke-linejoin:bevel;marker:none;stroke-miterlimit:4;stroke-dasharray:none;stroke-opacity:1;visibility:visible;display:inline;overflow:visible;enable-background:accumulate"/>
      <path d="M 208.15625,196.65625 C 208.15625,197.93341 207.12091,198.96875 205.84375,198.96875 C 204.56659,198.96875 203.53125,197.93341 203.53125,196.65625 C 203.53125,195.37909 204.56659,194.34375 205.84375,194.34375 C 207.12091,194.34375 208.15625,195.37909 208.15625,196.65625 L 208.15625,196.65625 z" transform="translate(-92.751648,-50.989099)" id="path12808" style="fill:#000000;fill-opacity:1;stroke:none;stroke-width:1;stroke-linecap:round;stroke-linejoin:bevel;marker:none;stroke-miterlimit:4;stroke-dasharray:none;stroke-opacity:1;visibility:visible;display:inline;overflow:visible;enable-background:accumulate"/>
    </g>
    <g transform="matrix(0,3.2778192,-3.2666128,0,365.71197,-478.7552)" id="g12824">
      <path d="M 72.168297,50.258277 C 75.717847,50.258277 77.168297,52.008277 72.168297,57.008277" id="path12816" style="fill:#ffffff;fill-opacity:1;stroke:#000000;stroke-width:1;stroke-linecap:round;stroke-linejoin:bevel;marker:none;stroke-miterlimit:4;stroke-dasharray:none;stroke-opacity:1;visibility:visible;display:inline;overflow:visible;enable-background:accumulate"/>
      <path d="M 72.168297,57.008277 C 67.168297,52.008277 68.928227,50.258277 72.168297,50.258277" id="path12818" style="fill:#ffffff;fill-opacity:1;stroke:#000000;stroke-width:1;stroke-linecap:round;stroke-linejoin:bevel;marker:none;stroke-miterlimit:4;stroke-dasharray:none;stroke-opacity:1;visibility:visible;display:inline;overflow:visible;enable-background:accumulate"/>
      <path d="M 72.168297,57.008277 C 77.168297,52.008277 78.918297,53.768207 78.918297,57.008277 C 78.918297,60.557827 77.168297,62.008277 72.168297,57.008277" id="path12820" style="fill:#ffffff;fill-opacity:1;stroke:#000000;stroke-width:1;stroke-linecap:round;stroke-linejoin:bevel;marker:none;stroke-miterlimit:4;stroke-dasharray:none;stroke-opacity:1;visibility:visible;display:inline;overflow:visible;enable-background:accumulate"/>
      <path d="M 208.15625,196.65625 C 208.15625,197.93341 207.12091,198.96875 205.84375,198.96875 C 204.56659,198.96875 203.53125,197.93341 203.53125,196.65625 C 203.53125,195.37909 204.56659,194.34375 205.84375,194.34375 C 207.12091,194.34375 208.15625,195.37909 208.15625,196.65625 L 208.15625,196.65625 z" transform="translate(-133.67545,-139.55422)" id="path12822" style="fill:#000000;fill-opacity:1;stroke:none;stroke-width:1;stroke-linecap:round;stroke-linejoin:bevel;marker:none;stroke-miterlimit:4;stroke-dasharray:none;stroke-opacity:1;visibility:visible;display:inline;overflow:visible;enable-background:accumulate"/>
    </g>
    <g transform="matrix(-3.2666128,0,0,-3.2778192,583.15039,-54.447594)" id="g12830">
      <path d="M 72.168297,50.258277 C 75.717847,50.258277 77.168297,52.008277 72.168297,57.008277" id="path12832" style="fill:#ffffff;fill-opacity:1;stroke:#000000;stroke-width:1;stroke-linecap:round;stroke-linejoin:bevel;marker:none;stroke-miterlimit:4;stroke-dasharray:none;stroke-opacity:1;visibility:visible;display:inline;overflow:visible;enable-background:accumulate"/>
      <path d="M 72.168297,57.008277 C 67.168297,52.008277 68.928227,50.258277 72.168297,50.258277" id="path12834" style="fill:#ffffff;fill-opacity:1;stroke:#000000;stroke-width:1;stroke-linecap:round;stroke-linejoin:bevel;marker:none;stroke-miterlimit:4;stroke-dasharray:none;stroke-opacity:1;visibility:visible;display:inline;overflow:visible;enable-background:accumulate"/>
      <path d="M 72.168297,57.008277 C 77.168297,52.008277 78.918297,53.768207 78.918297,57.008277 C 78.918297,60.557827 77.168297,62.008277 72.168297,57.008277" id="path12836" style="fill:#ffffff;fill-opacity:1;stroke:#000000;stroke-width:1;stroke-linecap:round;stroke-linejoin:bevel;marker:none;stroke-miterlimit:4;stroke-dasharray:none;stroke-opacity:1;visibility:visible;display:inline;overflow:visible;enable-background:accumulate"/>
      <path d="M 208.15625,196.65625 C 208.15625,197.93341 207.12091,198.96875 205.84375,198.96875 C 204.56659,198.96875 203.53125,197.93341 203.53125,196.65625 C 203.53125,195.37909 204.56659,194.34375 205.84375,194.34375 C 207.12091,194.34375 208.15625,195.37909 208.15625,196.65625 L 208.15625,196.65625 z" transform="translate(-133.67545,-139.55422)" id="path12838" style="fill:#000000;fill-opacity:1;stroke:none;stroke-width:1;stroke-linecap:round;stroke-linejoin:bevel;marker:none;stroke-miterlimit:4;stroke-dasharray:none;stroke-opacity:1;visibility:visible;display:inline;overflow:visible;enable-background:accumulate"/>
    </g>
    <rect width="179.54704" height="295.17291" x="173.66934" y="-247.65436" id="rect12497" style="fill:none;fill-opacity:1;stroke:#ffffff;stroke-width:6.54442215;stroke-linecap:square;stroke-linejoin:miter;marker:none;stroke-miterlimit:4;stroke-dasharray:none;stroke-opacity:1;visibility:visible;display:inline;overflow:visible;enable-background:accumulate"/>
    <path d="M 26.75,-393.5 C 26.75,-393.5 26.75,-145.21301 26.75,-30.489218 C 26.75,149.79103 190.08334,196.5 271.75,196.5 C 353.41667,196.5 516.75,149.79103 516.75,-30.489218 C 516.75,-145.21301 516.75,-393.5 516.75,-393.5 L 26.75,-393.5 z" id="path2518" style="fill:none;fill-opacity:1;stroke:#000000;stroke-width:10;stroke-linecap:square;stroke-linejoin:miter;marker:none;stroke-miterlimit:4;stroke-dasharray:none;stroke-opacity:1;visibility:visible;display:inline;overflow:visible;enable-background:accumulate"/>
  </g>
</svg>