<?xml version="1.0" encoding="UTF-8"?>
<!-- Generator: Adobe Illustrator 16.0.3, SVG Export Plug-In . SVG Version: 6.00 Build 0)  -->
<!DOCTYPE svg PUBLIC "-//W3C//DTD SVG 1.1//EN" "http://www.w3.org/Graphics/SVG/1.1/DTD/svg11.dtd">
<svg version="1.1" id="COA_Leipzig" xmlns="http://www.w3.org/2000/svg" xmlns:xlink="http://www.w3.org/1999/xlink" x="0px" y="0px" width="610px" height="688px" viewBox="0 0 610 688" enable-background="new 0 0 610 688" xml:space="preserve">
<path d="M5,5v379.307C5,549.271,139.314,683,305,683c165.686,0,300-133.729,300-298.693V5H5z"/>
<path fill="#FFD600" d="M12.084,12.051v372.256c0,161.064,131.145,291.642,292.916,291.642  c161.773,0,292.916-130.576,292.916-291.642V12.051H12.084z"/>
<line fill="none" stroke="#000000" stroke-width="7" stroke-miterlimit="10" x1="305" y1="7" x2="305" y2="681"/>
<path fill="#E2001A" d="M52.241,68.638c3.938-4.274,8.079-6.226,14.209-5.836c-4.579-7.822-8.723-10.403-12.839-11.563  c-3.658-1.031-8.533-1.421-10.017-1.04C45.55,54.362,50.225,64.334,52.241,68.638z"/>
<path fill="#E2001A" d="M108.447,54.186c-0.151,6.243-1.73,15.627-5.558,23.361c5.405,1.271,8.631,3,12.044,8.616  c4.084-11.974,3.703-16.57-1.011-24.36C112.525,59.498,110.715,56.987,108.447,54.186z"/>
<path fill="#E2001A" d="M40.513,103.375c-12.703,0.413-17.35,3.812-19.978,8.572c-1.368,2.484-3.382,7.017-4.425,12.952  c6.419-4.236,9.58-5.593,14.137-5.842c3.785-0.211,5.06-0.126,6.557,0.305C37.012,116.225,37.332,109.141,40.513,103.375z"/>
<path fill="#E2001A" d="M47.926,153.192c4.248,6.504,5.429,7.008,12.349,9.527c-4.011,3.234-7.632,5.722-10.764,7.011  c-8.385,3.442-11.757,2.956-20.42-1.474C40.534,162.599,40.915,160.915,47.926,153.192z"/>
<path fill="#E2001A" d="M45.142,278.925c-15.526-0.882-21.284,7.808-23.461,19.371c7.849-4.611,10.948-4.904,13.714-5.127  c3.032-0.246,6.964-0.085,9.438,0.214C41.978,285.781,42.611,284.708,45.142,278.925z"/>
<path fill="#E2001A" d="M39.582,327.201c1.26,5.968,1.733,7.857,7.412,12.604c-10.315,7.787-13.236,14.208-16.683,21.835  c-1.711-3.533-2.769-6.779-3.636-10.582C25.598,346.332,26.8,335.814,39.582,327.201z"/>
<path fill="#E2001A" d="M70.159,351.18c6.261-0.296,9.674-0.337,15.126,6.149c-0.52,10.096-1.277,10.896,5.256,21.521  C76.502,376.455,67.859,368.1,70.159,351.18z"/>
<path fill="#E2001A" d="M118.947,340.115c2.673-6.776,3.35-8.417,10.809-11.373c5.063,14.713,3.082,25.333-11.433,35.355  C122,350.591,120.145,345.283,118.947,340.115z"/>
<path fill="#E2001A" d="M71.697,440.032c1.781-4.564,5.228-8.279,10.16-10.169c-8.918-5.947-16.729-6.265-22.102-4.122  c-4.966,1.978-9.806,5.728-12.142,8.142C62.219,433.991,68.955,438.207,71.697,440.032z"/>
<path fill="#E2001A" d="M66.45,473.237c1.462,7.825,2.694,8.927,5.861,13.525c-8.804,6.984-9.98,6.864-18.835,18.448  c-2.231-10.737-0.806-18.448,1.015-21.363C57.002,479.834,61.302,476.495,66.45,473.237z"/>
<path fill="#E2001A" d="M94.862,511.666c6.319,1.986,12.013,2.836,16.986,3.079c-0.706,10.336,0.401,14.616,5.558,26.133  c-6.989-2.068-11.079-3.987-14.754-6.606C98.556,531.347,94.159,523.252,94.862,511.666z"/>
<path fill="#E2001A" d="M143.964,502.449c3.041-3.785,6.331-6.807,12.97-9.841c7.063,11.725,5.358,17.94,4.315,22.137  c-1.046,4.195-4.758,10.286-7.724,13.526C152.527,519.781,152.108,513.022,143.964,502.449z"/>
<path fill="#E2001A" d="M176.694,559.938c0.164-4.474,1.081-7.619,2.465-12.605c-9.161-0.208-14.843,1.207-19.74,6.073  c-2.846,2.827-6.404,7.603-7.743,10.219C163.355,559.373,166.106,559.118,176.694,559.938z"/>
<path fill="#E2001A" d="M188.425,603.286c6.65,5.865,7.409,6.463,17.912,7.992c-5.886,9.302-4.749,14.341,0.311,25.213  c-6.986-3-13.913-7.031-16.38-11.975C187.792,619.56,186.441,614.471,188.425,603.286z"/>
<path fill="#E2001A" d="M228.265,617.741c7.755,1.219,10.957,0.741,16.983-1.23c-0.671,12.678,2.278,17.212,8.335,26.751  C236.184,642.16,230.114,633.3,228.265,617.741z"/>
<path fill="#E2001A" d="M269.77,589.912c3.984-4.301,5.818-10.011,6.668-17.364c16.021,11.194,16.021,22.216,8.338,37.506  C280.651,593.439,271.932,590.773,269.77,589.912z"/>
<path fill="#E2001A" d="M222.084,117.833c-5.083-2.722-11.297-3.979-17.909-4.31c-6.524-0.325-12.706,0.431-28.614,3.686  c-6.311,1.289-21.853,4.494-31.034-4.576c-7.395-7.301-5.896-16.623-5.206-22.471c3.681,5.048,11.581,12.782,24.407,16.931  c8.956,2.895,14.631,2.057,21.129,0.68c17.26-3.662,32.039-3.161,43.403,1.151C226.742,111.095,223.915,115.17,222.084,117.833z"/>
<path d="M185.788,409.783c-7.608,0.898-10.38,6.454-8.546,10.793c2.016,4.771,3.979,5.704,5.294,7.843  c3.879,6.316,2.984,7.579,1.966,9.917c-1.866,4.283-18.229,18.598-24.807,22.494c-2.738,1.62-4.159,4.834-8.826,4.046  c-1.27-0.214-1.645-0.568-2.269-2.259c-0.964-2.619-2.927-5.021-6.68-3.722c-4.816,1.667-8.93,6.987-5.367,12.501  c2.481,3.842,8.563,6.089,14.065,8.67c5.643,2.647,6.003,8.24,6.727,10.143c0.469,1.233,0.442,3.261-1.767,4.263  c-1.762,0.804-2.786,0.34-4.5,1.898c-1.904,1.729-4.141,3.68-6.104,6.58c-1.017,1.503-4.424,2.452-6.322,2.262  c-2.779-0.275-4.569-1.652-5.943-4.061c-2.127-3.722-0.697-5.479-2.206-9.167c-2.66-6.501-7.386-5.399-9.987-0.196  c-1.5,3.003-1.849,4.354-1.818,7.535c0.031,3.217,0.709,6.58,1.104,9.513c0.606,4.5-3.029,6.639-7.031,6.521  c-7.796-0.227-14.814-1.611-18.044-2.997c-1.692-0.728-4.916-2.241-2.83-8.477c0.999-2.985,1.762-2.483,3.851-6.22  c2.745-4.922,7.695-11.777,9.296-15.284c1.134-2.484-1.175-3.114-4.62-2.332c-2.127,0.48-5.382,1.397-7.805,5.575  c-1.084,1.863-2.73,2.647-5.147,5.06c-3.85,3.838-9.003,3.36-13.301-0.539c-3.791-3.444-9.794-11.773-8.03-17.212  c0.797-2.464,6.173-6.595,12.472-6.536c5.777,0.06,9.366,0.12,11.887,0.007c0.979-0.045,5.971-0.375,7.399-2.339  c0.719-0.983-0.75-2.521-1.799-3.119c-2.76-1.576-5.335-3.353-6.384-4.188c-1.468-1.169-2.18-1.515-10.23-1.471  c-1.755,0.012-4.33-1.683-5.622-4.793c-0.775-1.863,1.822-5.02-1.313-6.958c-1.254-0.771-2.051-3.92-1.005-5.931  c1.881-3.614,3.819-5.694,7.081-7.626c1.972-1.169,3.226-2.048,6.056-1.821c4.597,0.375,8.115,3.438,11.719,8.165  c5.95,7.808,9.407,8.602,13.066,10.503c2.59,1.345,7.266,1.005,9.615-3.186c1.21-2.159,2.896-3.489,4.313-4.881  c1.699-1.67,2.341-3.117,5.531-5.071c4.954-3.034,3.495-5.93,3.267-6.888c-0.652-2.701-5.615-12.144-8.653-15.1  c-2.854-2.777-6.296-1.053-8.446-0.271c-2.367,0.861-3.211,0.202-4.368-2.142c-3.715-7.532-3.103-15.583,1.907-21.741  c5.42-6.662,10.951-12.949,25.479-19.04c7.8-3.267,21.208-3.331,27.892-2.678c15.832,1.553,31.351,9.696,55.771,19.78  c-4.245-10.125-11.329-27.822-26.868-39.963c3.527-1.041,5.934-1.649,9.58-2.461c-5.3-8.004-9.063-9.829-19.834-18.302  c-7.979-6.281-30.277-22.922-36.686-40.729c-1.213,1.57-6.067,5.435-8.446,7.72c-2.783,2.669-4.361,5.88-9.021,7.805  c-4.1,1.696-4.472,1.453-6.687-0.765c-1.644-1.644-7.717-2.133-9.05-1.119c-2.546,1.931-2.947,3.463-2.59,7.157  c0.387,3.993,2.877,7.989,3.996,9.334c2.001,2.399,5.218,3.097,8.019,5.534c2.112,1.84,4.315,2.859,5.256,5.528  c0.483,1.368,0.946,2.862,0.924,4.775c-0.883,0.428-7.084,1.869-8.865,7.368c-1.79,5.517-10.611,4.553-13.86-0.744  c-1.897-3.1-2.991-6.788-2.657-9.879c0.413-3.847-0.167-4.978,0.215-6.305c1.068-3.709-3.294-3.536-4.563-2.203  c-1.938,2.042-3.958,6.144-6.738,11.265c-1.31,2.417-1.44,3.665-1.355,4.84c0.407,5.648-0.571,6.568,0.208,10.592  c0.853,4.377,0.539,7.588-2.941,11.836c-1.562,1.903-4.28,2.108-6.454-0.082c-1.544-1.56-2.95-2.676-4.818-3.449  c-1.588-0.658-4.475-0.84-5.575-0.724c-1.263,0.132-3.668-0.286-4.802-2.604c-0.407-0.832-0.36-3.646,0.589-6.038  c1.093-2.751,2.861-4.828,4.389-7.31c1.582-2.566,2.921-4.813,3.199-5.487c0.589-1.436,2.357-2.338,2.467-4.31  c0.146-2.687-0.146-2.991-4.365-1.781c-2.256,0.647-4.947,1.849-6.813,3.75c-2.42,2.461-5.083,6.999-8.121,10.646  c-3.428,4.119-9.882,2.596-12.243,1.714c-4.022-1.506-8.115-6.879-8.733-14.648c-0.252-3.138,2.14-8.317,7.822-8.487  c2.896-0.088,3.398-0.185,4.79-0.565c8.754-2.405,9.343-5.03,15.466-8.101c1.963-0.987,3.87-1.884,5.288-5.168  c0.785-1.819-1.386-4.301-3.504-4.154c-2.936,0.199-3.448-1.093-6.765,0.182c-2.968,1.143-6.082,1.644-8.786,1.271  c-2.95-0.404-6.618-3.255-9.873-9.788c-3.214-6.448-1.081-13.066,2.429-13.45c3.791-0.413,7.146-0.703,10.816-1.011  c3.665-0.311,6.674,1.978,10.856,5.936c2.102,1.986,6.35,3.457,10.188,3.381c2.795-0.056,4.345,0.343,5.521,1.283  c1.277,1.017,4.166,3.258,6.842-0.363c7.813-10.582,30.359-43.289,46.931-51.035c-13.14-7.424-24.161-16.605-31.157-26.9  c-11.224-16.512-15.772-24.551-17.528-30.551c-1.748-5.985-1.506-6.688,3.287-7.726c2.317-0.507,3.804-2.016,2.011-5.646  c-1.354-2.739-5.055-4.134-6.637-6.349c-2.766-3.876-5.757-8.2-6.478-10.172c-1.664-4.535-5.774-2.499-7.104-0.923  c-3.671,4.356-2.401,4.658-3.935,7.107c-1.336,2.133-3.129,5.484-5.358,6.744c-3.624,2.039-5.801,1.764-7.276,1.005  c-2.644-1.359-10.09-5.338-9.687-11.754c0.299-4.793,3.771-8.32,8.654-8.912c4.128-0.501,8.613-5.651,12.662-9.838  c2.76-2.859,3.548-7.143-4.989-7.69c-4.938-0.316-12.313,3.07-14.086,3.891c-1.313,0.606-8.514,3.563-10.822-2.786  c-3.396-9.34-1.468-17.936-0.378-20.168c1.5-3.059,2.628-3.85,4.898-3.656c4.796,0.41,7.689,2.991,11.426,5.186  c1.257,0.738,4.928,0.527,9.047,0.832c3.82,0.281,3.592-0.618,4.125-2.622c0.533-1.992-1.248-5.971-3.63-8.704  c-3.574-4.096-6.63-5.057-11.156-9.202c-1.251-1.148-3.466-5.66-2.306-8.754c1.482-3.961-0.507-9.27,2.684-12.712  c2.052-2.215,8.646-6.085,13.724-4.321c3.369,1.169,6.311,4.072,7.875,7.635c2.704,6.152,0.372,12.586,1.304,16.951  c0.864,4.061,4.532,9.34,5.432,12.012c0.363,1.087,3.463,4.14,6.659,0.319c1.119-1.336,2.335-3.551,2.736-7.102  c0.425-3.75-0.841-5.136,1.229-8.607c0.92-1.544,4.573-4.468,7.727-5.83c2.918-1.26,8.01-1.166,11.077,1.075  c5.303,3.876,6.381,8.631,5.288,13.052c-0.946,3.823-7.693,10.963-9.58,11.994c-1.567,0.858-3.079,0.612-4.938,1.541  c-2.473,1.532-4.685,5.481-6.762,9.519c-1.563,3.041-1.084,9.718,3.155,13.503c28.395,25.374,32.174,33.838,36.302,40.154  c3.955,6.05,1.515,4.614,8.988,13.072c4.925-3.357,5.432-6.568,8.023-10.151c2.593-3.577,12.035-10.365,21.618-13.213  c9.492-2.821,25.945-6.63,43.219-16.055c1.768-0.964,2.924-6.067-0.983-6.765c-4.258-0.759-17.537,0.372-19.806,0.545  c-4.096,0.308-4.604-2.048-5.227-3.747c-1.295-3.533-1.204-8.399-2.364-16.89c1.512-0.281,2.455-0.48,4.321-0.656  c0.331,5.323,2.886,8.818,5.855,11.279c2.742,2.273,18.47,0.718,26.505,0.94c2.427,0.067,3.659-1.45,3.574-3.091  c-0.164-3.158-2.619-4.049-5.684-5.534c2.054-2.997,4.336-6.287,6.176-8.909c2.065,0.729,3.879,1.825,4.175-1.336  c0.252-2.684-0.39-7.477-3.519-11.291c-3.229-3.94-9.139-4.515-17.566-4.928c-9.823-0.48-13.872,3.633-16.317,6.984  c-1.056,1.444-0.88,2.522-1.192,3.738c-0.366,1.433-3.589,1.427-3.926-0.741c-0.217-1.386-0.501-3.199-0.429-4.693  c0.045-0.914-1.046-4.339-2.221-6.059c-1.6-2.335-3.164-2.209-4.913-4.383c-0.929-1.154-2.203-3.826-3.413-5.651  c-0.526-0.794-0.507-2.394-0.4-3.618c0.677-7.781,2.575-9.724,3.633-15.439c0.349-1.884,2.262-2.968,3.926-3.053  c2.912-0.149,6.369-0.354,8.505,0.352c3.385,1.119,7.812,0.363,10.195-2.76c0.976-1.277,2.801-4.494,8.083-6.325  c10.447-3.615,25.837,0.82,34.723,4.318c3.463,1.365,9.773,0.973,20.887-1.737c8.048-1.963,9.983,0.448,10.582,2.783  c1.137,4.462-1.854,12.082-4.8,16.022c1.998,3.753,7.878,12.563,8.335,25.512c1.397,39.65-15.724,54.932-16.058,81.785  c-2.654-1.585-3.899-2.332-6.176-3.688c-8.88,11.473-12.804,35.212-14.206,47.039c-3.067-2.177-4.96-3.653-7.604-5.695  c-1.811-1.397-3.072-0.812-3.762,2.247c-2.074,9.234-3.422,30.1-2.221,47.725c-2.9-0.97-5.701-1.922-8.646-2.766  c4.661,30.732,16.333,56.276,20.692,70.093c6.063,19.205,10.702,37.093,9.07,59.648c-0.974,13.453,2.615,22.749,15.469,21.668  c6.233-0.523,12.686-5.687,9.929-24.561c-3.337-22.83-18.296-49.549-26.745-76.122c-8.637-27.176-8.036-51.618-3.4-67.646  c5.199-17.965,19.619-34.339,23.271-43.67c2.877-7.354,4.89-12.082,3.287-23.048c7.482,1.96,10.418,5.839,11.648,10.761  c1.717,6.882-0.246,14.763-4.425,25.471c-7.269,18.627-19.603,28.641-22.865,44.435c-3.312,16.008-2.43,19.661-1.346,27.258  c0.126,0.87,1.538,2.18,2.628,3.132c0.422-7.477,0.804-10.242,4.21-18.161c4.327-10.052,11.096-17.314,15.794-26.101  c1.626-3.038,3.041-7.986,3.624-14.215c2.537,2.323,8.146,7.066,7.475,16.011c-0.677,9.062-3.788,18.677-10.368,26.968  c-8.886,11.191-11.228,21.205-11.763,28.453c-0.476,6.407-0.385,15.803-0.152,19.734c0.138,2.361,2.599,2.218,2.821-0.059  c0.967-9.92,11.149-19.869,10.755-33.003c9.252,5.953,8.719,11.438,8.083,19.597c-0.794,10.16-6.498,14.024-8.007,21.7  c-1.642,8.358-3.218,25.058,3.151,39.073c6.76,14.881,7.939,30.788,1.059,43.904c-8.001,15.246-26.042,13.945-32.058,8.338  c-2.341-2.183-3.627-2.101-4.049,1.222c-2.382,18.848-6.683,25.271-9.255,43.872c-1.134,8.181,6.87,11.698,10.802,11.685  c17.323-0.057,18.633,10.187,18.231,14.168c-1.601,15.914-1.626,23.391-8.713,46.075c-0.841,2.691-0.545,4.049-0.476,4.342  c0.688,2.771-2.461,3.387-4.238,2.439c-1.189-0.633-3.026-1.619-4.699-2.546c-1.796-0.993-2.938-0.86-4.188,0.706  c-1.941,2.436-5.587,7.087-6.104,14.314c-0.287,4.04,3.378,5.646,4.761,6.103c3.015,0.99,11.276,0.217,14.118,0.114  c9.296-0.352,13.774,2.033,15.094,5.599c2.203,5.953-3.964,18.17-7.106,19.667c-2.616,1.245-5.903,2.188-10.195,0.618  c-2.915-1.063-7.075-5.653-9.565-9.22c-2.489-3.568-4.421-3.694-5.563-0.964c-0.636,1.518-0.908,2.467-0.841,3.504  c0.246,3.715-1.242,3.873-1.009,6.68c0.152,1.816,0.65,2.953,3.703,6.769c3.079,3.844,4.254,6.703,4.472,8.637  c0.277,2.508,0.29,7.857-3.016,10.421c-2.089,1.62-17.663,3.577-22.354,0.606c-2.452-1.551-2.402-5.754-2.25-9.041  c0.173-3.668,3.018-7.131,3.768-12.196c0.517-3.489,0.539-6.293,0.076-9.823c-0.413-3.154-1.172-4.191-3.311-2.924  c-1.16,0.688-1.816,2.102-3.42,3.12c-2.637,1.682-4.271,3.671-5.048,6.721c-0.627,2.455,0.896,5.672-0.006,7.431  c-1.717,3.346-1.271,3.841-1.752,4.972c-1.521,3.567-3.577,5.865-6.806,5.813c-0.826-0.015-1.365,0.817-6.217-0.23  c-6.398-1.383-10.447-3.964-11.569-5.511c-1.523-2.102-5.133-7.251-1.447-13.264c2.886-4.714,10.11-7.717,12.255-8.565  c2.383-0.94,4.182-1.554,5.979-3.227c1.191-1.106,2.528-3.161,4.052-4.266c1.979-1.438,3.149-5.092-3.813-5.64  c-3.823-0.303-11.632,0.104-17.229,2.628c-2.313,1.043-4.649,0.563-8.268-2.994c-2.49-2.449-4.16-5.698-4.721-9.211  c-0.428-2.669,0.085-10.062,0.899-11.854c1.034-2.285,1.02-2.613,3.356-2.71c4.595-0.193,14.676-0.753,21.854,4.837  c1.415,1.103,1.846,1.207,3.645,1.56c4.359,0.847,10.179,1.087,13.179,0.573c2.439-0.419,2.599-0.573,2.968-2.707  c1.151-6.639,5.883-20.744,9.334-31.626c0.964-3.038-1.188-5.243-4.14-6.812c-1.771-0.943-12.943-2.748-18.732,2.771  c-1.998,1.904-3.413,4.1-3.36,5.438c0.167,4.324-4.26,2.938-5.067,2.218c-1.642-1.465-5.471-4.526-8.944-14.521  c-4.245-12.215-3.082-31.119,2.886-44.704c8.893-20.238,20.235-33.589,23.061-41.348c2.149-5.905,2.593-6.557-1.1-8.435  C209.846,411.233,191.498,409.106,185.788,409.783z"/>
<path fill="#FFD600" d="M224.422,76.419c12.103,0,18.976-10.512,20.827-14.238c-3.665,0-11.89,0-15.132,0  c0.037,2.341-0.167,6.943-5.02,6.932c-5.821-0.015-5.188-5.467-5.177-8.165c-1.872-0.07-6-0.231-8.033-0.311  C211.888,70.988,218.181,76.419,224.422,76.419z"/>
<path fill="#005EA8" d="M363.581,670.106c20.38-4.119,39.981-10.356,58.582-18.448V12.051h-58.582V670.106z"/>
<path fill="#005EA8" d="M480.745,617.635c22.185-16.591,41.921-36.24,58.582-58.324V12.051h-58.582V617.635z"/>
</svg>