<?xml version="1.0" encoding="UTF-8" standalone="no"?>
<!-- Created with Inkscape (http://www.inkscape.org/) -->
<svg id="svg2" xmlns="http://www.w3.org/2000/svg" xml:space="preserve" width="100%" version="1.1" height="100%" viewBox="0 0 617.5 680"><defs id="defs5"><clipPath id="clipPath17"><path id="path19" d="m0 0.89h595v841h-595v-841z"/></clipPath><clipPath id="clipPath53"><path id="path55" d="m124.72 716.19h51.72v54.83h-51.72v-54.83z"/></clipPath></defs><g id="g11" transform="matrix(1.25 0 0 -1.25 -792.36 680)"><g id="g13" transform="matrix(10.073 0 0 10.074 -628.55 -7222.7)"><g id="g15" clip-path="url(#clipPath17)"><path id="path21" d="m0 841.89z" fill="#fff"/></g></g><g id="g49" transform="matrix(10.234 0 0 10.235 -648.77 -7347)"><g id="g51" clip-path="url(#clipPath53)"><g id="g57" transform="translate(173.33 770.71)"><path id="path59" d="m0 0h-47.738v-30.569c0.393-12.29 10.888-22.05 23.822-22.05 12.956 0 23.557 9.881 23.916 22.2v30.419z" stroke="#000" stroke-miterlimit="3.864" stroke-width="0.531" fill="#da121a"/></g><g id="g101" transform="translate(164.89 753.46)"><path id="path103" d="m80.625 224v52.91h-14.313v16.65h16.782v240.28h121.57c0.65-129.89 103.15-183.59 103.15-183.59s102.55 53.7 103.19 183.59h121.59v-240.28h16.75v-16.65h-14.28l-0.28-52.91h-28.66-0.18-12.69v24h-27.47v-24h-38.69v24h-16.31-17.87l0.03-24h-37.19v24h-31.47v-24h-36.56v24h-32.06v-24h-36.6l-0.15 24h-17.53-16.35v-24h-38.65v24h-27.47v-24h-12.44-0.28-25.565z" transform="matrix(.078162 0 0 -.078162 -39.56 17.511)" stroke="#000" stroke-miterlimit="3.864" stroke-width="3.8766" fill="#fff"/></g><g id="g69" transform="translate(154.45 735.87)"><path id="path71" d="m0 0h-9.92v-6.38c0.081-2.565 2.262-4.602 4.95-4.602 2.692 0 4.896 2.062 4.97 4.633v6.349z" stroke="#000" stroke-miterlimit="3.864" stroke-width=".303" fill="#fcdd09"/></g><g id="g61" transform="translate(149.06 732.42)"><path id="path63" d="m0 0h0.895c0 1.071 0.877 1.954 1.958 1.954s1.958-0.868 1.958-1.94c0-1.071-0.877-1.94-1.958-1.94-0.484 0-0.884 0.089-1.225 0.377l-0.345-0.564c0.677-0.305 1.119-0.951 1.119-1.737 0-1.071-0.876-1.939-1.957-1.939s-1.958 0.868-1.958 1.939c0 0.785 0.471 1.461 1.147 1.767l-0.346 0.592c-0.339-0.277-0.774-0.443-1.247-0.443-1.081 0-1.958 0.868-1.958 1.94 0 1.071 0.877 1.94 1.958 1.94s1.959-0.875 1.959-1.946z" stroke="#000" stroke-miterlimit="3.864" stroke-width="0.202" fill="#078930"/></g><g id="g65" transform="translate(146.7 732.59)"><path id="path67" d="m0 0l2.814-0.897 2.967 0.904-2.592-1.493-0.375-2.68-0.323 2.68-2.491 1.486z" stroke="#000" stroke-miterlimit="3.864" stroke-width="0.202" fill="#fcdd09"/></g><g id="g73" transform="translate(132.72 765.87)"><path id="path75" d="m2.8883e-16 5.2736e-16v-3.157h0.911v-9.248h0.993v-1.876h2.146v1.876h3.023v-1.876h1.276v11.134h0.533v3.147l-1.857 5.2736e-16v-1.287h-1.687v1.287l-2.108 5.2736e-16v-1.287h-1.39v1.287l-1.84 5.2736e-16z" stroke="#000" stroke-miterlimit="3.864" stroke-width=".303" fill="#fff"/></g><g id="g77" transform="translate(133.62 762.71)"><path id="path79" d="m0 0l7.491 0.004" stroke="#000" stroke-miterlimit="3.864" stroke-width=".303" fill="none"/></g><g id="g81" transform="translate(137.29 760.71)"><path id="path83" d="m0 0v-5.205" stroke="#000" stroke-miterlimit="3.864" stroke-width=".303" fill="none"/></g><g id="g85" transform="translate(165.79 765.91)"><path id="path87" d="m4.2674e-16 -1.2559e-15v-3.157h-0.911v-9.286h-0.993v-1.876h-2.146v1.876h-3.024v-1.876h-1.275v11.172h-0.534v3.147l1.858-1.2559e-15v-1.288h1.687v1.288l2.108-1.2559e-15v-1.288h1.39v1.288l1.84-1.2559e-15z" stroke="#000" stroke-miterlimit="3.864" stroke-width=".303" fill="#fff"/></g><g id="g89" transform="translate(164.88 762.75)"><path id="path91" d="m0 0l-7.491 0.004" stroke="#000" stroke-miterlimit="3.864" stroke-width=".303" fill="none"/></g><g id="g93" transform="translate(161.22 760.75)"><path id="path95" d="m0 0v-5.205" stroke="#000" stroke-miterlimit="3.864" stroke-width=".303" fill="none"/></g><g id="g105" transform="translate(131.62 749.33)"><path id="path107" d="m0 0h11.618 23.874" stroke="#000" stroke-miterlimit="3.864" stroke-width=".303" fill="none"/></g><g id="g109" transform="translate(131.64 748.03)"><path id="path111" d="m0 0l11.621-0.045 23.88 0.045" stroke="#000" stroke-miterlimit="3.864" stroke-width=".303" fill="none"/></g><g id="g113" transform="translate(159.79 729.24)"><path id="path115" d="m0 0c-0.286 12.875-10.393 16.881-10.393 16.881s-10.593-5.723-9.922-16.881" stroke="#000" stroke-miterlimit="3.864" stroke-width="0.202" fill="none"/></g><g id="g117" transform="translate(139.47 745.41)"><path id="path119" d="m0 0c0 0.474 0.385 0.858 0.858 0.858 0.474 0 0.859-0.384 0.859-0.858s-0.385-0.859-0.859-0.859c-0.473 0-0.858 0.385-0.858 0.859"/></g><g id="g121" transform="translate(139.47 745.41)"><path id="path123" d="m0 0c0 0.474 0.385 0.858 0.858 0.858 0.474 0 0.859-0.384 0.859-0.858s-0.385-0.859-0.859-0.859c-0.473 0-0.858 0.385-0.858 0.859z" stroke="#000" stroke-miterlimit="3.864" stroke-width=".303"/></g><g id="g125" transform="translate(157.26 745.55)"><path id="path127" d="m0 0c0 0.474 0.384 0.858 0.858 0.858s0.859-0.384 0.859-0.858-0.385-0.858-0.859-0.858-0.858 0.384-0.858 0.858"/></g><g id="g129" transform="translate(157.26 745.55)"><path id="path131" d="m0 0c0 0.474 0.384 0.858 0.858 0.858s0.859-0.384 0.859-0.858-0.385-0.858-0.859-0.858-0.858 0.384-0.858 0.858z" stroke="#000" stroke-miterlimit="3.864" stroke-width=".303"/></g><g id="g133" transform="translate(146.36 741.06)"><path id="path135" d="m0 0l-0.012-2.649c0-0.403-0.604-0.403-0.604 0l-0.01 2.101c0 0.403 0.626 0.95 0.626 0.548"/></g><g id="g137" transform="translate(146.36 741.06)"><path id="path139" d="m0 0l-0.012-2.649c0-0.403-0.604-0.403-0.604 0l-0.01 2.101c0 0.403 0.626 0.95 0.626 0.548z" stroke="#000" stroke-miterlimit="3.864" stroke-width=".027" fill="none"/></g><g id="g141" transform="translate(147.98 742.48)"><path id="path143" d="m0 0l0.01-4.048c0-0.403-0.603-0.403-0.603 0v3.59c0 0.402 0.593 0.861 0.593 0.458"/></g><g id="g145" transform="translate(147.98 742.48)"><path id="path147" d="m0 0l0.01-4.048c0-0.403-0.603-0.403-0.603 0v3.59c0 0.402 0.593 0.861 0.593 0.458z" stroke="#000" stroke-miterlimit="3.864" stroke-width=".027" fill="none"/></g><g id="g149" transform="translate(149.67 743.34)"><path id="path151" d="m0 0l-0.001-4.932c0-0.403-0.603-0.403-0.603 0v4.932c0 0.403 0.604 0.402 0.604 0"/></g><g id="g153" transform="translate(149.67 743.34)"><path id="path155" d="m0 0l-0.001-4.932c0-0.403-0.603-0.403-0.603 0v4.932c0 0.403 0.604 0.402 0.604 0z" stroke="#000" stroke-miterlimit="3.864" stroke-width=".027" fill="none"/></g><g id="g157" transform="translate(151.29 742.03)"><path id="path159" d="m0 0l-0.021-3.618c0-0.403-0.604-0.403-0.604 0l-0.001 4.234c0 0.403 0.626-0.214 0.626-0.616"/></g><g id="g161" transform="translate(151.29 742.03)"><path id="path163" d="m0 0l-0.021-3.618c0-0.403-0.604-0.403-0.604 0l-0.001 4.234c0 0.403 0.626-0.214 0.626-0.616z" stroke="#000" stroke-miterlimit="3.864" stroke-width=".027" fill="none"/></g><g id="g165" transform="translate(152.69 740.85)"><path id="path167" d="m0 0l-0.001-2.434c0-0.402-0.603-0.402-0.603 0l-0.008 3.016c0 0.403 0.612-0.179 0.612-0.582"/></g><g id="g169" transform="translate(152.69 740.85)"><path id="path171" d="m0 0l-0.001-2.434c0-0.402-0.603-0.402-0.603 0l-0.008 3.016c0 0.403 0.612-0.179 0.612-0.582z" stroke="#000" stroke-miterlimit="3.864" stroke-width=".027" fill="none"/></g><g id="g173" transform="translate(144.41 739)"><path id="path175" d="m0 0h9.963" stroke="#000" stroke-miterlimit="3.864" stroke-width="0.531" fill="none"/></g><g id="g177" transform="translate(155.77 753.53)"><path id="path179" d="m349.56 77.219s0.45 6.408-5 8.75c-6.84 2.942-20.62 1.528-24.12 9.281-3.51 7.75-0.24 15.88 8.72 19.37 10.56 4.12 41.08-2.79 47.46-2.56 7.58 0 9.81 5 9.19 9.16-0.97 4.39-4.03 5.86-12.09 6.34-4.94 0.23-30.95-2.44-34.1-2.34-3.13 0.09-20.94-3.75-38.42-0.22 0 0-23.38 38.4-48.9 46 0 3.53 1.76 37 1.76 37s-12.26-0.09-14 14h29.28s7.1-43.99 15.6-48.38c-2.48 1.88-5.96 8.92-6.94 12.38 23.42-4.62 47.99-14.95 54-22.53 2.24 11.78 4.17 27.95 39.09 29.72 1.76 8.29 4.49 15.24 5.22 17.09-5.24-1.76-17.96-3.62-15.19 11.72h27.88l0.41-40.44c-6.98-3.18-16.16-7.05-19.19-15.31-2.18-5.9 0-15.08 2.9-23.16 13.41-5.43 26.11-11.4 23.97-25.37-0.71-4.68-2.87-7.54-6.12-10.38-3.12-2.73-5.41-3.59-11.41-4.09-14.86-1.27-36.59 6.05-40.84 2.66-2.59-2.08-1.62-6.344 0.94-7.316 3.9-1.868 14.66-0.334 19.4-5.656 7.28-8.163-1.37-14.427-9.5-15.719z" transform="matrix(.078162 0 0 -.078162 -30.438 17.444)" stroke="#000" stroke-linecap="round" stroke-miterlimit="3.864" stroke-width="3.7103" fill="#fcdd09"/></g><g id="g185" transform="translate(148.87 761.18)"><path id="path187" d="m266.78 70.219c-1.73 0.062-3.99 0.939-6.84 3.031-7.64-2.648-18.1-4.424-21.6 2.625-3.49 1.766-19.24-1.755-15.75 8.813 0 5.283-0.26 5.368 3.5 10.562l2.16 5.59c-1.06 0.49-2.88 1.7-3.63 4.6-1.07 4.18-0.19 6.48 1.47 7.44 1.52 0 2.65-0.87 6.66-0.35l1.78 4.63c-0.4 3.08-1.1 5.33-1.44 6.28-1.74 7.03-6.98 31.71 19.22 47.56 25.53-7.6 48.88-46 48.88-46s-17.97-32.24-31.44-43.844c2.62-3.963 2.22-11.125-2.97-10.937zm-35.69 24.843c1.79 0.001 3.22 1.447 3.22 3.25 0 1.808-1.43 3.248-3.22 3.248s-3.25-1.44-3.25-3.248c0-1.803 1.46-3.25 3.25-3.25z" transform="matrix(.078162 0 0 -.078162 -23.543 9.7858)" stroke="#000" stroke-linecap="round" stroke-miterlimit="3.864" stroke-width="3.7103" fill="#fcdd09"/></g><g id="g189" transform="translate(143.14 763.29)"><path id="path191" d="m0 0c0 0.141 0.113 0.255 0.253 0.255s0.253-0.114 0.253-0.255-0.113-0.255-0.253-0.255-0.253 0.114-0.253 0.255z" stroke="#000" stroke-linecap="round" stroke-miterlimit="3.864" stroke-width="0.29" fill="#da121a"/></g><g id="g197" transform="translate(144.6 764.56)"><path id="path199" d="m0 0c0 0.114 0.091 0.206 0.205 0.206 0.113 0 0.205-0.092 0.205-0.206s-0.092-0.207-0.205-0.207c-0.114 0-0.205 0.093-0.205 0.207"/></g><g id="g201" transform="translate(144.6 764.56)"><path id="path203" d="m0 0c0 0.114 0.091 0.206 0.205 0.206 0.113 0 0.205-0.092 0.205-0.206s-0.092-0.207-0.205-0.207c-0.114 0-0.205 0.093-0.205 0.207z" stroke="#000" stroke-linecap="round" stroke-miterlimit="3.864" stroke-width="0.29" fill="none"/></g><g id="g205" transform="translate(148.05 762.52)"><path id="path207" d="m0 0s-0.036-2.749-4.366-3.34" stroke="#000" stroke-linecap="round" stroke-miterlimit="3.864" stroke-width="0.151" fill="none"/></g><g id="g209" transform="translate(143.45 760.85)"><path id="path211" d="m0 0s3.373 0 4.034 2.49" stroke="#000" stroke-linecap="round" stroke-miterlimit="3.864" stroke-width="0.151" fill="none"/></g><g id="g213" transform="translate(143.68 762.15)"><path id="path215" d="m0 0s1.775 0 2.789 1.316" stroke="#000" stroke-linecap="round" stroke-miterlimit="3.864" stroke-width="0.151" fill="none"/></g><g id="g217" transform="translate(144.93 762.38)"><path id="path219" d="m0 0s-1.421-1.611 1.022-4.401" stroke="#000" stroke-linecap="round" stroke-miterlimit="3.864" stroke-width="0.151" fill="none"/></g><g id="g221" transform="translate(145.68 762.74)"><path id="path223" d="m0 0s-0.763-1.968 1.508-3.683" stroke="#000" stroke-linecap="round" stroke-miterlimit="3.864" stroke-width="0.151" fill="none"/></g><g id="g225" transform="translate(146.28 763.25)"><path id="path227" d="m0 0s0.085-2.12 1.918-3.012" stroke="#000" stroke-linecap="round" stroke-miterlimit="3.864" stroke-width="0.151" fill="none"/></g><g id="g229" transform="translate(144.54 763.61)"><path id="path231" d="m0 0c0.14-0.421 0.282-1.309-0.315-1.479-0.097-0.027-0.138 0.119-0.041 0.146 0.473 0.135 0.328 0.937 0.213 1.285-0.032 0.096 0.111 0.144 0.143 0.048"/></g></g></g><path id="path4606" d="m816.15 465.35c0 1.44 1.16 2.61 2.59 2.61s2.59-1.17 2.59-2.61-1.16-2.61-2.59-2.61-2.59 1.17-2.59 2.61z" stroke="#000" stroke-linecap="round" stroke-miterlimit="3.864" stroke-width="2.9681" fill="#da121a"/></g></svg>