<?xml version="1.0" encoding="UTF-8" standalone="no"?>
<svg inkscape:version="1.1.1 (3bf5ae0d25, 2021-09-20)" sodipodi:docname="CoA Wiesbaden.svg" id="svg2130" version="1.1" viewBox="0 0 409.44945 476.97351" height="476.97351" width="409.44946" xmlns:inkscape="http://www.inkscape.org/namespaces/inkscape" xmlns:sodipodi="http://sodipodi.sourceforge.net/DTD/sodipodi-0.dtd" xmlns:xlink="http://www.w3.org/1999/xlink" xmlns="http://www.w3.org/2000/svg" xmlns:svg="http://www.w3.org/2000/svg">
  <defs id="defs2124">
    <inkscape:path-effect effect="skeletal" id="path-effect14370" is_visible="true" lpeversion="1" pattern="M 0,18.867924 C 0,8.4528299 8.4528299,0 18.867924,0 c 10.415094,0 18.867924,8.4528299 18.867924,18.867924 0,10.415094 -8.45283,18.867924 -18.867924,18.867924 C 8.4528299,37.735848 0,29.283018 0,18.867924 Z" copytype="single_stretched" prop_scale="0.04" scale_y_rel="false" spacing="0" normal_offset="0" tang_offset="0" prop_units="false" vertical_pattern="false" hide_knot="false" fuse_tolerance="0"/>
    <inkscape:path-effect effect="skeletal" id="path-effect13038" is_visible="true" lpeversion="1" pattern="M 0,18.867924 C 0,8.4528299 8.4528299,0 18.867924,0 c 10.415094,0 18.867924,8.4528299 18.867924,18.867924 0,10.415094 -8.45283,18.867924 -18.867924,18.867924 C 8.4528299,37.735848 0,29.283018 0,18.867924 Z" copytype="single_stretched" prop_scale="0.05" scale_y_rel="false" spacing="0" normal_offset="0" tang_offset="0" prop_units="false" vertical_pattern="false" hide_knot="false" fuse_tolerance="0"/>
  </defs>
  <sodipodi:namedview inkscape:pagecheckerboard="false" fit-margin-bottom="5" fit-margin-right="5" fit-margin-left="5" fit-margin-top="5" lock-margins="true" units="px" inkscape:snap-smooth-nodes="true" inkscape:snap-object-midpoints="true" inkscape:window-maximized="1" inkscape:window-y="-11" inkscape:window-x="-11" inkscape:window-height="1506" inkscape:window-width="2560" showgrid="false" inkscape:document-rotation="0" inkscape:current-layer="layer1" inkscape:document-units="px" inkscape:cy="238.66667" inkscape:cx="205.33333" inkscape:zoom="1.5" inkscape:pageshadow="2" inkscape:pageopacity="0" borderopacity="1.0" bordercolor="#666666" pagecolor="#333333" id="base" showguides="false" inkscape:guide-bbox="true" inkscape:snap-intersection-paths="true" inkscape:object-paths="true" inkscape:snap-grids="false" inkscape:snap-global="false" inkscape:lockguides="false" guidecolor="#00ffff" guideopacity="0.49803922" inkscape:snap-midpoints="true" inkscape:snap-to-guides="true"/>
  <g id="layer1" inkscape:groupmode="layer" inkscape:label="wiesbaden" transform="translate(-96.26704,-39.197641)">
    <g id="g15851" inkscape:label="coa">
      <path style="display:inline;opacity:1;fill:#0f47af;stroke:#000000;stroke-width:4;stroke-linecap:butt;stroke-linejoin:miter;stroke-miterlimit:4;stroke-dasharray:none" d="M 103.26704,46.197641 V 162.63455 c 0,166.43914 93.57537,288.16542 197.72473,346.24663 C 405.14112,450.79997 498.71649,329.07369 498.71649,162.63455 V 46.197641 Z" id="path901" sodipodi:nodetypes="cscscc" inkscape:label="coa-0"/>
      <g id="g15832" inkscape:label="lis">
        <g id="g15452" inkscape:label="lis-l" inkscape:tile-cx="387.416" inkscape:tile-cy="173.00545" inkscape:tile-w="123.75111" inkscape:tile-h="183.94784" inkscape:tile-x0="325.54044" inkscape:tile-y0="81.031533">
          <g id="g10123" inkscape:label="lis-lp">
            <g id="g14520" inkscape:label="lis-pr">
              <path style="opacity:1;fill:#fcdd09;stroke:#000000;stroke-width:1.75;stroke-linecap:butt;stroke-linejoin:round;stroke-miterlimit:4;stroke-dasharray:none" d="m 343,129.83333 c -17.66735,0 -22.25236,33.1975 -8.69584,50.5842 0.8458,1.08476 2.05369,0.86616 2.78798,-0.29612 9.1015,-14.40642 35.31261,-7.70446 35.31261,12.62858 0,13.1375 -6.13074,27.49822 -31.46968,19.9423 -1.00762,-0.30047 -2.17015,0.35092 -2.45615,1.36234 -3.21533,11.37093 3.77994,24.73413 14.85441,23.11204 6.05355,-0.88667 26.91851,-8.99331 25.69329,-44.41668 C 378.1855,168.43155 363.48324,129.83333 343,129.83333 Z" id="path3654" sodipodi:nodetypes="sssssssss" inkscape:label="lis-pr0"/>
              <path style="opacity:1;fill:#000000;stroke:none;stroke-width:1.75;stroke-linecap:butt;stroke-linejoin:round;stroke-miterlimit:4;stroke-dasharray:none" d="m 338.46845,156.85985 c -0.0976,-0.0625 0.61302,-2.33258 3.96443,-3.76797 1.48388,-0.62765 3.36609,-0.9034 5.53548,-0.58579 4.14469,0.60742 8.30128,2.80258 12.65235,6.64082 4.16428,3.64941 8.03888,8.45755 11.0759,14.40061 1.97659,3.86167 3.54759,8.1671 4.4128,12.759 0.40466,2.14764 0.64241,4.2925 0.71147,6.41837 0.35834,11.17833 -4.6402,21.03295 -10.50153,26.8834 -3.26612,3.27514 -6.61958,5.21002 -9.87417,5.99836 -6.06786,1.4647 -9.23353,-1.92069 -9.13792,-2.04307 0.0956,-0.12239 3.3472,2.80045 8.92626,1.23068 3.06095,-0.85733 6.14214,-2.79064 9.24806,-6.0082 5.53817,-5.7647 10.21474,-15.30272 9.8402,-26.01097 -0.0707,-2.04702 -0.30287,-4.11496 -0.69435,-6.1891 -0.83681,-4.43355 -2.34698,-8.61107 -4.23906,-12.37475 -2.91979,-5.79813 -6.61916,-10.51178 -10.60275,-14.12781 -4.21168,-3.79723 -8.03836,-5.99972 -11.95958,-6.69786 -2.02255,-0.36081 -3.7557,-0.20054 -5.15556,0.30883 -3.14623,1.12689 -4.10448,3.228 -4.20203,3.16545 z" id="path14368" inkscape:path-effect="#path-effect14370" inkscape:original-d="m 338.46845,156.85985 c 8.72292,-13.60247 36.70202,8.98661 37.60288,35.89014 0.71065,21.22292 -18.24494,39.03171 -28.76405,30.8136" sodipodi:nodetypes="csc" inkscape:label="lis-prc"/>
            </g>
            <use x="0" y="0" xlink:href="#g14520" id="use15130" width="100%" height="100%" transform="matrix(-1,0,0,1,774.83203,0)" inkscape:label="lis-pl"/>
          </g>
          <g id="g14066" inkscape:label="lis-lc">
            <path style="display:inline;opacity:1;fill:#fcdd09;stroke:#000000;stroke-width:1.75;stroke-linecap:butt;stroke-linejoin:round;stroke-miterlimit:4;stroke-dasharray:none" d="m 414.73772,247.36952 c 0,-12.02855 -19.84572,-9.36952 -19.84572,-54.61953 0,-41.91667 18.49192,-52.31378 18.49192,-69.83126 0,-16.24721 -19.36335,-41.012194 -25.96725,-41.012194 -6.6039,0 -25.96725,24.764984 -25.96725,41.012194 0,17.51748 18.49158,27.91459 18.49158,69.83126 0,45.25001 -18.84514,42.59098 -18.84514,54.61953 0,6.9638 11.50646,16.73486 26.32081,16.73486 14.81435,0 27.32105,-9.77106 27.32105,-16.73486 z" id="path11391" sodipodi:nodetypes="ssszssszs" inkscape:label="lis-lc0"/>
            <path style="display:inline;opacity:1;fill:#000000;stroke:none;stroke-width:1.75;stroke-linecap:butt;stroke-linejoin:round;stroke-miterlimit:4;stroke-dasharray:none" d="m 387.41667,255.66666 c -0.52075,0 -0.9434,-36.28801 -0.9434,-81.00002 0,-44.71201 0.42265,-81.000013 0.9434,-81.000013 0.52075,0 0.9434,36.288003 0.9434,81.000013 0,44.71201 -0.42265,81.00002 -0.9434,81.00002 z" id="path13036" inkscape:path-effect="#path-effect13038" inkscape:original-d="M 387.41667,255.66666 V 93.666662" inkscape:label="lis-lcc"/>
          </g>
          <g id="g3513" inkscape:label="lis-lb" style="fill:#fcdd09">
            <path style="color:#000000;display:inline;opacity:1;fill:#fcdd09;stroke:#000000;stroke-width:1.5;stroke-linecap:butt;stroke-miterlimit:4;stroke-dasharray:none" d="m 368.48317,189.33333 c -1.70715,0 -3.09108,1.52969 -3.09108,3.41666 0,1.88698 1.38392,3.41667 3.09108,3.41667 h 37.8657 c 1.70715,0 3.09107,-1.5297 3.09107,-3.41667 0,-1.88697 -1.38392,-3.41666 -3.09107,-3.41666 z" id="path1890" inkscape:tile-cx="387.41601" inkscape:tile-cy="192.49999" inkscape:tile-w="48.312498" inkscape:tile-h="8.4999997" inkscape:tile-x0="363.25976" inkscape:tile-y0="188.24999" inkscape:label="lis-lbc" sodipodi:nodetypes="sssssss"/>
            <use x="0" y="0" inkscape:tiled-clone-of="#path1890" xlink:href="#path1890" id="use3423" width="100%" height="100%" transform="matrix(0.90547412,0,0,1,36.621487,6.83333)" style="fill:#fcdd09;stroke-width:1.0509" inkscape:label="lis-lbb"/>
            <use x="0" y="0" inkscape:tiled-clone-of="#path1890" xlink:href="#path1890" transform="matrix(0.90547525,0,0,1,36.621049,-6.91666)" id="use3425" width="100%" height="100%" style="fill:#fcdd09;stroke-width:1.0509" inkscape:label="lis-lbt"/>
          </g>
        </g>
        <use x="0" y="0" inkscape:tiled-clone-of="#g15452" xlink:href="#g15452" id="use15795" transform="matrix(-1,0,0,1,601.98353,0)" width="100%" height="100%" inkscape:label="lis-r"/>
        <use x="0" y="0" inkscape:tiled-clone-of="#g15452" xlink:href="#g15452" transform="translate(-86.42423,166.46025)" id="use15797" inkscape:label="lis-b" width="100%" height="100%"/>
      </g>
    </g>
  </g>
</svg>