<?xml version="1.0" encoding="UTF-8" standalone="no"?>
<!-- Created with Inkscape (http://www.inkscape.org/) -->

<svg
   version="1.0"
   width="573.72998"
   height="557.97998"
   viewBox="0 0 568.558 552.871"
   id="svg5857"
   xml:space="preserve"
   style="overflow:visible"
   sodipodi:docname="coa_essen.svg"
   inkscape:version="1.1 (c68e22c387, 2021-05-23)"
   xmlns:inkscape="http://www.inkscape.org/namespaces/inkscape"
   xmlns:sodipodi="http://sodipodi.sourceforge.net/DTD/sodipodi-0.dtd"
   xmlns="http://www.w3.org/2000/svg"
   xmlns:svg="http://www.w3.org/2000/svg"
   xmlns:rdf="http://www.w3.org/1999/02/22-rdf-syntax-ns#"
   xmlns:cc="http://creativecommons.org/ns#"
   xmlns:dc="http://purl.org/dc/elements/1.1/"
   xmlns:ns="http://ns.adobe.com/Variables/1.0/"
   xmlns:ns0="http://ns.adobe.com/SaveForWeb/1.0/"><sodipodi:namedview
   id="namedview75"
   pagecolor="#505050"
   bordercolor="#eeeeee"
   borderopacity="1"
   inkscape:pageshadow="0"
   inkscape:pageopacity="0"
   inkscape:pagecheckerboard="0"
   showgrid="false"
   inkscape:zoom="1.2473566"
   inkscape:cx="287.00694"
   inkscape:cy="278.98999"
   inkscape:window-width="1920"
   inkscape:window-height="1017"
   inkscape:window-x="-8"
   inkscape:window-y="-8"
   inkscape:window-maximized="1"
   inkscape:current-layer="svg5857" /><defs
   id="defs7436" /><metadata
   id="metadata5859">
		<ns:variableSets>
			<ns:variableSet
   varSetName="binding1"
   locked="none">
				<ns:variables />
				<ns:sampleDataSets />
			</ns:variableSet>
		</ns:variableSets>
		<ns0:sfw>
			<ns0:slices />
			<ns0:sliceSourceBounds
   x="109.841"
   y="27.465"
   width="568.558"
   height="552.871"
   bottomLeftOrigin="true" />
		</ns0:sfw>
	<rdf:RDF><cc:Work
     rdf:about=""><dc:format>image/svg+xml</dc:format><dc:type
       rdf:resource="http://purl.org/dc/dcmitype/StillImage" /></cc:Work></rdf:RDF></metadata><path
   d="m 382.11287,155.32396 c -8.79866,2.10709 -20.76449,-9.83409 -23.57974,-16.85873 -2.81526,-7.02464 -5.2796,-12.64355 -10.91011,-2.10709 -5.63051,10.53645 -14.78207,18.61464 -29.21224,18.96582 -7.71816,0.18796 -18.18813,-11.27839 -26.25919,-21.98698 l -1.51766,-18.05275 c 0,0 -2.06881,3.47225 -5.35394,8.36902 -3.28413,-4.89677 -5.35295,-8.36902 -5.35295,-8.36902 l -1.51766,18.05275 c -8.07205,10.7076 -18.54202,22.17494 -26.25919,21.98698 -14.43017,-0.35118 -23.58173,-8.42937 -29.21224,-18.96582 -5.63051,-10.53646 -8.09584,-4.91656 -10.9101,2.10709 -2.81625,7.02464 -14.78208,18.96582 -23.57975,16.85873 -8.79965,-2.10709 -26.04606,-10.18528 -28.50941,-12.99572 4.22387,24.93691 9.50347,84.29266 9.50347,96.23484 50.22157,-2.58688 92.2333,-1.30482 113.1445,-1.08521 0.14671,0.0109 0.29144,0.0307 0.44311,0.0307 0.70877,0 1.4671,-0.003 2.25121,-0.008 0.78411,0.005 1.54344,0.008 2.25121,0.008 0.15167,0 0.2964,-0.0208 0.4441,-0.0307 20.90922,-0.21961 62.92095,-1.50167 113.14253,1.08521 0,-11.94119 5.27959,-71.29793 9.50346,-96.23484 -2.46334,2.81044 -19.71075,10.88863 -28.50941,12.99572 z"
   id="path5873"
   style="fill:#fcdd09;stroke:#000000;stroke-width:3.96106386;stroke-linecap:round;stroke-linejoin:round" /><path
   d="m 169.34005,229.75879 c 70.26243,-9.69758 154.23038,-9.94687 232.46474,-0.2483"
   id="path6940"
   style="fill:#fcdd09;stroke:#000000;stroke-width:1.98053193;stroke-linecap:round;stroke-linejoin:round" /><path
   d="m 294.83005,29.939008 c -4.32201,-6.470658 -2.57536,-23.5519687 -9.23582,-24.538247 -0.007,-0.028688 -0.62253,-0.028688 -0.62947,0 -6.66145,0.9862783 -4.91381,18.067589 -9.23483,24.538247 -4.92868,7.375818 -17.24641,12.292371 -13.02353,27.746372 4.22289,15.454001 4.9267,53.03447 21.11739,53.03447 0.51349,0 0.99823,-0.0455 1.4562,-0.13157 0.45897,0.0861 0.94371,0.13157 1.45719,0.13157 16.1897,0 16.89252,-37.580469 21.1164,-53.03447 4.22387,-15.454001 -8.09584,-20.371543 -13.02353,-27.746372 z"
   id="path5882"
   style="fill:#fcdd09;stroke:#000000;stroke-width:3.96106386;stroke-linecap:round;stroke-linejoin:round" /><path
   d="m 328.96997,104.74876 c -6.33531,-1.75591 -13.88991,-6.402402 -11.61491,-11.590008 2.46335,-5.619906 14.07826,-9.13173 13.37445,-23.532184 -0.38759,-7.913968 -14.78207,-19.317006 -24.98836,-10.536459 -10.20729,8.780548 -12.66964,38.282831 -12.31873,42.497021 0.3529,4.21518 13.02254,20.37154 35.54755,3.16163 z"
   id="path5891"
   style="fill:#fcdd09;stroke:#000000;stroke-width:3.96106386;stroke-linecap:round;stroke-linejoin:round" /><path
   d="m 418.36324,66.81612 c -5.6315,18.26346 10.5582,35.47337 -6.33531,52.3321 -8.42098,8.40365 -22.52502,4.21419 -32.3794,-6.67345 8.09485,-2.45828 11.96583,-3.86301 11.96583,-11.23882 0,-10.536463 -23.1297,-11.543516 -13.37346,-32.312736 5.2796,-11.238823 16.1897,-9.834094 23.58074,-5.268724 -5.2796,-10.185277 -3.20979,-15.680538 3.16716,-20.019371 15.48688,-10.53547 20.41357,-6.672464 26.74889,-27.745383 6.33432,18.26346 -13.37445,50.926384 -13.37445,50.926384 z"
   id="path5900"
   style="fill:#fcdd09;stroke:#000000;stroke-width:3.96106386;stroke-linecap:round;stroke-linejoin:round" /><path
   d="m 397.95066,75.94785 c 8.44676,1.755912 16.89352,17.561095 0.89811,21.072919 7.03913,6.673451 4.12276,19.861091 -6.17671,23.883361"
   id="path5902"
   style="fill:none;stroke:#000000;stroke-width:2.97079802;stroke-linecap:round;stroke-linejoin:round" /><path
   d="m 365.63669,111.7724 c 0,6.20752 -5.04268,11.23883 -11.26201,11.23883 -6.21934,0 -11.26201,-5.03131 -11.26201,-11.23883 l 0,-22.12646 c 0,-6.207519 5.04267,-11.238824 11.26201,-11.238824 6.21933,0 11.26201,5.031305 11.26201,11.238824 l 0,22.12646 z"
   id="path5923"
   style="fill:#ffffff;stroke:#000000;stroke-width:3.96106386;stroke-linecap:round;stroke-linejoin:round" /><path
   d="m 307.85259,67.518485 c 7.74393,0.702365 9.15057,14.400454 1.05572,14.400454 -8.09485,0 -5.98341,13.6971 -1.05572,14.049272 -5.27861,0 -8.09485,9.131729 -4.22388,9.834099"
   id="path5925"
   style="fill:none;stroke:#000000;stroke-width:2.97079802;stroke-linecap:round;stroke-linejoin:round" /><path
   d="m 368.26261,195.84545 c -0.29045,5.13221 -7.91939,8.87651 -17.04122,8.36309 -9.12083,-0.51441 -16.27891,-5.09066 -15.98846,-10.22287 0.28945,-5.13122 7.91939,-8.87551 17.03923,-8.3611 9.12281,0.51341 16.2809,5.08967 15.99045,10.22088 z"
   id="path5948"
   style="fill:#da121a;stroke:#000000;stroke-width:1.98053193;stroke-linecap:round;stroke-linejoin:round" /><path
   d="m 301.8781,192.57105 c 0,5.14012 -7.4059,9.30782 -16.5426,9.30782 -9.1357,0 -16.5416,-4.16671 -16.5416,-9.30782 0,-5.14012 7.4059,-9.30683 16.5416,-9.30683 9.1367,-9.9e-4 16.5426,4.16671 16.5426,9.30683 z"
   id="path5967"
   style="fill:#078930;stroke:#000000;stroke-width:1.98053193;stroke-linecap:round;stroke-linejoin:round" /><path
   d="m 414.75595,200.48502 c 0,5.14012 -5.33808,9.30781 -11.92122,9.30781 -6.58512,0 -11.92221,-4.1667 -11.92221,-9.30781 0,-5.14012 5.33809,-9.30683 11.92221,-9.30683 6.58314,-9.9e-4 11.92122,4.16671 11.92122,9.30683 z"
   id="path5986"
   style="fill:#078930;stroke:#000000;stroke-width:1.98053193;stroke-linecap:round;stroke-linejoin:round" /><path
   d="m 347.11449,186.14689 c -0.114,2.03389 -2.96196,3.52666 -6.35712,3.33672 -3.39615,-0.19191 -6.05577,-1.99531 -5.94079,-4.0292 0.11499,-2.0329 2.96098,-3.52666 6.35713,-3.33573 3.39516,0.19191 6.05676,1.99531 5.94078,4.02821 z"
   id="path5988"
   style="fill:#ffd700;stroke:#000000;stroke-width:1.98053193;stroke-linecap:round;stroke-linejoin:round" /><path
   d="m 291.11966,183.08814 c 0,2.03686 -2.75776,3.68791 -6.15985,3.68791 -3.40111,0 -6.15887,-1.65105 -6.15887,-3.68791 0,-2.03686 2.75776,-3.68791 6.15887,-3.68791 3.40209,0 6.15985,1.65105 6.15985,3.68791 z"
   id="path5990"
   style="fill:#ffd700;stroke:#000000;stroke-width:1.98053193;stroke-linecap:round;stroke-linejoin:round" /><path
   d="m 291.11966,202.87306 c 0,2.03686 -2.75776,3.68791 -6.15985,3.68791 -3.40111,0 -6.15887,-1.65105 -6.15887,-3.68791 0,-2.03686 2.75776,-3.68791 6.15887,-3.68791 3.40209,0 6.15985,1.65105 6.15985,3.68791 z"
   id="path5992"
   style="fill:#ffd700;stroke:#000000;stroke-width:1.98053193;stroke-linecap:round;stroke-linejoin:round" /><path
   d="m 308.96283,192.9806 c 0,2.03686 -2.75776,3.68791 -6.15986,3.68791 -3.4011,0 -6.15886,-1.65105 -6.15886,-3.68791 0,-2.03686 2.75776,-3.68791 6.15886,-3.68791 3.4021,0 6.15986,1.65105 6.15986,3.68791 z"
   id="path5994"
   style="fill:#ffd700;stroke:#000000;stroke-width:1.98053193;stroke-linecap:round;stroke-linejoin:round" /><path
   d="m 369.87841,187.42994 c -0.11499,2.03389 -2.96197,3.52666 -6.35812,3.33574 -3.39615,-0.19093 -6.05577,-1.99432 -5.94078,-4.02821 0.11499,-2.0329 2.96097,-3.52667 6.35712,-3.33574 3.39615,0.19092 6.05677,1.99531 5.94178,4.02821 z"
   id="path5996"
   style="fill:#ffd700;stroke:#000000;stroke-width:1.98053193;stroke-linecap:round;stroke-linejoin:round" /><path
   d="m 411.06539,190.01286 c 0,2.03686 -2.75776,3.68791 -6.15986,3.68791 -3.4011,0 -6.15886,-1.65105 -6.15886,-3.68791 0,-2.03686 2.75776,-3.68791 6.15886,-3.68791 3.4021,0 6.15986,1.65105 6.15986,3.68791 z"
   id="path5998"
   style="fill:#ffd700;stroke:#000000;stroke-width:1.98053193;stroke-linecap:round;stroke-linejoin:round" /><path
   d="m 410.0741,210.78703 c 0,2.03685 -2.75776,3.68791 -6.15985,3.68791 -3.40111,0 -6.15887,-1.65106 -6.15887,-3.68791 0,-2.03686 2.75776,-3.68791 6.15887,-3.68791 3.40209,0 6.15985,1.65105 6.15985,3.68791 z"
   id="path6000"
   style="fill:#ffd700;stroke:#000000;stroke-width:1.98053193;stroke-linecap:round;stroke-linejoin:round" /><path
   d="m 397.18737,199.90532 c 0,2.03686 -2.75776,3.68791 -6.15986,3.68791 -3.4011,0 -6.15886,-1.65105 -6.15886,-3.68791 0,-2.03686 2.75776,-3.68791 6.15886,-3.68791 3.4021,0 6.15986,1.65105 6.15986,3.68791 z"
   id="path6002"
   style="fill:#ffd700;stroke:#000000;stroke-width:1.98053193;stroke-linecap:round;stroke-linejoin:round" /><path
   d="m 368.92776,204.22041 c -0.11499,2.03389 -2.96097,3.52666 -6.35811,3.33574 -3.39516,-0.19191 -6.05478,-1.99531 -5.93979,-4.02821 0.11399,-2.03389 2.96196,-3.52666 6.35613,-3.33574 3.39714,0.19192 6.05775,1.99432 5.94177,4.02821 z"
   id="path6004"
   style="fill:#ffd700;stroke:#000000;stroke-width:1.98053193;stroke-linecap:round;stroke-linejoin:round" /><path
   d="m 346.16484,202.93835 c -0.11499,2.03389 -2.96098,3.52666 -6.35812,3.33574 -3.39515,-0.19192 -6.05478,-1.99531 -5.94078,-4.02821 0.11499,-2.03389 2.96197,-3.52667 6.35712,-3.33574 3.39714,0.19092 6.05776,1.99432 5.94178,4.02821 z"
   id="path6006"
   style="fill:#ffd700;stroke:#000000;stroke-width:1.98053193;stroke-linecap:round;stroke-linejoin:round" /><path
   d="m 402.17355,238.78862 c 0,5.88898 -52.37763,10.6621 -116.98971,10.6621 -64.61209,0 -116.98971,-4.77312 -116.98971,-10.6621 0,-5.88898 52.37762,-10.66209 116.98971,-10.66209 64.61208,0 116.98971,4.77311 116.98971,10.66209 z"
   id="path6023"
   style="fill:#da121a;stroke:#000000;stroke-width:1.98053193;stroke-linecap:round;stroke-linejoin:round" /><path
   d="m 241.59001,104.74876 c 6.33432,-1.75591 13.88991,-6.402402 11.61392,-11.590008 -2.46236,-5.619906 -14.07826,-9.13173 -13.37346,-23.532184 0.38661,-7.913968 14.78207,-19.317006 24.98837,-10.536459 10.20629,8.780548 12.66964,38.282831 12.31773,42.497021 -0.35191,4.21419 -13.02254,20.37154 -35.54656,3.16163 z"
   id="path6032"
   style="fill:#fcdd09;stroke:#000000;stroke-width:3.96106386;stroke-linecap:round;stroke-linejoin:round" /><path
   d="m 152.19575,66.81612 c 5.6315,18.26346 -10.5582,35.47337 6.33531,52.3321 8.42198,8.40365 22.52601,4.21419 32.3794,-6.67345 -8.09485,-2.45828 -11.96583,-3.86301 -11.96583,-11.23882 0,-10.536463 23.1297,-11.543516 13.37445,-32.312736 -5.28059,-11.238823 -16.19069,-9.834094 -23.58173,-5.268724 5.28059,-10.185277 3.20979,-15.680538 -3.16716,-20.019371 -15.48688,-10.53547 -20.41357,-6.672464 -26.74889,-27.745383 -6.33432,18.26346 13.37445,50.926384 13.37445,50.926384 z"
   id="path6041"
   style="fill:#fcdd09;stroke:#000000;stroke-width:3.96106386;stroke-linecap:round;stroke-linejoin:round" /><path
   d="m 172.60833,75.94785 c -8.44676,1.755912 -16.89352,17.561095 -0.89811,21.072919 -7.03913,6.673451 -4.12276,19.861091 6.17671,23.883361"
   id="path6043"
   style="fill:none;stroke:#000000;stroke-width:2.97079802;stroke-linecap:round;stroke-linejoin:round" /><path
   d="m 204.9223,111.7724 c 0,6.20752 5.04268,11.23883 11.26201,11.23883 6.21934,0 11.26201,-5.03131 11.26201,-11.23883 l 0,-22.12646 c 0,-6.207519 -5.04267,-11.238824 -11.26201,-11.238824 -6.21933,0 -11.26201,5.031305 -11.26201,11.238824 l 0,22.12646 z"
   id="path6064"
   style="fill:#ffffff;stroke:#000000;stroke-width:3.96106386;stroke-linecap:round;stroke-linejoin:round" /><path
   d="m 262.7064,67.518485 c -7.74393,0.702365 -9.15057,14.400454 -1.05473,14.400454 8.09386,0 5.98242,13.6971 1.05473,14.049272 5.27861,0 8.09584,9.131729 4.22388,9.834099"
   id="path6066"
   style="fill:none;stroke:#000000;stroke-width:2.97079802;stroke-linecap:round;stroke-linejoin:round" /><path
   d="m 412.77139,123.61071 c -0.0446,-0.21763 -0.0724,-0.42636 -0.12192,-0.64499 l -0.12689,0.12861 c -1.79522,-3.69286 -5.57797,-6.2461 -9.96838,-6.2461 -6.12318,0 -11.08655,4.95315 -11.08655,11.06372 0,5.2618 3.68362,9.65603 8.61428,10.77784 -4.26947,8.095 -12.54672,11.60089 -19.72959,11.30213 -5.67511,-0.23544 -12.77273,-7.4876 -16.61099,-16.02182 0.3757,0.0386 0.75734,0.0584 1.14295,0.0584 6.12318,0 11.08656,-4.95315 11.08656,-11.06373 0,-6.11057 -4.96338,-11.06372 -11.08656,-11.06372 -5.24192,0 -9.62341,3.63449 -10.77826,8.51345 l -0.24981,0.005 c -1.15385,-4.88192 -5.53633,-8.51938 -10.78024,-8.51938 -6.12318,0 -11.08656,4.95315 -11.08656,11.06372 0,5.39931 3.87693,9.88851 9.00287,10.86094 -4.35472,7.7636 -12.55068,12.60992 -20.11916,12.36557 -9.88709,-0.31854 -21.03511,-11.59594 -21.20759,-26.51476 0.86936,0.31854 1.80414,0.50056 2.78452,0.50056 4.47071,0 8.09485,-3.61668 8.09485,-8.07818 0,-4.4615 -3.62414,-8.07819 -8.09485,-8.07819 -3.6975,0 -6.81113,2.47708 -7.77863,5.85832 -0.12886,-4.34873 -3.69452,-7.83681 -8.08196,-7.83681 -0.44806,0 -2.17488,0 -2.62294,0 -4.38942,0 -7.9531,3.48808 -8.08197,7.83681 -0.96848,-3.38025 -4.08013,-5.85832 -7.77962,-5.85832 -4.46971,0 -8.09386,3.61669 -8.09386,8.07819 0,4.4615 3.62415,8.07818 8.09386,8.07818 0.98039,0 1.91616,-0.18301 2.78552,-0.50056 -0.17348,14.91882 -11.3205,26.19622 -21.20859,26.51476 -7.56847,0.24336 -15.76443,-4.60296 -20.11916,-12.36557 5.12595,-0.97342 9.00287,-5.46262 9.00287,-10.86094 0,-6.11057 -4.96337,-11.06372 -11.08655,-11.06372 -5.24292,0 -9.62639,3.63746 -10.78025,8.51938 l -0.24881,-0.005 c -1.15584,-4.87896 -5.53733,-8.51345 -10.77827,-8.51345 -6.12417,0 -11.08754,4.95315 -11.08754,11.06372 0,6.11058 4.96337,11.06373 11.08754,11.06373 0.38661,0 0.76726,-0.0208 1.14296,-0.0584 -3.83826,8.53323 -10.93588,15.78638 -16.611,16.02182 -7.18385,0.29876 -15.46209,-3.20713 -19.73057,-11.30213 4.93165,-1.12181 8.61428,-5.51604 8.61428,-10.77784 0,-6.11057 -4.96238,-11.06372 -11.08655,-11.06372 -4.39041,0 -8.17317,2.55324 -9.96839,6.2461 l -0.12688,-0.12861 c -0.0496,0.21863 -0.0773,0.42835 -0.12193,0.64499 -0.55909,1.32163 -0.86936,2.77583 -0.86936,4.30124 0,0.59949 0.0615,1.18314 0.15266,1.7569 -0.54818,22.25903 23.29822,33.66899 33.90301,33.66899 11.61292,0 21.05295,-10.12097 27.03537,-21.71098 3.94829,6.70115 10.9101,17.84798 32.7313,18.19916 21.8212,0.35118 31.6736,-21.3598 33.78703,-33.30198 0.32118,-1.82219 0.56206,-3.57612 0.75139,-5.25784 0.18934,1.68172 0.43121,3.43565 0.75239,5.25784 2.11243,11.94119 11.96583,33.65316 33.78703,33.30198 21.8212,-0.35118 28.78102,-11.49801 32.7313,-18.19916 5.98242,11.59001 15.42245,21.71098 27.03537,21.71098 10.6038,0 34.4502,-11.40996 33.90202,-33.66899 0.0922,-0.57376 0.15266,-1.15741 0.15266,-1.7569 0.005,-1.5264 -0.30532,-2.97961 -0.86441,-4.30124 z"
   id="path6079"
   style="fill:#fcdd09;stroke:#000000;stroke-width:2.97079802;stroke-linecap:round;stroke-linejoin:round" /><path
   d="m 202.29638,195.84545 c 0.29045,5.13221 7.91939,8.87651 17.04221,8.36309 9.11984,-0.51441 16.27792,-5.09066 15.98847,-10.22287 -0.29045,-5.13122 -7.9194,-8.87551 -17.04023,-8.3611 -9.12281,0.51341 -16.28089,5.08967 -15.99045,10.22088 z"
   id="path6102"
   style="fill:#da121a;stroke:#000000;stroke-width:1.98053193;stroke-linecap:round;stroke-linejoin:round" /><path
   d="m 155.80304,200.48502 c 0,5.14012 5.33907,9.30781 11.92122,9.30781 6.58611,0 11.92221,-4.1667 11.92221,-9.30781 0,-5.14012 -5.33709,-9.30683 -11.92221,-9.30683 -6.58215,-9.9e-4 -11.92122,4.16671 -11.92122,9.30683 z"
   id="path6121"
   style="fill:#078930;stroke:#000000;stroke-width:1.98053193;stroke-linecap:round;stroke-linejoin:round" /><path
   d="m 223.44549,186.14689 c 0.114,2.03389 2.96097,3.52666 6.35613,3.33672 3.39615,-0.19191 6.05677,-1.99531 5.94178,-4.0292 -0.11598,-2.0329 -2.96197,-3.52666 -6.35812,-3.33573 -3.39516,0.19191 -6.05676,1.99531 -5.93979,4.02821 z"
   id="path6123"
   style="fill:#ffd700;stroke:#000000;stroke-width:1.98053193;stroke-linecap:round;stroke-linejoin:round" /><path
   d="m 261.59715,192.9806 c 0,2.03686 2.75677,3.68791 6.15986,3.68791 3.40011,0 6.15887,-1.65105 6.15887,-3.68791 0,-2.03686 -2.75876,-3.68791 -6.15887,-3.68791 -3.40309,0 -6.15986,1.65105 -6.15986,3.68791 z"
   id="path6125"
   style="fill:#ffd700;stroke:#000000;stroke-width:1.98053193;stroke-linecap:round;stroke-linejoin:round" /><path
   d="m 200.68058,187.42994 c 0.11499,2.03389 2.96296,3.52666 6.35911,3.33574 3.39615,-0.19093 6.05478,-1.99432 5.93979,-4.02821 -0.11499,-2.0329 -2.95998,-3.52667 -6.35613,-3.33574 -3.39615,0.19092 -6.05676,1.99531 -5.94277,4.02821 z"
   id="path6127"
   style="fill:#ffd700;stroke:#000000;stroke-width:1.98053193;stroke-linecap:round;stroke-linejoin:round" /><path
   d="m 159.4936,190.01286 c 0,2.03686 2.75776,3.68791 6.15986,3.68791 3.4011,0 6.15886,-1.65105 6.15886,-3.68791 0,-2.03686 -2.75776,-3.68791 -6.15886,-3.68791 -3.4021,0 -6.15986,1.65105 -6.15986,3.68791 z"
   id="path6129"
   style="fill:#ffd700;stroke:#000000;stroke-width:1.98053193;stroke-linecap:round;stroke-linejoin:round" /><path
   d="m 160.48489,210.78703 c 0,2.03685 2.75776,3.68791 6.15986,3.68791 3.4011,0 6.15886,-1.65106 6.15886,-3.68791 0,-2.03686 -2.75776,-3.68791 -6.15886,-3.68791 -3.4021,0 -6.15986,1.65105 -6.15986,3.68791 z"
   id="path6131"
   style="fill:#ffd700;stroke:#000000;stroke-width:1.98053193;stroke-linecap:round;stroke-linejoin:round" /><path
   d="m 173.37261,199.90532 c 0,2.03686 2.75677,3.68791 6.15887,3.68791 3.4011,0 6.15886,-1.65105 6.15886,-3.68791 0,-2.03686 -2.75776,-3.68791 -6.15886,-3.68791 -3.4021,0 -6.15887,1.65105 -6.15887,3.68791 z"
   id="path6133"
   style="fill:#ffd700;stroke:#000000;stroke-width:1.98053193;stroke-linecap:round;stroke-linejoin:round" /><path
   d="m 201.63123,204.22041 c 0.11499,2.03389 2.96196,3.52666 6.3591,3.33574 3.39516,-0.19191 6.05379,-1.99531 5.93881,-4.02821 -0.114,-2.03389 -2.96098,-3.52666 -6.35515,-3.33574 -3.39714,0.19192 -6.05775,1.99432 -5.94276,4.02821 z"
   id="path6135"
   style="fill:#ffd700;stroke:#000000;stroke-width:1.98053193;stroke-linecap:round;stroke-linejoin:round" /><path
   d="m 224.39514,202.93835 c 0.11499,2.03389 2.95999,3.52666 6.35713,3.33574 3.39515,-0.19192 6.05577,-1.99531 5.94177,-4.02821 -0.11499,-2.03389 -2.96296,-3.52667 -6.35811,-3.33574 -3.39714,0.19092 -6.05776,1.99432 -5.94079,4.02821 z"
   id="path6137"
   style="fill:#ffd700;stroke:#000000;stroke-width:1.98053193;stroke-linecap:round;stroke-linejoin:round" /><path
   d="m 516.03674,192.13084 c -14.87228,5.23509 -192.05195,71.23956 -231.64891,85.25322 -0.91991,0.32546 -1.46611,1.27118 -1.2857,2.22877 12.21464,65.0726 40.13622,124.74886 80.74628,172.57891 40.08467,47.21176 90.96347,81.15279 147.13474,98.15595 0.82872,0.25127 1.72583,-0.0653 2.21256,-0.77952 33.18729,-48.60067 51.5033,-107.06511 52.96843,-169.07204 1.48494,-62.87548 -15.98451,-129.57045 -47.72948,-187.44925 -0.46591,-0.85075 -1.48198,-1.23854 -2.39792,-0.91604 z"
   id="path6139" /><path
   d="m 281.08586,277.27029 c 40.83012,-14.44991 219.05162,-77.43026 233.11997,-82.38243 64.89857,118.32471 60.00161,254.03343 -6.61288,351.58793 C 394.78152,512.328 306.04745,410.24771 281.08586,277.27029 z"
   id="path6146"
   style="fill:#0f47af;stroke:#000000;stroke-width:3.96106386;stroke-linecap:round;stroke-linejoin:round" /><path
   d="M 512.18261,209.07266 C 470.00137,258.62004 409.4833,381.22323 414.22264,459.85345 468.67998,412.33106 507.41849,274.722 512.18261,209.07266 z"
   id="path6155"
   style="fill:#fcdd09;stroke:#000000;stroke-width:3.96106386;stroke-linecap:round;stroke-linejoin:round" /><path
   d="m 473.40049,308.76789 c 10.84567,-26.82638 15.36693,-37.18675 30.52867,-78.59461 -43.32519,60.31433 -79.53493,150.70668 -84.04429,214.62286 11.377,-12.88592 15.56519,-21.55864 21.16695,-31.88736"
   id="path6157"
   style="fill:none;stroke:#000000;stroke-width:1.98053193;stroke-linecap:round;stroke-linejoin:round" /><path
   d="m 431.99641,402.46135 c 0,0 13.49439,-40.98446 30.77253,-66.15088 -5.50065,31.23643 -21.99468,70.22757 -21.99468,70.22757"
   id="path6159"
   style="fill:none;stroke:#000000;stroke-width:1.98053193;stroke-linecap:round;stroke-linejoin:round" /><path
   d="m 391.16629,390.57655 c -0.92388,1.98245 0.40148,8.59457 4.77008,10.28123 7.15412,2.76099 7.34444,-0.66675 9.53915,0.18994 2.75479,1.07531 53.50075,20.43288 55.22757,21.13524 2.10054,0.85372 0.13085,3.72748 6.10832,6.0898 5.05655,1.99927 9.78102,-0.46297 11.1609,-4.0935 1.37987,-3.63053 -0.28649,-8.85276 -4.85136,-10.6344 -6.34226,-2.47608 -6.85376,1.13368 -9.36172,0.2582 -2.50795,-0.87548 -52.65617,-20.37154 -55.11357,-21.41322 -2.37711,-1.00903 0.0119,-3.36739 -6.41462,-5.90679 -4.57776,-1.80834 -8.5558,-1.28998 -11.06475,4.0935 z"
   id="path6168"
   style="fill:#fcdd09;stroke:#000000;stroke-width:1.98053193;stroke-linecap:round;stroke-linejoin:round" /><path
   d="m 462.96026,409.78969 -5.64439,14.77241 4.26551,1.62731 5.77028,-14.64678 -4.3914,-1.75294 z"
   id="path6170"
   style="fill:#fcdd09;stroke:#000000;stroke-width:1.98053193;stroke-linecap:round;stroke-linejoin:round" /><path
   d="m 407.76738,388.63367 4.39041,1.6283 -5.77028,14.64678 -4.39041,-1.6283 5.77028,-14.64678 z"
   id="path6172"
   style="fill:#fcdd09;stroke:#000000;stroke-width:1.98053193;stroke-linecap:round;stroke-linejoin:round" /><path
   d="m 395.56067,377.92212 c -3.89378,1.52541 -8.33177,6.87328 -9.87917,10.71848 -1.61084,4.0015 -2.23039,10.20605 0.21313,14.37374 1.37888,2.35045 4.38942,3.12701 6.75066,1.76284 2.36125,-1.36516 3.16122,-4.39621 1.80514,-6.75952 l 9.9e-4,0.003 c -0.42526,-0.77161 -0.40147,-3.62955 0.42923,-5.6941 0.75139,-1.86572 3.37136,-4.73552 4.35373,-5.21729 2.49408,-1.06047 3.71138,-3.9372 2.6854,-6.44098 -1.02797,-2.5018 -3.83728,-3.7344 -6.35911,-2.74614 z"
   id="path6174"
   style="fill:#fcdd09;stroke:#000000;stroke-width:1.98053193" /><path
   d="m 473.81683,436.93559 c 3.89378,-1.52542 8.33177,-6.87328 9.87917,-10.71848 1.61084,-4.0015 2.23039,-10.20605 -0.21313,-14.37375 -1.37888,-2.35045 -4.38942,-3.127 -6.75066,-1.76283 -2.36125,1.36515 -3.16122,4.3962 -1.80514,6.75951 l -9.9e-4,-0.003 c 0.42526,0.77161 0.40147,3.62954 -0.42923,5.6941 -0.75139,1.86571 -3.37136,4.73552 -4.35373,5.21728 -2.49408,1.06047 -3.71138,3.9372 -2.6854,6.44098 1.02698,2.5018 3.83728,3.7344 6.35911,2.74615 z"
   id="path6176"
   style="fill:#fcdd09;stroke:#000000;stroke-width:1.98053193" /><path
   d="m 422.78736,440.11997 c 22.96217,9.06842 14.91292,30.24026 2.10252,40.54425 4.20603,-10.49294 -3.3456,-12.1153 -4.30219,-12.21126 -2.31664,-0.23148 -5.24985,0.24732 -6.30855,2.76693 -1.24307,2.95685 1.24208,3.81552 -9.9e-4,7.15422 -1.13205,3.04094 -3.72724,4.8661 -7.74294,3.24374 -4.01571,-1.62236 -5.35295,-5.05604 -4.30219,-7.82296 1.05077,-2.76692 4.01471,-2.76593 5.25779,-5.53285 1.24307,-2.76692 -0.9556,-4.77014 -2.29384,-5.9147 -1.3085,-1.11884 -7.74393,-5.05604 -12.14029,6.29655 -3.05911,-16.69452 7.26514,-37.39647 29.73068,-28.52392 z"
   id="path6185"
   style="fill:#fcdd09;stroke:#000000;stroke-width:2.97079802;stroke-linecap:round;stroke-linejoin:round" /><path
   d="m 427.69819,463.80351 c 1.72088,-4.67518 1.05275,-12.49814 -7.93426,-15.93181 -8.987,-3.43367 -15.20039,1.43144 -17.01643,6.20158"
   id="path6187"
   style="fill:#fcdd09;stroke:#000000;stroke-width:1.98053193;stroke-linecap:round;stroke-linejoin:round" /><path
   d="m 423.91049,450.10047 c -0.50655,3.85312 -2.20958,7.83582 -5.10216,10.55526 2.86879,-1.14456 8.22075,1.14357 9.17734,2.19414 0.95461,-4.38829 -0.10012,-8.86562 -4.07518,-12.7494 z"
   id="path6189"
   style="stroke:#000000;stroke-width:0.99026597;stroke-linecap:round;stroke-linejoin:round" /><path
   d="m 414.63601,446.96061 c -1.82199,3.80167 -2.48417,5.2064 -2.83509,10.69276 -1.46214,-2.71746 -7.03615,-4.39522 -8.44477,-4.20232 2.09062,-3.97578 5.73162,-6.73875 11.27986,-6.49044 z"
   id="path6191"
   style="stroke:#000000;stroke-width:0.99026597;stroke-linecap:round;stroke-linejoin:round" /><path
   d="m 475.31367,312.90096 c 0,2.17733 -1.76746,3.94115 -3.94829,3.94115 -2.18182,0 -3.94929,-1.76382 -3.94929,-3.94115 0,-2.17635 1.76747,-3.94017 3.94929,-3.94017 2.17984,0 3.94829,1.76382 3.94829,3.94017 z"
   id="path6193"
   style="fill:none;stroke:#000000;stroke-width:1.48539901;stroke-linecap:round;stroke-linejoin:round" /><path
   d="M 286.66581,274.35103 C 271.80642,269.07934 92.487556,209.10135 52.878701,195.12429 c -0.920905,-0.32546 -1.94094,0.0673 -2.405853,0.92396 C 18.930096,254.2911 2.9971396,318.2043 4.3938629,380.87798 5.7727432,442.74246 23.90933,501.07335 56.839884,549.56421 c 0.485731,0.71622 1.383837,1.03376 2.211562,0.78348 56.439914,-16.92599 107.541754,-50.85911 147.784044,-98.12726 40.80335,-47.93095 69.28699,-110.73521 81.11503,-175.65151 0.17645,-0.95364 -0.36975,-1.89342 -1.28471,-2.21789 z"
   id="path6195" /><path
   d="M 50.383632,192.9618 C 91.228622,207.37512 269.44815,270.35744 283.5046,275.34324 259.32215,408.05752 169.9378,510.44745 56.647575,544.42607 -9.4891115,447.03975 -14.074805,311.98096 50.383632,192.9618 z"
   id="path6202"
   style="fill:#fcdd09;stroke:#000000;stroke-width:3.96106386;stroke-linecap:round;stroke-linejoin:round" /><path
   d="m 62.594305,532.63821 c 0.40048,0.11377 0.587833,-0.087 0.686962,-0.28589 1.504774,-3.01225 6.216361,-4.77608 8.684666,-7.19973 3.835289,-3.76507 7.754838,-7.68842 8.79668,-14.59336 2.886628,4.06184 5.34502,5.80984 7.345437,7.21061 2.41081,1.68766 4.315072,3.02116 6.050816,7.64391 0.0793,0.21071 0.29243,0.34228 0.51646,0.31755 0.224031,-0.0247 0.404446,-0.19686 0.437158,-0.42043 0.689936,-4.69595 2.182814,-7.75075 3.627119,-10.70463 1.641567,-3.35948 3.198887,-6.54486 3.198887,-11.61969 0,-0.35217 -0.008,-0.71423 -0.0228,-1.0852 -0.20619,-4.93832 -3.410031,-9.5205 -6.508794,-13.95134 -2.366202,-3.38421 -4.562894,-6.57749 -4.986173,-9.42751 1.589033,-0.74095 3.212761,0.0544 5.075389,1.00309 2.325559,1.18413 4.960398,2.52654 8.050238,0.90615 1.16972,-0.61333 1.6049,-0.52529 1.76053,-0.41944 0.57594,0.39471 0.32812,2.50675 0.0892,4.54955 -0.52241,4.45358 -1.23812,10.55327 3.55574,13.22325 5.54427,3.08842 9.95847,1.32658 13.18115,0.0406 1.77142,-0.70731 3.30098,-1.31768 4.48755,-0.94374 1.18162,0.37294 1.80315,0.96847 2.46137,1.59763 1.30453,1.24942 2.53769,2.4286 7.39103,1.3058 0.17546,-0.0406 0.31523,-0.1741 0.3648,-0.34722 0.0496,-0.17312 0,-0.3591 -0.12788,-0.48572 -2.23238,-2.20998 -2.06089,-3.77299 -1.89435,-5.28455 0.16356,-1.49179 0.33307,-3.03007 -1.86858,-4.70585 -2.08071,-1.58279 -4.50044,-1.65797 -6.63567,-1.72425 -2.30078,-0.0712 -4.28831,-0.13454 -5.57896,-1.88155 -1.07258,-1.45221 -0.55017,-4.23991 0.003,-7.19182 0.73157,-3.90455 1.56128,-8.33044 -1.48396,-10.47315 -3.2653,-2.29702 -7.72311,-1.20688 -12.03422,-0.15135 -4.28533,1.04959 -8.704492,2.10808 -11.857775,-0.16125 0.598737,-2.17337 1.936974,-2.99049 3.375332,-3.80859 1.481973,-0.84284 3.014503,-1.71338 3.726243,-4.04404 0.28847,-0.94671 0.38958,-2.01707 0.38958,-3.16856 0,-1.29987 -0.12887,-2.70361 -0.2617,-4.14988 -0.14671,-1.60852 -0.30333,-3.31398 -0.30333,-5.04714 0,-2.13182 0.23592,-4.30717 1.01507,-6.4024 1.23317,-3.31595 3.19492,-5.16485 5.27068,-7.12356 2.05494,-1.93694 4.17926,-3.94016 5.49074,-7.43022 1.06067,-2.82529 3.62712,-6.22335 6.47806,-7.25019 1.24902,-0.4501 2.4118,-0.3769 3.45463,0.21863 4.35175,2.48004 6.44039,2.41079 8.9424,-0.29678 0.0862,-0.093 0.13184,-0.21269 0.13184,-0.33535 0,-0.0505 -0.008,-0.10091 -0.0228,-0.14839 -0.0535,-0.16916 -0.1933,-0.29677 -0.36776,-0.33436 -2.86978,-0.62224 -5.07738,-2.81243 -5.07738,-4.88589 0,-0.19093 0.0188,-0.38284 0.0575,-0.5708 l 0.81285,-3.05578 c 0.63046,-2.14963 1.31148,-4.47535 1.31148,-6.74863 0,-1.4354 -0.27162,-2.85101 -1.00219,-4.1855 -0.52043,-0.95265 -0.73752,-1.67381 -0.73752,-2.3 0,-0.98529 0.53728,-1.73217 1.27777,-2.76197 0.69885,-0.97045 1.5692,-2.1803 2.16497,-3.96292 0.44211,-1.32362 0.53728,-2.87574 0.6374,-4.51987 0.24484,-3.99457 0.61558,-8.88837 6.21536,-13.17972 -1.3075,3.86201 -3.82141,12.98385 -3.82141,20.79692 0,5.11736 1.08447,9.6491 4.30417,11.71761 0.14076,0.091 0.3182,0.10387 0.47185,0.0356 0.15365,-0.0692 0.2617,-0.21071 0.28649,-0.37691 1.93499,-12.69103 8.58157,-31.60937 17.52892,-35.85522 -8.78478,20.12325 -13.19601,36.32907 -13.19601,48.18519 0,9.66097 2.92529,16.43632 8.79173,20.09455 0.14869,0.094 0.33703,0.1009 0.49267,0.0198 0.15563,-0.0821 0.25674,-0.2394 0.26566,-0.4145 0.84458,-17.53142 10.1716,-54.55395 19.65821,-67.14705 -2.35034,10.70661 -10.28063,48.73916 -10.28063,74.37448 0,11.74631 1.66833,20.87804 6.30557,23.56087 0.14374,0.0831 0.3192,0.089 0.46789,0.0158 0.14869,-0.0732 0.25179,-0.21664 0.2726,-0.37987 1.31643,-10.1833 13.38238,-84.72793 26.10158,-108.54106 -1.92012,15.30067 -2.86977,29.38654 -2.86977,41.17638 0,18.0844 2.2066,30.80116 6.45922,34.35255 0.1368,0.11377 0.32415,0.14542 0.49168,0.0841 0.16753,-0.0623 0.28747,-0.20972 0.31523,-0.38581 0.92884,-5.77818 1.79919,-13.91077 2.80832,-23.32543 2.43658,-22.73782 5.45703,-50.79481 11.28877,-65.05974 0.49069,3.04886 0.88126,7.38769 1.31445,12.38437 1.41754,16.34136 3.18203,36.67828 10.55621,36.6852 l 0.001,0 c 0.13679,0 0.26665,-0.0564 0.35983,-0.15432 0.0872,-0.093 0.13581,-0.21467 0.13581,-0.3403 0,-0.01 -9.9e-4,-0.0188 -9.9e-4,-0.0277 -0.48078,-8.44717 -0.89513,-17.79159 -0.89513,-27.03016 0,-12.41504 0.76329,-24.61145 3.09578,-34.20714 0.49862,0.70039 1.00814,1.46804 1.54443,2.30989 3.44076,5.39634 8.15135,12.78799 18.70856,9.09414 0.15662,-0.0554 0.27657,-0.18598 0.31622,-0.34821 0.01,-0.0386 0.0149,-0.0791 0.0149,-0.11871 0,-0.12267 -0.0456,-0.24336 -0.13184,-0.33635 -5.07837,-5.47448 -6.05478,-11.55637 -6.05478,-17.66298 0,-1.92409 0.0971,-3.85213 0.1933,-5.76236 0.0892,-1.7757 0.17744,-3.5237 0.17744,-5.21432 0,-3.42872 -0.43022,-6.6042 -1.87155,-9.36519 7.09266,3.57118 12.54474,4.65341 18.42505,0.28391 0.14175,-0.10486 0.2161,-0.276 0.19627,-0.4501 -0.0188,-0.1751 -0.12886,-0.32547 -0.28846,-0.39768 -8.28716,-3.72847 -12.8897,-10.73925 -17.76287,-18.16157 -4.20801,-6.4113 -8.56076,-13.04123 -15.50968,-17.39886 -4.23478,-2.65513 -8.70746,-3.02214 -12.5943,-1.03178 -5.17749,2.6492 -8.44576,8.96949 -8.9652,17.34049 -0.0694,1.12082 -1.3878,1.43342 -3.55178,1.81527 -2.11342,0.37295 -4.50738,0.79634 -5.19236,2.84804 -0.52241,1.56301 -0.38561,3.40894 -0.26468,5.03823 0.1031,1.37109 0.20818,2.78769 -0.227,3.24374 -0.0783,0.0821 -0.22403,0.18993 -0.58288,0.18103 -3.79762,-0.097 -9.75723,1.05849 -10.44816,3.0904 -0.15266,0.45011 -0.13878,1.13071 0.80591,1.81626 1.05275,0.7637 1.50081,0.57376 2.4128,0.0702 0.54322,-0.29975 1.36203,-0.75183 2.83706,-1.21579 1.56425,-0.49264 2.64475,-0.20279 3.69056,0.0781 1.25001,0.33536 2.54265,0.68159 4.11979,-0.77062 1.45323,-1.33944 1.2857,-3.55931 1.13701,-5.51801 -0.13284,-1.74602 -0.25675,-3.39411 0.7504,-4.01239 0.55017,-0.33832 1.3313,-0.65686 1.92409,-0.25423 0.65821,0.44615 1.18756,1.90627 0.69985,4.66627 -0.36975,2.08533 1.19946,2.77187 2.34439,3.27243 0.92884,0.40559 1.49784,0.68456 1.49784,1.288 0,0.72116 -0.50358,1.01595 -1.74169,1.67083 -1.2976,0.68654 -3.07399,1.62731 -4.86227,3.82344 -0.12886,0.15828 -0.14671,0.37888 -0.0466,0.55595 0.10012,0.17807 0.29937,0.27501 0.50159,0.24633 2.20562,-0.3136 2.64971,0.20576 2.73298,0.37294 0.22106,0.44121 -0.23791,1.39781 -1.06662,2.22581 -0.50159,0.49956 -0.74149,0.50352 -1.32139,0.51341 -0.93875,0.0148 -2.35827,0.0366 -5.60474,2.01312 -0.19627,0.11871 -0.2845,0.35712 -0.21411,0.57475 0.0714,0.21862 0.28251,0.3591 0.51249,0.3403 2.31664,-0.18795 3.79663,0.21764 4.0613,1.11488 0.23791,0.80921 -0.50952,1.90628 -1.33625,2.34649 -1.04878,0.55794 -2.11045,0.36108 -3.33865,0.13454 -2.01331,-0.37294 -4.51829,-0.8369 -7.77863,1.99927 -0.14473,0.12662 -0.20322,0.32546 -0.14969,0.51045 0.0535,0.18499 0.20916,0.3215 0.39949,0.35118 2.33151,0.36206 3.71336,1.62236 3.6975,3.37135 -0.0109,1.29295 -0.9437,2.79165 -2.65169,3.02808 -0.71175,0.0979 -1.57119,-0.31458 -2.56744,-0.79238 -2.23832,-1.07333 -5.30437,-2.54335 -9.81572,0.21268 -0.17347,0.10585 -0.26467,0.30865 -0.228,0.50947 0.0357,0.19982 0.19033,0.3581 0.39057,0.39767 3.93541,0.78546 5.30735,2.58589 5.28554,3.88972 -0.0188,1.11686 -1.01706,2.00223 -2.54562,2.25647 -2.6051,0.43329 -4.06229,-0.53024 -5.60375,-1.55015 -1.98753,-1.31471 -4.04246,-2.67393 -8.35258,-1.01398 -0.19033,0.0742 -0.31721,0.25721 -0.31721,0.46198 0,0.20379 0.12589,0.38779 0.31622,0.46099 2.51291,0.97045 4.78197,3.55139 4.58272,5.20937 -0.14176,1.16731 -1.52956,1.58873 -2.66855,1.73712 -1.36004,0.17806 -2.91934,-0.9942 -4.56983,-2.23471 -2.48119,-1.86374 -5.29347,-3.97677 -8.44576,-2.23867 -0.15564,0.0861 -0.25377,0.24732 -0.25675,0.42538 -0.003,0.17708 0.0902,0.34228 0.24188,0.43329 2.83409,1.6837 3.65586,4.26266 3.0036,5.93943 -0.57792,1.48486 -2.15011,2.11897 -4.20604,1.69458 -2.275,-0.46989 -3.82438,-2.21393 -4.14655,-4.66726 -0.31027,-2.36727 0.65326,-4.6089 2.34142,-5.45174 1.25101,-0.62421 2.00438,-1.41363 2.30375,-2.41277 0.58883,-1.96959 -0.77618,-4.31212 -2.22147,-6.79315 l -0.26666,-0.45703 c -0.90108,-1.55312 -0.92289,-3.09139 -0.0555,-4.01139 0.83863,-0.88934 2.33349,-0.9566 3.90071,-0.17411 2.16993,1.08322 3.41697,1.07927 4.32796,1.0763 0.77816,-0.003 1.24902,-0.004 2.03412,0.62322 0.74248,0.59256 0.79303,2.46323 0.83268,3.96688 0.0416,1.57389 0.0714,2.71152 0.79303,3.03699 0.57792,0.26017 1.15882,-0.22258 1.34617,-0.37987 1.82595,-1.51751 3.78771,-5.97208 3.58152,-9.44137 -0.10805,-1.83109 -0.82177,-3.22494 -2.06485,-4.03019 -1.57218,-1.01991 -3.34658,-1.37406 -4.91183,-1.68468 -2.67746,-0.53321 -3.95127,-0.88736 -3.66181,-3.10426 0.32415,-2.47905 1.92409,-3.36541 4.14061,-4.59405 1.46611,-0.81218 3.12652,-1.73316 4.7096,-3.31299 1.81703,-1.81329 2.19471,-4.27354 2.63088,-7.12257 0.54322,-3.54546 1.1598,-7.56378 4.80576,-11.41689 l 3.51807,-3.58799 c 4.12574,-4.11725 5.83373,-5.82073 3.56864,-9.12481 -1.40961,-2.05565 -5.25382,-5.15199 -10.06553,-5.25586 -2.89357,-0.0623 -7.19675,0.99815 -11.26201,6.40932 -5.72667,7.61917 -8.56869,10.16747 -10.64246,12.02824 -0.8872,0.79437 -1.65148,1.4809 -2.43163,2.37815 -0.11499,0.13256 -0.28152,0.35415 -0.47086,0.61432 -9.9e-4,-0.11871 -0.003,-0.22752 -0.009,-0.3126 -0.0793,-1.18512 -0.27459,-2.19316 -0.50159,-3.36047 -0.53034,-2.73328 -1.25695,-6.4756 -1.21829,-15.99907 0.0268,-6.76348 -2.76371,-10.20012 -5.1091,-11.89173 -3.9017,-2.81342 -8.83831,-2.6581 -11.2055,-1.86671 -3.80357,1.27118 -3.47149,3.65922 -2.66954,9.42653 l 0.6374,4.97788 c 0.5799,5.26774 -1.35708,8.84386 -3.06705,11.99857 -1.37392,2.53544 -2.56049,4.72563 -2.20759,7.26403 0.30829,2.21196 1.07654,3.94709 1.75557,5.47746 1.02499,2.31285 1.76548,3.98369 0.52538,6.15706 -1.10826,1.94189 -2.33944,1.45815 -4.79783,0.27007 -1.43637,-0.69346 -3.06506,-1.47991 -4.93562,-1.61346 -1.479,-0.10387 -2.89158,0.57772 -4.08509,1.97453 -2.26014,2.64327 -3.38723,7.37681 -2.84797,9.68472 0.0555,0.24039 0.22701,0.97342 0.84557,1.1129 0.77122,0.1751 1.48296,-0.71423 2.46731,-1.94485 0.94073,-1.17523 2.11045,-2.63733 3.0611,-2.66206 1.00714,-0.0277 1.38086,0.25621 2.00041,0.72709 0.72463,0.55002 1.71691,1.30284 4.10195,1.74602 1.72286,0.31953 2.87572,1.27217 3.00657,2.48696 0.13581,1.25734 -0.80988,2.47015 -2.46929,3.16658 l -0.48276,0.20181 c -2.65467,1.10894 -5.16163,2.15655 -5.88329,4.0836 -0.36578,0.97738 -0.24187,2.0606 0.37867,3.31101 0.83764,1.68864 0.2508,4.05789 -1.42646,5.75741 -1.73872,1.76284 -4.02859,2.22185 -6.12813,1.22766 -1.89634,-0.89923 -2.76768,-2.35144 -2.33151,-3.88378 0.49366,-1.73019 2.7072,-3.29221 5.98539,-2.93015 0.17744,0.0198 0.35092,-0.0574 0.455,-0.19983 0.10409,-0.14245 0.1249,-0.33041 0.0535,-0.49264 -1.46512,-3.28331 -4.98518,-3.29122 -8.09088,-3.29815 -2.065847,-0.005 -4.017691,-0.009 -4.994109,-0.96847 -0.819794,-0.80426 -1.672301,-1.97651 -1.07852,-2.99247 0.842594,-1.44232 4.211979,-2.1338 6.802209,-1.39582 0.19628,0.0564 0.4094,-0.0158 0.53133,-0.17708 0.12292,-0.16323 0.13383,-0.38581 0.0248,-0.55892 -2.43361,-3.91742 -4.894971,-4.07075 -7.27406,-4.21914 -1.846767,-0.11475 -3.591432,-0.22357 -5.40747,-2.13578 -1.065634,-1.12279 -1.327333,-2.43157 -0.666145,-3.33376 0.77023,-1.05157 2.953044,-1.66292 6.565294,0.0801 0.184379,0.089 0.402462,0.0564 0.553138,-0.0821 0.149684,-0.13948 0.199249,-0.35415 0.124902,-0.54408 -1.932018,-4.91458 -5.266708,-5.58726 -7.700317,-6.07892 -1.083477,-0.21862 -2.018261,-0.40757 -2.526791,-0.91406 -1.219283,-1.21579 -1.057703,-2.97368 -0.28549,-4.0114 0.805916,-1.08421 2.540668,-1.7747 4.987164,-0.46296 0.170502,0.091 0.377681,0.0752 0.53133,-0.0396 0.154641,-0.11476 0.227996,-0.30964 0.188345,-0.49759 -0.887202,-4.22507 -3.164188,-5.36271 -4.995095,-6.27677 -1.117181,-0.55793 -2.083686,-1.04069 -2.581312,-2.116 -0.392549,-0.84877 -0.326133,-2.17436 0.351907,-2.6769 0.753378,-0.55694 2.177858,0.01 3.91261,1.55609 0.171493,0.15234 0.425262,0.16718 0.613607,0.0366 0.188344,-0.13058 0.262691,-0.37393 0.178431,-0.58761 -1.395732,-3.53062 -2.513904,-4.40314 -3.254395,-4.97987 -0.456983,-0.35612 -0.646319,-0.50451 -0.743465,-1.20391 -0.16158,-1.1594 0.05254,-2.20107 0.494652,-2.41772 0.167527,-0.0831 0.833672,-0.23148 2.404862,1.34736 0.143737,0.14443 0.360829,0.18598 0.548182,0.10585 0.187353,-0.0811 0.306308,-0.26809 0.299369,-0.47187 -0.09913,-2.82925 -0.947671,-4.64847 -1.567225,-5.97703 -0.591798,-1.26821 -0.813847,-1.80537 -0.378672,-2.38012 0.364794,-0.48078 0.987322,-0.36108 1.972661,-0.12663 1.216309,0.28985 2.881672,0.68753 3.848176,-1.19797 1.278761,-2.49389 2.583294,-3.3397 3.378307,-3.30013 0.7167,0.0356 1.145927,0.76073 1.381854,1.3612 0.429227,1.09807 -0.667136,2.33858 -1.826942,3.65131 -1.30156,1.47398 -2.778578,3.14382 -2.427662,5.0867 0.379663,2.10809 1.620754,2.60963 2.820211,3.09436 1.003183,0.4056 2.04106,0.82405 2.990713,2.15953 0.895136,1.25832 1.275786,2.11204 1.527576,2.67789 0.42427,0.95066 0.66614,1.37208 1.96671,1.39582 1.16774,0.0218 1.59003,-0.51243 1.7407,-0.96352 0.67705,-2.03686 -3.37632,-6.54485 -6.465173,-8.75285 -0.291438,-0.20873 -0.341994,-0.38284 -0.354881,-0.49561 -0.07137,-0.6262 0.869359,-1.6926 1.77936,-2.72439 1.081494,-1.22567 2.306724,-2.61655 2.834094,-4.17659 0.6939,-2.04873 -0.96056,-3.8274 -2.41974,-5.39733 -1.494856,-1.60752 -2.357276,-2.65019 -1.73673,-3.58602 4.64517,-6.98902 5.85851,-13.99783 3.33072,-19.22797 -1.897319,-3.92632 -5.686018,-6.32722 -10.670209,-6.75853 -8.176135,-0.70731 -15.654405,1.96069 -22.886835,4.54064 -8.37241,2.98851 -16.280897,5.80984 -25.143994,3.79574 -0.171493,-0.0396 -0.352898,0.0168 -0.470862,0.14344 -0.08822,0.093 -0.135806,0.21466 -0.135806,0.33931 0,0.0465 0.0069,0.093 0.02082,0.13849 2.040069,6.99595 7.000469,9.42752 14.763237,10.85104 -4.169353,2.00817 -7.044085,6.19862 -10.058589,10.62253 -4.501434,6.6042 -9.156518,13.43396 -18.835444,15.15623 -0.164554,0.0297 -0.303334,0.13949 -0.368759,0.29183 -0.02577,0.0623 -0.03965,0.1286 -0.03965,0.19488 0,0.096 0.02776,0.19093 0.08327,0.27304 6.188604,9.30089 14.413313,6.24115 20.418529,4.00644 0.926854,-0.34426 1.788282,-0.64795 2.602129,-0.90516 -6.87061,15.79826 -22.365418,35.04701 -35.231332,50.15972 -0.07633,0.091 -0.117963,0.20378 -0.117963,0.32052 0,0.0188 9.92e-4,0.0356 0.003,0.0544 0.01487,0.13553 0.08525,0.25919 0.193301,0.34129 5.886262,4.4338 19.58684,-10.7254 30.594091,-22.90599 3.36641,-3.72352 6.298637,-6.94846 8.532007,-9.08523 -3.970104,14.88716 -18.518232,39.08115 -30.31653,58.68207 -4.888036,8.11874 -9.107945,15.13052 -11.861741,20.30032 -0.03866,0.0722 -0.05848,0.15234 -0.05848,0.23148 0,0.093 0.02577,0.18499 0.07732,0.26611 0.09615,0.14937 0.265665,0.23643 0.443105,0.22752 9.147597,-0.45109 28.95252,-24.23059 48.504664,-58.07368 -4.040485,24.8093 -36.460527,87.75601 -44.776433,102.27715 -0.04362,0.0762 -0.06443,0.16026 -0.06443,0.24534 0,0.0762 0.01784,0.15135 0.05254,0.22159 0.07435,0.14838 0.218083,0.24929 0.382637,0.26907 16.957947,2.0794 49.429535,-66.22013 56.063228,-80.58892 -0.0228,15.73989 -15.014033,50.97189 -24.942764,65.47225 -0.05849,0.0841 -0.08723,0.18203 -0.08723,0.27897 0,0.0712 0.01586,0.14443 0.04758,0.2117 0.07534,0.15828 0.228987,0.26611 0.404445,0.28095 15.344131,1.36516 28.396407,-18.38118 37.754156,-57.09632 1.104294,2.12392 1.619763,4.81565 1.619763,7.89419 0,9.63723 -4.664005,22.68737 -9.307193,31.2394 -0.03965,0.0732 -0.06047,0.15432 -0.06047,0.23544 0,0.0811 0.02082,0.16322 0.06146,0.23643 0.08029,0.1474 0.229979,0.24434 0.397506,0.2572 9.628371,0.72413 17.867948,-19.16862 20.027963,-25.61356 0.430218,1.57291 0.694893,3.04787 0.694893,4.35466 0,4.31609 -1.996453,7.31449 -3.69651,9.86674 -0.912976,1.37209 -1.775395,2.66602 -2.222466,3.98766 -0.602702,1.78163 -0.640371,3.26945 -0.669119,4.46446 -0.05155,2.07346 -0.0793,3.21505 -2.627901,4.36258 -3.587468,1.61643 -5.061512,5.4913 -6.363072,8.91014 l -1.198466,2.92619 c -0.979391,2.05268 -4.392392,2.67492 -7.30182,1.32954 -0.16158,-0.0742 -0.350915,-0.0574 -0.495643,0.0455 -0.131841,0.094 -0.208171,0.24434 -0.208171,0.40361 0,0.0158 9.92e-4,0.0317 0.002,0.0485 0.358846,3.66417 1.983565,4.9769 6.953878,5.61991 1.192519,0.15333 2.164971,0.79436 2.888611,1.90529 0.957583,1.46903 1.358063,3.51578 1.358063,5.53977 0,1.46805 -0.211144,2.92619 -0.573955,4.14297 -0.470862,1.5818 -0.638389,3.02709 -0.638389,4.38829 0,1.71338 0.265665,3.2932 0.526373,4.84335 0.262691,1.56103 0.516461,3.0726 0.516461,4.68903 0,1.2969 -0.163563,2.65909 -0.617572,4.1667 -1.167736,3.87785 -3.921531,6.89702 -6.351176,9.55909 -1.847759,2.02597 -3.593415,3.93818 -4.32102,5.91569 -0.275578,0.75083 -0.387593,1.42847 -0.387593,2.05763 0,1.28503 0.462931,2.35935 0.914958,3.40993 0.427245,0.9932 0.840611,1.95178 0.840611,3.08249 0,0.60146 -0.148693,1.26722 -0.443105,1.99927 -3.890802,-0.0821 -6.774455,-3.60185 -9.561954,-7.02167 -2.800386,-3.43664 -5.696927,-6.99001 -9.68884,-7.12257 -3.724265,-0.12465 -5.737569,3.90554 -7.513955,7.46089 -1.342203,2.68679 -2.61105,5.22322 -4.34382,5.73664 -2.085668,0.61729 -3.709396,-0.52925 -5.588876,-1.85781 -1.742682,-1.23161 -3.719309,-2.62743 -6.334324,-2.61853 -2.766682,0.01 -3.564668,1.34043 -4.334898,2.62843 -0.781134,1.3058 -1.589033,2.65612 -4.704648,3.07457 -0.179423,0.0228 -0.330098,0.14344 -0.395523,0.31063 -0.06542,0.16718 -0.0337,0.35711 0.08129,0.49561 3.192936,3.81651 4.889028,3.61767 6.684248,3.40696 0.906037,-0.10585 1.761517,-0.20675 2.930245,0.20774 1.171701,0.41648 2.022225,1.82417 3.007564,3.45346 1.79423,2.96576 4.249648,7.02859 10.539364,7.9021 5.437209,0.75677 8.553815,-4.54064 10.828819,-8.4076 1.043825,-1.77273 2.122346,-3.6068 2.820212,-3.57415 0.188344,0.009 0.588824,0.20181 1.150884,1.39484 1.484948,3.15173 4.39834,3.66713 6.967756,4.12218 2.056921,0.36504 3.81249,0.73007 4.634267,2.27329 -2.064851,2.00718 -5.734595,3.23088 -9.655136,4.50107 -5.148744,1.66886 -10.473938,3.3941 -13.623257,7.20765 -3.646945,4.41797 -4.374549,8.12369 -5.145771,12.04704 -0.634423,3.22494 -1.289664,6.55969 -3.577554,10.72144 -0.04064,0.0742 -0.06146,0.1563 -0.06146,0.23742 0,0.13355 0.05452,0.26512 0.156623,0.36009 0.164554,0.15432 0.413367,0.17905 0.603694,0.0584 4.179266,-2.64128 6.504825,-2.55819 9.446965,-2.45333 2.44154,0.0871 5.487765,0.14443 10.245942,-1.35625 -1.885427,3.44851 -2.52679,6.70115 -2.52679,9.8242 0,2.43948 0.310273,4.8107 0.69291,7.1384 0.676057,4.11427 3.202848,7.18094 2.367193,10.21198 -0.196275,0.70039 0.426253,0.88241 0.426253,0.88241 z"
   id="path6231"
   style="fill:#000000" /><path
   d="m 173.44696,275.49163 c 0,1.88056 -1.52758,3.40597 -3.41201,3.40597 -1.88444,0 -3.413,-1.52541 -3.413,-3.40597 0,-1.88056 1.52856,-3.40598 3.413,-3.40598 1.88443,0 3.41201,1.52542 3.41201,3.40598 z"
   id="path6241"
   style="fill:#ffffff;stroke:#000000;stroke-width:1.98053193;stroke-linecap:round;stroke-linejoin:round" /><path
   d="m 129.75697,261.32464 c -1.137,1.50068 -0.84061,3.63646 0.66317,4.77113 1.50379,1.13467 3.64398,0.83789 4.78098,-0.66181 1.13602,-1.49969 0.83962,-3.63646 -0.66416,-4.77014 -1.50279,-1.13664 -3.64397,-0.83987 -4.77999,0.66082 z"
   id="path6318"
   style="fill:#ffffff;stroke:#000000;stroke-width:1.98053193;stroke-linecap:round;stroke-linejoin:round" /><path
   d="m 115.27625,409.26143 c -1.43439,5.22816 3.45959,7.29569 5.68404,1.76383 m -17.57948,-5.72081 c -1.43439,5.22816 3.45959,7.29568 5.68404,1.76382 m 9.18526,-10.66704 c -1.43439,5.22817 3.4596,7.29569 5.68404,1.76383 m -17.57948,-5.72081 c -1.43439,5.22816 3.45959,7.29569 5.68404,1.76382 m 5.22012,-11.65628 c -1.4344,5.22816 3.45959,7.29569 5.68404,1.76382 m -16.5882,-33.41969 c -1.43439,5.22816 3.45959,7.29568 5.68404,1.76382 m 7.20269,3.18241 c -1.43439,5.22816 3.45959,7.29568 5.68404,1.76382 m -19.56206,-20.5595 c -1.43439,5.22817 3.45959,7.29569 5.68404,1.76383 m 6.21141,2.19316 c -1.4344,5.22816 3.45959,7.29568 5.68404,1.76382 m -7.66662,-15.61327 c -1.43439,5.22817 3.45959,7.29569 5.68404,1.76383 m 6.21141,2.19316 c -1.4344,5.22816 3.45959,7.29568 5.68404,1.76382 m -3.70147,-29.46271 c -1.43439,5.22816 3.45959,7.29569 5.68404,1.76382 m 7.20269,3.18241 c -1.43439,5.22816 3.45959,7.29569 5.68404,1.76382 m -22.53592,6.15015 c -1.43439,5.22816 3.45959,7.29568 5.68404,1.76382 m 7.20269,3.18241 c -1.43439,5.22816 3.4596,7.29568 5.68404,1.76382 m -5.68404,12.08562 c -1.43439,5.22816 3.4596,7.29569 5.68404,1.76383 m -15.59691,8.12863 c -1.43439,5.22816 3.4596,7.29569 5.68404,1.76383 m 6.21141,2.19315 c -1.43439,5.22817 3.45959,7.29569 5.68404,1.76383 m -13.61434,9.11788 c -1.43439,5.22816 3.45959,7.29569 5.68404,1.76383 m -11.63176,9.11788 c -1.43439,5.22816 3.45959,7.29568 5.68404,1.76382 m -17.57948,-3.74232 c -1.4344,5.22817 3.45959,7.29569 5.68404,1.76383 m -16.5882,-6.71006 c -1.43439,5.22817 3.45959,7.29569 5.68404,1.76383 m -5.68404,12.08562 c -1.43439,5.22816 3.45959,7.29569 5.68404,1.76382 M 94.459226,428.0571 c -1.434392,5.22817 3.459592,7.29569 5.684044,1.76383 m 2.73496,-120.8918 c -0.0426,-0.0129 -0.0952,-0.007 -0.13878,-0.0188 0.0466,0 0.0932,0.005 0.13878,0.0188 z M 75.829969,437.38767 c -1.345176,-0.72413 -2.252204,-0.68258 -3.696509,-0.31557 -1.444305,0.36602 -2.839046,0.47583 -4.029582,1.47002 m -29.196376,0.81118 c 1.975635,0.47286 3.11165,1.47398 4.502426,2.52555 1.391767,1.05058 2.848959,3.16658 3.214744,4.60791 M 35.276418,422.20868 c 1.484948,1.12082 1.577138,1.76976 1.964731,3.37333 0.388584,1.60456 -0.08525,4.15285 -1.045808,5.61298 m 16.420669,-22.8219 c 0.365785,1.44133 0.286482,3.85509 -0.695883,5.151 -0.981374,1.2969 -2.823185,2.37815 -4.707622,2.55819 M 192.2368,359.21547 c -11.04789,23.274 -25.16382,84.21748 -24.24291,100.44903 m 0.9209,-90.95622 c -3.06902,4.59406 -18.41315,46.54897 -17.49225,62.16817 m -2.76271,-60.63682 c -2.45542,3.06271 -10.4333,16.23155 -10.4333,27.86904 m 8.34069,-36.51999 c 2.18083,1.18709 4.1634,3.06666 6.74075,0.0989 m 5.15469,-0.98923 c 1.98258,1.08916 6.04784,2.76989 7.83117,0.19785 m -10.30939,-9.89246 c 2.77561,0.7914 5.05656,1.28602 6.34424,-0.19785 m 9.81374,8.90322 c 2.27996,1.18709 7.13727,-0.0999 7.9303,-1.97849 m -11.79632,-8.0129 c 2.77561,0.7914 6.04685,0.3957 7.03814,-2.07741 m -70.8453,71.52149 c -1.43538,5.22817 3.4586,7.29569 5.68404,1.76383 M 94.459226,388.48726 c -1.434392,5.22817 3.459592,7.29569 5.684044,1.76383 m -9.649192,11.09637 c -1.434392,5.22817 3.459592,7.29569 5.68404,1.76383 m -3.701466,12.08562 c -1.434392,5.22816 3.459592,7.29568 5.68404,1.76382 M 86.150258,226.34589 c 6.759586,-0.93583 21.597172,3.19922 9.544112,19.78492 m -37.126672,0.48275 c -8.430896,5.53978 -13.787811,25.30293 -25.322427,24.27709 m 20.039858,3.90158 c -4.981217,12.64751 -22.458598,34.93325 -32.835391,45.86738 m 36.989875,-25.45429 c -7.512964,21.59129 -27.404129,53.42324 -37.656019,69.49157 m 44.381901,-47.90424 c -5.255803,25.21291 -30.831999,82.31912 -41.376319,94.7114 m 54.241242,-73.10033 c -0.329107,5.5101 -13.448791,48.2109 -23.623361,60.1145 M 92.25956,351.81591 c 0.107059,3.92039 -1.488913,19.22798 -8.523086,28.5081 m 15.421452,-34.14779 c -2.4574,-0.36602 -5.174518,-0.0603 -5.435226,-3.97874 m -3.515104,-3.89269 c -2.239317,-0.32546 -6.496895,-1.43045 -6.366045,-4.55548 m 14.20316,-1.68567 c -2.692336,-1.0397 -4.810716,-2.01707 -4.940574,-3.97776 m -13.2089,1.196 c -2.536703,-0.42538 -5.633484,-4.37642 -5.128919,-6.35096 m 14.250742,0.70929 c -2.692335,-1.0397 -5.061511,-3.32387 -4.357697,-5.89294 m -9.79689,0.7914 c -2.812281,-0.88241 -6.468147,-3.76507 -5.065476,-7.41935 m 12.558615,2.77978 c -2.496061,-0.64301 -5.397558,-3.70175 -3.621172,-6.70214 m -1.967704,-3.9649 c -2.33349,-1.51156 -5.650336,-5.00855 -4.014713,-7.49452 m 0.559086,-5.65651 c -2.390984,-1.92804 -5.016903,-5.02537 -2.844002,-7.727 m 1.015078,-5.93152 c -2.075755,-1.68963 -3.667762,-4.99965 -0.627485,-7.0464 m 3.045234,-3.03501 c -1.222257,-1.66688 -2.001409,-5.23113 -0.625503,-7.0464 m -5.849584,44.94837 c -2.768665,-1.59268 -4.381489,-5.04317 -2.825168,-7.58751 m -0.858455,-8.21371 c -1.87948,-1.29394 -4.380497,-5.53681 -1.353106,-8.7113 m 0.874315,-5.4181 c -1.739709,-1.31273 -2.674493,-5.49131 0.781134,-7.09982 m 0.613607,-4.7464 c -1.500809,-1.6283 -3.050191,-5.65157 0.227004,-7.02266 m 5.102154,-1.9775 c -1.37888,-2.2812 -2.632858,-5.70894 -0.959565,-7.91694 m 7.753847,243.65228 -9.91287,30.172 M 229.36942,273.84157 c -4.82459,-4.81565 -19.1586,-10.44842 -19.569,10.0359 m 29.3193,22.73287 c 3.37533,9.49379 -4.29723,28.48138 5.52345,34.6058 m -18.34178,-8.95168 c -3.67173,13.08673 -3.20087,41.38115 -1.53451,56.34943 m -14.11692,-42.56825 c -7.05797,21.74363 -10.4333,59.10547 -11.96781,78.09306 m -16.03208,-69.96937 c 2.7756,0.98925 7.43465,0.88933 8.52506,-2.86881 m -11.69718,-5.34193 c 2.37809,0.98924 6.54249,0.29677 6.93901,-3.16559 m 3.96514,-1.97849 c 2.77561,0.19785 7.53478,-0.59355 7.73204,-3.56129 m 2.97386,-4.8473 c 3.07299,-0.0989 7.03913,-0.98925 6.93901,-4.45161 m 2.77561,-5.34193 c 2.67647,-0.0989 5.94772,-1.78064 4.75817,-5.243 m -0.59477,-4.25376 c 1.98258,-0.59355 4.75818,-2.96774 4.75818,-5.243 m -22.50222,39.37199 c 3.17212,0.3957 6.54349,-1.38396 6.83988,-4.35169 m 5.65034,-6.03539 c 2.27996,0.0999 6.83889,-1.77966 6.34325,-6.13234 m 2.57833,-4.84829 c 2.18083,0 5.45208,-2.77088 3.66777,-6.13333 m 2.37908,-4.15483 c 2.18084,-0.39471 5.8486,-2.67097 4.06527,-5.73763 m -2.87572,-4.64946 c 2.47822,-0.98924 5.55121,-2.96773 5.55121,-5.73762 M 94.925131,456.72941 c -0.920906,2.45135 -6.598006,8.88145 -7.826211,11.79082 m -3.379297,-15.92092 c -1.486931,5.44085 -0.991287,10.38708 -2.478218,13.84944 M 59.54808,460.28971 c -5.917983,-6.98705 -12.309802,12.76127 -14.705742,6.78425 m 29.240984,11.31697 c -3.671727,6.00472 -9.756247,5.91074 -14.094119,12.07078 m 49.198567,-14.01168 c 8.9424,-2.01213 2.1045,17.5878 7.62795,14.26295 M 86.653832,482.1372 c -0.701831,6.99991 4.208013,10.58691 3.945322,18.1131"
   id="path6439"
   style="fill:none;stroke:#003366;stroke-width:2.97079802;stroke-linecap:round;stroke-linejoin:round" /><path
   d="m 137.84191,232.73642 c 0.41634,4.98777 1.3878,20.98883 1.3878,20.98883 l 28.73741,11.22201 16.72896,-15.44807 c 0,0 -12.35639,1.59269 -15.0626,0.48473 0.48573,2.14765 1.37491,4.73156 0.83268,5.7495 -1.17963,2.2169 -4.09501,2.49389 -6.03892,1.73118 -1.94392,-0.76271 -4.7899,-3.25561 -3.61027,-5.611 0.83962,-1.67381 4.37356,-2.00817 5.20624,-3.25561 -2.42965,-1.87067 -3.05416,-5.33402 -3.4705,-7.62017 -1.87452,1.52443 -4.30417,3.87884 -7.84405,3.74034 -1.04085,1.24645 2.6844,4.14297 1.80414,5.68025 -1.3878,2.42465 -4.99708,2.56314 -7.35733,1.17721 -2.36026,-1.38594 -3.95623,-4.22507 -2.70721,-5.95724 1.25002,-1.73217 2.42965,-2.00916 4.16539,-2.42464 -2.56842,-1.45222 -8.46856,-3.94611 -12.77174,-10.45732 z m -10.04768,21.97709 c -0.71671,-3.64933 -15.21428,-17.63233 -21.68639,3.82838 4.83649,-2.64722 19.0565,-2.84507 17.21469,11.83336 -4.64914,-5.82666 -14.43909,-5.54275 -17.46152,-1.74404 10.05958,1.07828 15.41451,7.5064 15.05864,15.34518 8.83336,-10.12394 8.72233,-19.83339 6.87458,-29.26288 z m 51.21484,16.68759 c 2.77659,-2.48004 22.79068,-4.90567 14.98132,16.10591 -2.25518,-5.0224 -13.47853,-13.73964 -20.88146,-0.92396 7.23045,-1.84791 14.86633,4.27058 14.98132,9.12085 -8.67674,-5.19552 -16.83206,-3.29122 -21.2869,3.17449 -0.92586,-13.39241 5.03177,-21.06896 12.20572,-27.47729 z m -68.96582,176.98105 c 1.51072,0.23149 2.20958,0.81118 3.1394,1.97256 0.92983,1.16137 1.97762,2.08929 2.32656,3.59888 m 22.79464,18.22092 c -1.86065,-0.81217 -3.37236,-0.69643 -5.11702,-0.69643 -1.74467,0 -4.1872,0.81118 -5.34899,1.74107 m 23.72447,-12.53375 c -1.86163,0 -2.32655,0.46297 -3.6063,1.50762 -1.27876,1.04563 -2.44253,3.36442 -2.55851,5.10648 m 0.69787,-28.08568 c -1.16278,0.92791 -2.55852,2.90245 -2.55852,4.52679 0,1.62434 0.81385,3.5969 2.20958,4.87401 m -31.14921,-30.07406 c 0,0 9.32504,27.45355 7.90948,28.41609 -4.55595,-5.65354 -6.85772,-7.34812 -10.02092,-5.76928 -3.1632,1.57883 -1.04779,3.94511 -2.44253,7.19478 -1.39573,3.24968 -4.65211,3.71462 -2.90844,11.02614 6.97767,-0.58069 4.41916,-2.0883 8.14144,-4.87501 3.72129,-2.78571 5.58194,-1.04464 8.72234,0.58069 2.10946,1.57983 8.60635,10.44545 4.07022,15.78441 -2.86383,3.37036 3.60531,5.57044 1.29264,12.36755 7.08175,-1.69062 13.1177,-8.47981 7.54568,-12.8325 -5.34899,-4.17857 -2.30772,-8.35517 -3.48933,-11.8383 10.81593,2.20503 7.65868,6.63388 11.28183,8.58863 4.30318,2.32176 5.46596,2.32176 6.27981,9.86575 4.30317,-6.15113 5.34898,-14.27482 -0.11598,-17.29202 -5.73956,-3.16855 -7.09464,1.97256 -13.6074,-7.08003 2.67449,-3.48215 3.60035,-4.44963 7.20963,-3.24967 3.16419,1.05156 3.25638,-3.82938 9.76913,-0.11575 -1.16377,-10.67693 -7.61308,-11.21706 -11.39781,-9.28506 -5.00105,2.55324 -4.7681,-3.0172 -10.31335,6.93066 -2.36323,-2.75208 -8.43685,-31.57377 -8.43685,-31.57377 l -9.48959,3.15669 z m -24.362859,-7.69634 c 0,0 -24.031771,16.28497 -23.483589,17.90437 7.050033,-1.7668 9.910887,-1.73217 11.480094,1.43045 1.569208,3.16262 -1.549381,3.77694 -2.400897,7.20863 -0.850524,3.43269 1.465123,5.76335 -4.345802,10.54438 -5.21417,-4.66331 -2.261126,-4.32598 -3.546825,-8.78847 -1.283716,-4.46249 -3.82042,-4.19242 -7.307768,-4.78795 -2.636823,-0.01 -13.177178,3.15174 -12.786611,10.14076 0.246831,4.41204 -6.242134,2.2723 -8.505242,9.08623 -4.626336,-5.61101 -5.338081,-14.65964 1.736735,-14.77736 6.792298,-0.11178 6.891427,-5.27466 9.937652,-7.34119 -9.959461,-4.75135 -10.118066,0.6806 -14.188291,0.0593 -4.835498,-0.73798 -5.762351,-1.43737 -10.971564,4.08856 0.28549,-7.49552 4.35968,-14.60523 10.544319,-13.72283 6.493922,0.92792 4.46674,5.84348 15.133979,2.54435 -0.02875,-4.3883 -0.183388,-5.71686 -3.786716,-6.93363 -3.160223,-1.06542 -0.283508,-5.01449 -7.722126,-5.97208 7.380132,-7.81603 12.851045,-4.36554 14.702769,-0.54507 2.445505,5.04614 5.626545,0.46395 4.03652,11.73542 3.548808,-0.77359 25.813114,-20.10444 25.813114,-20.10444 l 5.660249,8.23052 z"
   id="path6450"
   style="fill:#da121a;stroke:#000000;stroke-width:1.98053193;stroke-linecap:round;stroke-linejoin:round" /><path
   d="m 405.19796,224.40598 c 0,2.32868 -1.8884,4.21418 -4.22288,4.21418 -2.33349,0 -4.22288,-1.8855 -4.22288,-4.21418 0,-2.32869 1.88939,-4.21419 4.22288,-4.21419 2.33448,-9.9e-4 4.22288,1.8855 4.22288,4.21419 z"
   id="path6467"
   style="fill:#ffffff;stroke:#000000;stroke-width:0.99026597;stroke-linecap:round;stroke-linejoin:round" /><path
   d="m 174.09823,223.62051 c 0,-2.32868 1.8884,-4.21517 4.22288,-4.21517 2.33349,0 4.22289,1.88649 4.22289,4.21517 0,2.32869 -1.8894,4.21419 -4.22289,4.21419 -2.33348,0 -4.22288,-1.88649 -4.22288,-4.21419 z m 8.56373,-0.95561 c 0,-2.32769 1.88939,-4.21418 4.22387,-4.21418 2.33349,0 4.22289,1.88649 4.22289,4.21418 0,2.32869 -1.8894,4.21518 -4.22289,4.21518 -2.33448,0 -4.22387,-1.88748 -4.22387,-4.21518 z m 8.56373,-0.87845 c 0,-2.32868 1.88939,-4.21517 4.22387,-4.21517 2.33349,0 4.22289,1.88649 4.22289,4.21517 0,2.32869 -1.8894,4.21419 -4.22289,4.21419 -2.33448,0 -4.22387,-1.88451 -4.22387,-4.21419 z m 8.56373,-0.79931 c 0,-2.32769 1.88939,-4.21419 4.22288,-4.21419 2.33349,0 4.22288,1.8865 4.22288,4.21419 0,2.32869 -1.8884,4.21419 -4.22288,4.21419 -2.3325,-9.9e-4 -4.22288,-1.88649 -4.22288,-4.21419 z m 8.56373,-0.72215 c 0,-2.32868 1.8884,-4.21518 4.22288,-4.21518 2.33349,0 4.22288,1.8865 4.22288,4.21518 0,2.32869 -1.88939,4.21419 -4.22288,4.21419 -2.33448,0 -4.22288,-1.8855 -4.22288,-4.21419 z m 8.56372,-0.64499 c 0,-2.32769 1.8894,-4.21418 4.22388,-4.21418 2.33349,0 4.22288,1.88649 4.22288,4.21418 0,2.32869 -1.88939,4.21419 -4.22288,4.21419 -2.33448,9.9e-4 -4.22388,-1.8855 -4.22388,-4.21419 z m 8.56274,-0.56387 c 0,-2.32868 1.88939,-4.21517 4.22288,-4.21517 2.33349,0 4.22388,1.88649 4.22388,4.21517 0,2.32869 -1.8894,4.21419 -4.22388,4.21419 -2.33249,-9.9e-4 -4.22288,-1.88649 -4.22288,-4.21419 z m 8.56373,-0.48868 c 0,-2.3277 1.88939,-4.21419 4.22387,-4.21419 2.33349,0 4.22289,1.88649 4.22289,4.21419 0,2.32868 -1.8894,4.21418 -4.22289,4.21418 -2.33448,0 -4.22387,-1.88649 -4.22387,-4.21418 z m 8.56472,-0.40856 c 0,-2.32869 1.88939,-4.21518 4.22288,-4.21518 2.33349,0 4.22288,1.88649 4.22288,4.21518 0,2.32868 -1.8884,4.21419 -4.22288,4.21419 -2.33349,9.8e-4 -4.22288,-1.8865 -4.22288,-4.21419 z m 8.56274,-0.33041 c 0,-2.3277 1.88939,-4.21419 4.22288,-4.21419 2.33349,0 4.22288,1.88649 4.22288,4.21419 0,2.32868 -1.8884,4.21419 -4.22288,4.21419 -2.3325,9.9e-4 -4.22288,-1.88649 -4.22288,-4.21419 z m 8.56372,-0.25127 c 0,-2.32868 1.8894,-4.21518 4.22388,-4.21518 2.33349,0 4.22288,1.8865 4.22288,4.21518 0,2.32869 -1.88939,4.21419 -4.22288,4.21419 -2.33448,9.9e-4 -4.22388,-1.8855 -4.22388,-4.21419 z m 8.56373,-0.17114 c 0,-2.32769 1.8894,-4.21419 4.22289,-4.21419 2.33349,0 4.22387,1.8865 4.22387,4.21419 0,2.32869 -1.88939,4.21419 -4.22387,4.21419 -2.33349,-9.9e-4 -4.22289,-1.8855 -4.22289,-4.21419 z m 8.56274,-0.094 c 0,-2.32868 1.88939,-4.21517 4.22387,-4.21517 2.33449,0 4.22388,1.88649 4.22388,4.21517 0,2.32869 -1.88939,4.21419 -4.22388,4.21419 -2.33448,0 -4.22387,-1.8855 -4.22387,-4.21419 z m 8.56472,-0.0129 c 0,-2.32769 1.8884,-4.21419 4.22288,-4.21419 2.33448,0 4.22289,1.8865 4.22289,4.21419 0,2.32869 -1.8894,4.21419 -4.22289,4.21419 -2.3325,-9.9e-4 -4.22288,-1.88649 -4.22288,-4.21419 z m 8.56373,0.0663 c 0,-2.32769 1.88939,-4.21419 4.22387,-4.21419 2.33349,0 4.22288,1.8865 4.22288,4.21419 0,2.32869 -1.88939,4.21419 -4.22288,4.21419 -2.33448,-9.9e-4 -4.22387,-1.88649 -4.22387,-4.21419 z m 8.56274,0.14443 c 0,-2.32769 1.88939,-4.21419 4.22288,-4.21419 2.33349,0 4.22387,1.8865 4.22387,4.21419 0,2.32869 -1.88939,4.21419 -4.22387,4.21419 -2.3325,-9.9e-4 -4.22288,-1.8855 -4.22288,-4.21419 z m 8.56472,0.22555 c 0,-2.3277 1.8884,-4.21419 4.22288,-4.21419 2.33349,0 4.22288,1.88649 4.22288,4.21419 0,2.32869 -1.88939,4.21419 -4.22288,4.21419 -2.33448,-9.9e-4 -4.22288,-1.8855 -4.22288,-4.21419 z m 8.56372,0.3037 c 0,-2.3277 1.8894,-4.21419 4.22388,-4.21419 2.33349,0 4.22288,1.88649 4.22288,4.21419 0,2.32868 -1.88939,4.21419 -4.22288,4.21419 -2.33448,0 -4.22388,-1.88452 -4.22388,-4.21419 z m 8.56274,0.38482 c 0,-2.3277 1.88939,-4.21419 4.22288,-4.21419 2.33349,0 4.22388,1.88649 4.22388,4.21419 0,2.32868 -1.8894,4.21418 -4.22388,4.21418 -2.33249,9.9e-4 -4.22288,-1.8855 -4.22288,-4.21418 z m 8.56373,0.46692 c 0,-2.3277 1.88939,-4.21419 4.22288,-4.21419 2.33448,0 4.22288,1.88649 4.22288,4.21419 0,2.32868 -1.88741,4.21419 -4.22288,4.21419 -2.33349,-9.9e-4 -4.22288,-1.88649 -4.22288,-4.21419 z m 8.56472,0.54408 c 0,-2.32769 1.8884,-4.21418 4.22288,-4.21418 2.33349,0 4.22288,1.88649 4.22288,4.21418 0,2.32869 -1.88939,4.21419 -4.22288,4.21419 -2.33448,0 -4.22288,-1.8855 -4.22288,-4.21419 z m 8.56174,0.62719 c 0,-2.3277 1.8894,-4.21419 4.22289,-4.21419 2.33349,0 4.22387,1.88649 4.22387,4.21419 0,2.32868 -1.88939,4.21418 -4.22387,4.21418 -2.3325,0 -4.22289,-1.8855 -4.22289,-4.21418 z m 8.56472,0.70632 c 0,-2.3277 1.8894,-4.21419 4.22289,-4.21419 2.33349,0 4.22387,1.88649 4.22387,4.21419 0,2.32769 -1.88939,4.2132 -4.22387,4.2132 -2.33349,9.9e-4 -4.22289,-1.88452 -4.22289,-4.2132 z m 8.56373,0.78744 c 0,-2.3277 1.8894,-4.21419 4.22388,-4.21419 2.33349,0 4.22288,1.88649 4.22288,4.21419 0,2.32868 -1.88939,4.21419 -4.22288,4.21419 -2.33448,9.9e-4 -4.22388,-1.88551 -4.22388,-4.21419 z m 8.56274,0.86856 c 0,-2.3277 1.88939,-4.21419 4.22288,-4.21419 2.33349,0 4.22388,1.88649 4.22388,4.21419 0,2.32868 -1.8894,4.21418 -4.22388,4.21418 -2.3325,9.9e-4 -4.22288,-1.8855 -4.22288,-4.21418 z m 8.56373,0.95066 c 0,-2.32868 1.88939,-4.21419 4.22288,-4.21419 2.33349,0 4.22387,1.8865 4.22387,4.21419 0,2.3277 -1.88939,4.21419 -4.22387,4.21419 -2.33349,0 -4.22288,-1.88649 -4.22288,-4.21419 z"
   id="path6909"
   style="fill:#ffffff;stroke:#000000;stroke-width:0.99026597;stroke-linecap:round;stroke-linejoin:round" /><path
   d="m 165.5355,224.65329 c 0,2.32868 1.8884,4.21419 4.22288,4.21419 2.33349,0 4.22288,-1.88551 4.22288,-4.21419 0,-2.32869 -1.88939,-4.21419 -4.22288,-4.21419 -2.33448,-9.9e-4 -4.22288,1.8855 -4.22288,4.21419 z"
   id="path6926"
   style="fill:#ffffff;stroke:#000000;stroke-width:0.99026597;stroke-linecap:round;stroke-linejoin:round" /><path
   d="m 163.52021,167.9408 c 73.78149,-10.18329 161.9525,-10.44446 244.10442,-0.26116"
   id="path6928"
   style="fill:none;stroke:#000000;stroke-width:1.98053193;stroke-linecap:round;stroke-linejoin:round" /><path
   d="m 164.42724,172.26777 c 73.23331,-10.10812 160.75007,-10.3673 242.29235,-0.25919"
   id="path6930"
   style="fill:none;stroke:#000000;stroke-width:1.98053193;stroke-linecap:round;stroke-linejoin:round" /><path
   d="m 165.79026,182.07317 c 72.40955,-9.99435 158.94196,-10.25057 239.56631,-0.25621"
   id="path6932"
   style="fill:none;stroke:#000000;stroke-width:1.98053193;stroke-linecap:round;stroke-linejoin:round" /><path
   d="m 165.79026,186.03016 c 72.40955,-9.99436 158.94196,-10.25057 239.56631,-0.25622"
   id="path6934"
   style="fill:none;stroke:#000000;stroke-width:1.98053193;stroke-linecap:round;stroke-linejoin:round" /><path
   d="m 168.47664,214.97549 c 70.78483,-9.76979 155.37631,-10.02007 234.19156,-0.25028"
   id="path6936"
   style="fill:none;stroke:#000000;stroke-width:1.98053193;stroke-linecap:round;stroke-linejoin:round" /><path
   d="m 169.34005,219.58637 c 70.26243,-9.69758 154.23038,-9.94687 232.46474,-0.2483"
   id="path6938"
   style="fill:none;stroke:#000000;stroke-width:1.98053193;stroke-linecap:round;stroke-linejoin:round" /><path
   d="m 160.49282,177.36634 c 0,2.3277 1.8884,4.21419 4.22288,4.21419 2.33349,0 4.22288,-1.88649 4.22288,-4.21419 0,-2.32869 -1.88939,-4.21518 -4.22288,-4.21518 -2.33448,0 -4.22288,1.88748 -4.22288,4.21518 z m 8.61131,-1.06542 c 0,-2.32868 1.88939,-4.21518 4.22288,-4.21518 2.33349,0 4.22387,1.8865 4.22387,4.21518 0,2.32869 -1.88939,4.21419 -4.22387,4.21419 -2.33349,0 -4.22288,-1.88649 -4.22288,-4.21419 z m 8.6123,-0.98924 c 0,-2.32869 1.88939,-4.21419 4.22288,-4.21419 2.33349,0 4.22288,1.8855 4.22288,4.21419 0,2.32868 -1.8884,4.21418 -4.22288,4.21418 -2.33349,0 -4.22288,-1.8855 -4.22288,-4.21418 z m 8.61131,-0.9111 c 0,-2.32869 1.88939,-4.21518 4.22387,-4.21518 2.33349,0 4.22289,1.88748 4.22289,4.21518 0,2.32868 -1.8894,4.21419 -4.22289,4.21419 -2.33448,0 -4.22387,-1.88551 -4.22387,-4.21419 z m 8.61131,-0.83393 c 0,-2.32869 1.88939,-4.21518 4.22288,-4.21518 2.33349,0 4.22388,1.88649 4.22388,4.21518 0,2.32769 -1.8894,4.21418 -4.22388,4.21418 -2.3325,-9.9e-4 -4.22288,-1.88748 -4.22288,-4.21418 z m 8.6123,-0.75678 c 0,-2.32868 1.8884,-4.21517 4.22288,-4.21517 2.33349,0 4.22289,1.88649 4.22289,4.21517 0,2.32671 -1.8894,4.2132 -4.22289,4.2132 -2.33349,0 -4.22288,-1.88649 -4.22288,-4.2132 z m 8.61131,-0.67961 c 0,-2.32868 1.88939,-4.21518 4.22288,-4.21518 2.33349,0 4.22388,1.8865 4.22388,4.21518 0,2.32869 -1.88939,4.21419 -4.22388,4.21419 -2.33249,-9.9e-4 -4.22288,-1.8855 -4.22288,-4.21419 z m 8.6123,-0.60146 c 0,-2.32869 1.8884,-4.21518 4.22289,-4.21518 2.33349,0 4.22288,1.88748 4.22288,4.21518 0,2.32769 -1.88939,4.2132 -4.22288,4.2132 -2.33349,0 -4.22289,-1.88551 -4.22289,-4.2132 z m 8.61131,-0.52529 c 0,-2.32869 1.8894,-4.21518 4.22289,-4.21518 2.33349,0 4.22387,1.88649 4.22387,4.21518 0,2.32769 -1.88939,4.21419 -4.22387,4.21419 -2.3325,9.9e-4 -4.22289,-1.8865 -4.22289,-4.21419 z m 8.6123,-0.44417 c 0,-2.32869 1.8894,-4.21518 4.22289,-4.21518 2.33349,0 4.22288,1.88649 4.22288,4.21518 0,2.32769 -1.8884,4.2132 -4.22288,4.2132 -2.3325,-9.9e-4 -4.22289,-1.8865 -4.22289,-4.2132 z m 8.61231,-0.368 c 0,-2.32869 1.8884,-4.21419 4.22288,-4.21419 2.33349,0 4.22288,1.88649 4.22288,4.21419 0,2.32769 -1.88939,4.21419 -4.22288,4.21419 -2.33448,-9.9e-4 -4.22288,-1.8865 -4.22288,-4.21419 z m 8.61131,-0.28985 c 0,-2.32869 1.88939,-4.21419 4.22288,-4.21419 2.33349,0 4.22387,1.88649 4.22387,4.21419 0,2.32769 -1.88939,4.21419 -4.22387,4.21419 -2.33349,-9.9e-4 -4.22288,-1.88551 -4.22288,-4.21419 z m 8.6123,-0.21071 c 0,-2.32869 1.88939,-4.21518 4.22288,-4.21518 2.33349,0 4.22288,1.88649 4.22288,4.21518 0,2.3277 -1.8884,4.21419 -4.22288,4.21419 -2.33349,-9.9e-4 -4.22288,-1.88748 -4.22288,-4.21419 z m 8.61131,-0.13355 c 0,-2.32868 1.88939,-4.21518 4.22288,-4.21518 2.33349,0 4.22387,1.8865 4.22387,4.21518 0,2.3277 -1.88939,4.21419 -4.22387,4.21419 -2.33349,9.9e-4 -4.22288,-1.88649 -4.22288,-4.21419 z m 8.6123,-0.0534 c 0,-2.32868 1.88939,-4.21419 4.22288,-4.21419 2.33349,0 4.22288,1.8865 4.22288,4.21419 0,2.3277 -1.8884,4.21419 -4.22288,4.21419 -2.33349,0 -4.22288,-1.88451 -4.22288,-4.21419 z m 8.6123,0.0267 c 0,-2.32868 1.8884,-4.21419 4.22189,-4.21419 2.33349,0 4.22288,1.8865 4.22288,4.21419 0,2.3277 -1.88939,4.21419 -4.22288,4.21419 -2.33349,-0.002 -4.22189,-1.88649 -4.22189,-4.21419 z m 8.61131,0.10387 c 0,-2.32868 1.8884,-4.21419 4.22288,-4.21419 2.33349,0 4.22289,1.8865 4.22289,4.21419 0,2.3277 -1.8894,4.21419 -4.22289,4.21419 -2.33448,-9.9e-4 -4.22288,-1.8855 -4.22288,-4.21419 z m 8.61131,0.184 c 0,-2.32868 1.88939,-4.21517 4.22388,-4.21517 2.33249,0 4.22189,1.88649 4.22189,4.21517 0,2.3277 -1.8894,4.21419 -4.22189,4.21419 -2.33449,-9.9e-4 -4.22388,-1.88748 -4.22388,-4.21419 z m 8.6123,0.26116 c 0,-2.32868 1.8894,-4.21517 4.22289,-4.21517 2.33348,0 4.22288,1.88649 4.22288,4.21517 0,2.32869 -1.8894,4.21419 -4.22288,4.21419 -2.33349,0 -4.22289,-1.8855 -4.22289,-4.21419 z m 8.61131,0.34228 c 0,-2.32868 1.8884,-4.21517 4.22289,-4.21517 2.33349,0 4.22288,1.88649 4.22288,4.21517 0,2.32869 -1.88939,4.21419 -4.22288,4.21419 -2.33349,9.9e-4 -4.22289,-1.8855 -4.22289,-4.21419 z m 8.6123,0.4234 c 0,-2.32869 1.8894,-4.21419 4.22289,-4.21419 2.33349,0 4.22288,1.88649 4.22288,4.21419 0,2.3277 -1.8884,4.2132 -4.22288,4.2132 -2.33349,-9.9e-4 -4.22289,-1.88649 -4.22289,-4.2132 z m 8.61131,0.50155 c 0,-2.32869 1.8894,-4.21518 4.22289,-4.21518 2.33349,0 4.22288,1.88649 4.22288,4.21518 0,2.32769 -1.88939,4.21419 -4.22288,4.21419 -2.33349,0 -4.22289,-1.8865 -4.22289,-4.21419 z m 8.61231,0.58068 c 0,-2.32868 1.88939,-4.21517 4.22288,-4.21517 2.33349,0 4.22288,1.88649 4.22288,4.21517 0,2.32869 -1.88939,4.21419 -4.22288,4.21419 -2.33349,0 -4.22288,-1.88649 -4.22288,-4.21419 z m 8.61131,0.66082 c 0,-2.32868 1.88939,-4.21419 4.22288,-4.21419 2.33349,0 4.22288,1.8865 4.22288,4.21419 0,2.32869 -1.88939,4.2132 -4.22288,4.2132 -2.33349,0 -4.22288,-1.88451 -4.22288,-4.2132 z m 8.6123,0.74194 c 0,-2.32869 1.8884,-4.21419 4.22288,-4.21419 2.33349,0 4.22288,1.88649 4.22288,4.21419 0,2.32868 -1.88939,4.21418 -4.22288,4.21418 -2.33448,0 -4.22288,-1.8855 -4.22288,-4.21418 z m 8.61131,0.82206 c 0,-2.32869 1.88939,-4.21419 4.22288,-4.21419 2.33349,0 4.22288,1.8855 4.22288,4.21419 0,2.32868 -1.88939,4.21419 -4.22288,4.21419 -2.33349,0 -4.22288,-1.88452 -4.22288,-4.21419 z m 8.6123,0.90417 c 0,-2.32869 1.88939,-4.21518 4.22288,-4.21518 2.33349,0 4.22288,1.88649 4.22288,4.21518 0,2.32869 -1.88939,4.21419 -4.22288,4.21419 -2.33349,0 -4.22288,-1.88649 -4.22288,-4.21419 z m 8.61131,0.98232 c 0,-2.32868 1.88939,-4.21419 4.22288,-4.21419 2.33349,0 4.22288,1.8865 4.22288,4.21419 0,2.3277 -1.88939,4.21419 -4.22288,4.21419 -2.33349,0 -4.22288,-1.88649 -4.22288,-4.21419 z m 17.05707,1.06344 c 0,2.32869 -1.8884,4.21419 -4.22288,4.21419 -2.33349,0 -4.22288,-1.8855 -4.22288,-4.21419 0,-2.32868 1.88939,-4.21419 4.22288,-4.21419 2.33448,0 4.22288,1.88551 4.22288,4.21419 z"
   id="path7433"
   style="fill:#ffffff;stroke:#000000;stroke-width:0.99026597;stroke-linecap:round;stroke-linejoin:round" />
</svg>
