<?xml version="1.0" encoding="UTF-8"?>
<!DOCTYPE svg PUBLIC "-//W3C//DTD SVG 1.1//EN" "http://www.w3.org/Graphics/SVG/1.1/DTD/svg11.dtd">
<!-- Creator: CorelDRAW -->
<svg xmlns="http://www.w3.org/2000/svg" xml:space="preserve" width="202mm" height="242mm" shape-rendering="geometricPrecision" text-rendering="geometricPrecision" image-rendering="optimizeQuality" fill-rule="evenodd" clip-rule="evenodd" viewBox="0 0 202000 242000" xmlns:xlink="http://www.w3.org/1999/xlink">
 <g id="Ebene_x0020_1">
  <path fill="#FFE000" d="M1000 996.2l0 140002c0,55195 44754.9,100001 100000,100001 55245.1,0 100000,-44806.3 100000,-100001l0 -140002 -200000 0z"/>
  <path fill="#FF0000" d="M91501.2 222075l-149.3 -507.7c-161.4,-549.2 -401,-1121.5 -703.3,-1631.5 -263,-443.4 -573.9,-838.2 -921.6,-1124.7l5.2 2.7c-231.8,-184.2 -613.2,-393.8 -1030,-594.2 -599.9,-288.6 -1261,-551.3 -1673.4,-699.2 -1.3,-0.5 -2.7,-0.8 -4,-1.3l4 1.3c-1.2,-0.4 -2.7,-0.8 -4,-1.3 -400.1,-141.2 -477.5,-618.1 -350.7,-1225.5 82.9,-396.9 250.1,-870.2 455.6,-1319.8 207.2,-453.1 454.9,-888.4 696.9,-1205 371.8,-486.7 776.7,-732.2 1136.4,-515.6l-2.6 0c686.6,411.7 1641.4,1082.1 2421.6,1870.4 581.4,587.4 1072.9,1246.8 1304.7,1928.9l0 1.3c269.9,798 293.3,1714.1 161.7,2529.3 -151.4,939.4 -516.1,1764.2 -954.5,2148.1l-392.7 343.8zm-11194.9 10875.3l117.7 492 -488.7 -68.9c-803,-113.2 -1498.2,-366.2 -2078.2,-700 -670.4,-385.8 -1188,-880.9 -1542.8,-1394.9l-2.7 -2.7c-815.5,-1211.4 -866.5,-2655 -910.8,-3915.6 -8,-226.2 -15.8,-446 -29.5,-677.6l0 -9.5c-18.2,-584 822.2,-1015.8 1763,-1204.1 280.6,-56.1 573.8,-93.8 853.1,-109.3 283.5,-15.9 552.6,-8.5 780.7,25.7 526.6,79.1 881.3,308.9 881.3,732l0 12.1c-6.6,169.7 -32.3,421.2 -62.3,714.4 -80.3,787.5 -194.1,1903.9 -24.5,2795.5l2.7 18.7c96,722.4 329.6,1646.7 540.8,2482.8 61.9,245.4 121.2,479 200.2,809.4zm-16072.9 -3736.9l-106.2 436 -384.5 -219.8c-662.9,-379 -1160,-1126.6 -1466.9,-1962.7l1.3 0c-342.3,-932 -455.7,-1990.6 -302.1,-2766.6l0 4.1c170.3,-884.8 569.4,-1707.8 1047.9,-2439.6 473.2,-723.9 1018.4,-1354.4 1493.9,-1865.4 344.4,-370.1 1075.9,-88.6 1798.8,453.6 335.9,252 680.5,558.8 976.7,868 302.2,315.6 559.2,640.9 713.3,923.2 231.4,424.1 251.4,792.8 -52.4,1024l0 -1.4c-356.4,271.4 -888.7,712.7 -1403.3,1205.7 -372.6,356.9 -728.6,734.3 -986,1080.1l2.7 -4c-394.3,546.7 -654.7,1065 -851.2,1589.3 -200.4,535.1 -337.9,1084.1 -482,1675.5zm-11217.6 -17470.8l8.4 -522c13.8,-859.6 384.7,-1751.3 911.2,-2502 586.7,-836.6 1378,-1510.6 2087.9,-1775.9 632.5,-236.4 1254.1,-364.7 1834.5,-395 614,-32.1 1184,45.8 1674.4,221.5 656.8,235.3 719,1708.4 520,2968.5 -60.9,385.6 -142.1,751 -233.3,1048.5 -100.8,329.2 -221.2,594.4 -350.2,744.3l0 1.4c-182.3,211.4 -389.2,270.6 -617.2,135.8 -46.4,-27.5 -124.2,-75.2 -208.4,-126.8 -519.7,-318.5 -1310.4,-803.1 -2158.3,-803.1 -499.7,0 -977.5,88.2 -1459.8,230.4 -490.1,144.6 -996.2,349.7 -1536.3,576.1l-472.9 198.3zm-7623.2 -17509.7l79.8 -557.7c76.1,-531.9 82.5,-1035.6 32.1,-1534.2 -50.8,-502 -160.4,-1005.5 -315.3,-1532.9l0 1.4c-245.4,-831.8 -744.5,-1333.7 -1190,-1781.3 -133.2,-134.1 -262.2,-263.8 -393,-411.3l-5.2 -6.6c-334.8,-397.8 66.1,-1160 728.5,-1876.8 297.2,-321.8 646.9,-645.5 992.1,-918.9 352.9,-279.4 705.6,-509.1 1000.4,-635.3 440.8,-188.9 803.4,-170.4 999.4,158.7l0 1.4c402.5,681.9 856.4,1771.1 1124.3,2892.1 214.5,897.6 311.5,1823.7 172.8,2596.3l0 1.4c-144.7,792.6 -483.2,1528.6 -950.1,2122.3 -472.4,600.3 -1078.8,1061.9 -1754,1298.5l-521.8 182.9zm-11768.2 3930.5l214.1 575.2 -590.3 -114.4c-879.3,-170.4 -1552.7,-513.9 -2087.5,-998.7 -529.9,-480.4 -916.5,-1093.8 -1228.9,-1811.2l2.6 5.3c-389,-851.7 -483.1,-1684.5 -418.7,-2468.6 62.8,-764.9 279.2,-1485 516.4,-2129.8l-2.7 6.7c180.9,-524.9 1068.1,-605.3 1975.6,-435.5 357,66.7 717.3,165.8 1028.2,283.1 329.6,124.4 618.1,274.9 811.9,437.5 300.9,252.6 413.4,544.1 237.5,859.1l-3.9 8c-237.6,403.2 -426.3,877.6 -575.3,1408.8 -151.7,541.2 -261.8,1140.9 -339.9,1784l0 -2.8c-49,421.7 -11.7,859.3 74.9,1291.4 88.3,441.3 230.4,884 386,1301.9zm-14433.2 -10104.5l-277.1 538.6 -309.7 -521.2c-432.4,-728.1 -703.9,-1530.2 -787.8,-2353.1 -81.3,-796.6 13.4,-1610.5 307.7,-2393.8 353.5,-942.7 876,-1641.8 1489.8,-2152.1 724.8,-602.6 1573.7,-940.1 2420.5,-1105.5l27.6 -4.1c600.3,-66.6 1711.8,1429.1 2302.5,2685.8 134.9,286.8 246.4,564.3 321.6,809.4 82.7,269.6 121.9,508.6 102.2,692 -32.2,298.7 -179.6,483.8 -468.5,514.9l15.8 -1.4c-164.5,26.1 -386.9,52.5 -637.4,82 -768.2,90.7 -1819.8,215 -2509.1,523.7l-3.9 1.3c-397.8,171 -753.1,564.7 -1074.1,1039.8 -339.7,503.1 -643.6,1105.9 -920.1,1643.7zm-2516.4 -18866.4l192 -546.9c302,-860.2 1042.9,-1850.8 1925.9,-2588.1 801.4,-669.2 1731.9,-1140.8 2582.9,-1140.8l3.9 0c767.8,13.8 1514.1,222.5 2163.8,519.5 797.8,364.9 1459.5,867.5 1842.1,1308.9 404,435.2 80.4,1242.1 -491.8,1995.8 -188,247.8 -401.8,493.1 -619.7,715.1 -219,223.3 -444.9,425.6 -656.1,586 -505.5,384.3 -979.2,530.8 -1252.2,254.7l-6.5 -6.7c-211.7,-227.4 -479.4,-468.2 -830.6,-702.1 -353.6,-235.4 -789.6,-464 -1335,-665.9 -424,-88.6 -855.9,-93.7 -1324.7,-53.7 -504.4,43.1 -1032.5,134.4 -1633.6,232.6l-560.4 91.6zm8710.6 -2447.4c2.9,3.3 5.7,6.8 8.6,10.1l-9.2 -10.8c0.2,0.2 0.4,0.4 0.6,0.7zm10401.6 -46319.7l101.8 -638.7c81,-508.6 112,-1038.9 62,-1561 -42.8,-447.4 -146.8,-892.3 -332.1,-1315.6l2.7 4c-209.2,-463.4 -430.5,-925.4 -679.8,-1327.5 -238.7,-385 -505.1,-718.3 -814.3,-948.3 -445.4,-330.1 -283.6,-946.8 168.5,-1570.3 239.2,-329.9 567,-676 911.9,-968.2 350.4,-296.8 723.6,-540.1 1047.8,-658.6 510.7,-186.8 928.9,-110.4 1108.2,390.6l1.3 5.4c98.9,288.4 251.4,622.7 415.6,982.8 424.5,930.6 925.7,2029.2 965.8,3367.1l0 -2.7c29.4,791.7 -207.8,1621.2 -636.7,2335 -421,700.7 -1027,1293.5 -1747.3,1634l-575.4 272zm-9205.2 6840l-482.3 -84.2c-1138.5,-198.8 -1925.9,-615.9 -2505.3,-1126.4 -574.7,-506.4 -936.3,-1099.9 -1233.1,-1661.9l4 6.7c-277.3,-496.8 -450.8,-1363.8 -537.8,-2284.8 -104.2,-1100.9 -89.5,-2297 16.4,-3012.7l0 1.4c110.9,-783.3 1188,-1184.7 2311.7,-1253.1 394.1,-24 797.3,-9.5 1161.9,41.6 378.5,53.2 721.1,147.7 978.6,281.9 428.7,223.2 650.9,550.7 529.5,986l-1.3 2.7c-158.2,552.7 -356.2,1247.6 -533.4,1973.5 -174,712.8 -324.8,1443.4 -389.3,2067.6l0 4c-106.9,938 109.5,1733.1 326.3,2529.5 91.9,338.1 184.3,676.7 255.8,1035.7l98.3 492.5zm-16834.2 -6467.9l-321.8 -301.4c-554.5,-519.5 -968.2,-1266.9 -1220.6,-2107.1 -256.9,-855.5 -346.4,-1810.8 -246.3,-2717.9l0 -1.2c83.7,-735 531.3,-1542.1 1111.7,-2237.1 645.6,-772.9 1471.9,-1425.4 2146.4,-1689 721.8,-282 1782.4,416.5 2502.7,1284.6 208.2,250.9 392.7,520.7 534.8,786.8 146.6,274.7 246.6,549.1 279.7,800.5 59.5,449.8 -78.5,815.5 -494.9,1005.7 -0.8,0.4 -1.8,0.9 -2.7,1.3l2.7 -1.3c-0.8,0.5 -1.8,0.9 -2.7,1.3 -562.3,261.2 -1013.4,533.7 -1406.1,851.1 -393.8,318.3 -736.7,687.4 -1081.5,1140.1l-1.3 1.3c-529.6,683.2 -906.4,1427.8 -1311.2,2228.4 -95.9,189.5 -193.3,382 -284.5,558.4l-204.4 395.5zm-2570.5 -20988.7l61 -496.4c99.8,-812.4 522.1,-1712.3 1073.6,-2462.8 571.9,-778.9 1295.7,-1411.9 1957.3,-1638.1l-2.6 0c602.1,-210.6 1503.1,-275.1 2400,-225.4 933.6,51.9 1877.8,228.5 2486.3,493.1 638.5,277.6 673.6,1249.9 411.9,2271.4 -114.7,447.7 -284.1,910.3 -477.7,1317.6 -200.5,422.2 -428.5,789.8 -652,1029.7 -331.5,355.9 -684.5,485.1 -1015.6,259.7l-9.2 -5.4c-359.6,-262.4 -774.6,-523.6 -1228.9,-730.4 -450.7,-205.2 -943.3,-359.8 -1463.5,-412.9l-2.6 0c-873.6,-93.8 -1873.9,168.3 -2697.9,384.4 -164.3,43 -327.5,85.9 -364.8,95.2l-475.3 120.3zm1392.3 -55836.7l715.8 -51.4c435.1,-31.1 1153.6,-151.8 1824.8,-336.5l-1.3 0c499.1,-137.5 963.4,-307.6 1242.7,-496.6 396.5,-267.8 835.1,-685.2 1252.1,-1146.8 518.4,-573.9 996.5,-1206.9 1323,-1710.3l-2.6 5.3c178.4,-287.4 433.3,-358.7 734.3,-263.4 240.5,76.2 508.7,285.9 773.5,578.1 241.6,266.7 490.8,609.4 717.1,981.6 708.1,1164.2 1187.6,2663.5 618.9,3236.6l-2.7 2.7c-538.5,530.5 -1290.5,1051.8 -2098.2,1417.2 -716.7,324.3 -1485,528.8 -2199.4,514.5 -766.8,-15.5 -1552.5,-218.3 -2312.2,-600.4 -734.5,-369.4 -1445.8,-905.5 -2092.3,-1600.3l-493.5 -530.3zm-2956.5 -8356.1l-32.9 -600.3c-45.8,-837.3 35.2,-1893.6 293.9,-2864 216,-809.8 557,-1564.8 1053.1,-2098.1 551.1,-592.4 1288.1,-1178.5 2026.3,-1603.5 688.7,-396.5 1387.3,-654.6 1956.2,-654.6 672.5,0 1073.6,953.5 1226.2,2075.7 67.9,500.5 92.8,1033.4 74.4,1513.7 -19.1,498.1 -85.2,953.7 -198.5,1279.3 -157.1,452.7 -416.2,704.7 -788.9,634.1 -454.2,-86.1 -989.7,-118.6 -1519.3,-72.9 -454.8,39.2 -899.7,136.4 -1273.6,306.9 -471.2,214.8 -860.1,553.3 -1277.1,916.3l1.3 0c-316,275.1 -647.5,563.7 -1050.3,835.8l-490.8 331.6zm5626.6 -24602.9l672.2 -139.4c863.7,-179.1 1829.5,-259.8 2721.5,-140.2 766.3,102.9 1481.6,352.7 2041.6,811.2l-5.3 -2.7c1044.8,829 1512.6,1866.1 1948,2832.1 62.1,137.4 123.8,274.3 178.4,391.7 296.4,637 -332.9,1495.2 -1149.9,2114.5 -318.7,241.4 -668.5,452.5 -997.1,598.7 -352.4,157.1 -689.8,241 -956.8,214.8 -351.5,-34.3 -592.9,-220.1 -655.3,-603.3l0 4c-78.4,-449.5 -189.4,-1010.7 -351.3,-1567.7 -159.3,-547.8 -367.2,-1091.7 -640,-1518.4l0 1.4c-253.3,-394.5 -562.9,-795.5 -941.7,-1216.6 -380,-422.5 -824.9,-858.6 -1347.3,-1321.8l-517 -458.3zm20300.5 1916.5l682.9 253c799.7,296.3 1473.1,797.6 1975.8,1384.9 550.3,643.3 900.6,1398 992.7,2108l0 1.4c90.8,720.3 24,1449.4 -112.3,2108.6 -203.1,982.8 -560.6,1816.2 -777.5,2228.6l1.3 -5.4c-204.8,403.1 -832.8,386.7 -1520.6,136.8 -380,-138 -796.2,-345.4 -1153.9,-577.4 -375,-243.4 -690.5,-521.4 -847.8,-789.2 -190.6,-324.7 -193.3,-637.3 83.2,-901.5 343.3,-327.9 665,-699.2 917.9,-1120.4 252.9,-420.6 443.8,-896.2 529.4,-1435.2l-1.3 2.7c60,-400.7 35.4,-784.9 -52.8,-1203.6 -92.2,-437 -255.2,-919.4 -464.2,-1495l-252.8 -696.3zm43252 18665.8l-284.2 608.6c-640.5,-160.7 -1309.9,-355.5 -1991.1,-553.5 -1068.2,-310.8 -2166.8,-630.3 -3144.6,-819.7l-1.4 0c-1064,-211.9 -2172.4,-303.7 -3286.1,-328.2 -1122.5,-24.9 -2258.7,18 -3363.1,75.2l-1.3 0c-1412.7,71.6 -2815.8,178.8 -4216,314.3 -1404.5,135.9 -2809.2,300.5 -4220,486.4l-1.3 1.3c-936.9,119.7 -1911.7,299 -2903.9,481.5 -3076.7,566 -6320.1,1162.6 -9256.7,162.4 -1028.6,-349.8 -1818.2,-1139.9 -2379.5,-2090 -677.7,-1147.1 -1025.1,-2536.6 -1056,-3649.8l-21 -759.7 572.3 485.6c496,420.9 1149.3,982.5 1988.5,1447.2l0 -1.2c830,459.5 1850.3,830.2 3096.6,884.9 2431.4,107.5 5510.5,-312.2 8532.5,-724.1 2577.8,-351.4 5114.8,-697.3 7206.8,-710.5 1617.9,0 3240.3,64.9 4837.2,259.6 1607.7,195.9 3198.4,523.8 4746.2,1049l2.6 0c1582.4,550 3041.9,1712.6 4404.6,2798.2 203.5,162.2 404.5,322.3 738.9,582.5z"/>
  <path fill="#000000" d="M67265.5 12046.6c417,-48.3 844,-91.2 1278.7,-128.1 -19.6,113.7 -29.6,230.6 -29.6,350.4l-1.4 0 0 0.8 0 1.6 1.4 0c0.5,525.7 197.5,1001.5 515.4,1345.6 317.8,343.7 757.4,556.7 1242.8,556.9l0 1.6 0.7 0 1.3 0 0 -1.6c484.9,-0.5 924,-213.1 1241.5,-556.5 318.4,-344.2 515.7,-820.6 515.9,-1346.8l1.5 0 0 -0.8 0 -1.6 -1.5 0c-0.2,-176.6 -22.8,-347.2 -64.4,-509.4 507.2,-4.1 1016.2,0.8 1523.9,15.1 25.1,176.1 38.3,356.4 38.4,540.2l-1.3 0 0 1.6 0 0.8 1.3 0c-0.1,927.2 -332.1,1771.4 -873.8,2401.8 -638.1,218.2 -1292.7,331.9 -1919.9,341.1 -1468.4,28.7 -3123.8,-1520.7 -3470.9,-3012.7zm6901.5 -248.2c634.1,28.7 1263.9,72.4 1882.5,133.5 -554.8,998.4 -1359.4,1755.4 -2262.5,2274.5 261.5,-569.5 409,-1211.1 409.1,-1890l1.3 0 0 -0.8 0 -1.6 -1.3 0c-0.1,-174.6 -10.1,-346.5 -29.1,-515.6zm-4837.8 60.2c607.5,-41 1226.7,-70.2 1851.4,-86.4 70.5,149.1 110.6,317.6 110.7,495.9l-1.5 0 0 1.6 0 0.8 1.5 0c-0.1,302 -114.1,576.4 -297.9,775.2 -184.2,199 -438.4,322.5 -718.6,322.7l0 -1.5 -1.3 0 -0.7 0 0 1.5c-280.6,-0.1 -535.4,-123.8 -719.8,-323.2 -183.5,-198.6 -297.3,-472.4 -297.5,-773.9l1.5 0 0 -1.6 0 -0.8 -1.5 0c0,-145 26.1,-283.5 73.7,-410.3zm13555.3 131772c133.4,-946.9 213.5,-1893.7 293.6,-2840.6 80.1,-975.5 133.6,-1979.8 133.6,-2926.6 -53.5,-11132.7 -4912.7,-24331.2 -11053.5,-47916.4 1148.1,602.5 2242.7,1434.6 3657.8,1922.4 -1628.6,-8177.4 -267,-15780.8 1575.3,-24072.9 747.5,832.1 1682,1807.6 2669.8,2324.1 213.7,-6025.4 1174.9,-12796.9 3791.4,-17990.2 774.2,516.5 1762.1,1205.1 2536.3,1750.2 -160.1,-2811.8 0,-4246.4 747.7,-6054.1 2643.1,-6341 5526.6,-14174 6194.1,-19711.7 507.3,-4131.7 -106.8,-8464.3 -3043.7,-12165.6 907.8,-2725.8 2216,-2352.8 2296.1,-3156.2 213.7,-1979.8 -1094.6,-4303.8 -2803.4,-4992.5 -2189.3,-889.4 -4832.5,-143.4 -7128.6,373 -6247.6,-3299.6 -14364.1,-3070.1 -18369,2209.4 -3497.5,-143.5 -6060.7,-86.1 -7422.3,975.5 -1415,-114.8 -1254.9,1032.9 -1068,1692.9 160.2,545.1 640.8,889.4 907.8,1377.2 -400.5,1291.2 -614.1,3357 -213.6,4619.5 614.1,1979.8 2029.1,2697.1 3123.8,4476 720.9,1176.4 907.7,2151.9 1335,3184.9 1121.3,-2094.6 1468.3,-2467.6 3230.5,-2840.6 1441.7,-315.6 2937,-889.4 4432.1,-746 1682,143.5 3631,459.1 4885.9,1692.9 1041.2,1032.9 1548.5,2897.9 1388.3,4447.3 -186.9,1807.6 -881,4131.7 -2456.3,4849 -2456.3,1119 -5473.2,545.2 -8063.1,-86 -1468.5,-344.4 -2376.2,-832.1 -3551,-3070.1 -480.5,2008.4 -1201.4,3385.7 -1121.3,5107.2 80.1,1463.3 694.2,3070.1 2242.7,3615.3 1041.2,373 2589.8,-1090.3 3684.4,-1061.7 747.7,0 2055.9,344.4 2002.5,1147.7 -80.1,1176.4 -1281.6,2094.6 -2269.4,2611.1 -3017.1,1635.4 -6487.9,2266.7 -9504.9,3787.4 -3898,1979.7 -7582.5,4562.1 -11373.8,6857.5 -4031.5,-4504.8 -6274.3,-9124.2 -12094.6,-13456.8 -1815.6,-1348.5 -3711.3,-3930.9 -4271.9,-6197.6 -427.2,-1778.9 -267,-2897.9 907.8,-4389.9 1148.1,-1463.3 3337.3,-2582.3 4565.5,-3988.3 907.7,-1032.9 1628.6,-2955.3 1121.4,-4217.8 -507.3,-1348.5 -2136,-2094.5 -3497.6,-2324.1 -934.5,-172.1 -2349.5,688.7 -2883.5,1578.1 -720.9,1147.7 133.5,2582.4 -480.6,3844.8 -560.7,1233.8 -2136,2266.7 -3070.4,3271 -1254.8,-2324.1 -2109.2,-5537.7 -2509.7,-7574.8 -293.7,-1492.1 -160.2,-3098.8 -800.9,-4447.4 -507.4,-1061.6 -1708.8,-1549.4 -2830.2,-1348.5 -1521.8,286.9 -3070.3,1348.5 -4004.9,2697.1 -640.8,918.1 -533.9,2668.4 -26.6,3701.3 720.9,1492 2029.1,459.1 3284,2897.9 881,1721.6 1575.2,4160.4 2242.6,5996.8 -1254.8,-287 -3097,-1004.3 -4325.1,-1348.6 -1201.5,-315.6 -2643.3,-1119 -3924.8,-1004.2 -1121.4,86.1 -1682.1,487.7 -2135.9,1635.4 -587.4,1463.4 -507.3,3557.9 240.3,4963.8 614,1119 1815.5,1578.1 3016.9,1606.8 1308.2,28.7 2296.1,-1606.8 3577.7,-1635.5 1041.3,-28.6 2376.2,602.6 3337.4,1291.2 -534,2238 -854.4,2955.3 -1895.6,3385.7 -1335,545.2 -3097.1,-258.2 -4085,746 -694.2,717.3 -720.9,2180.7 -293.7,3156.2 587.3,1348.5 1842.3,2697.1 3070.4,3357 747.6,401.7 2029.1,200.9 2589.8,-401.7 827.6,-918.1 827.6,-2955.3 1895.6,-2869.2 1602,143.4 3150.6,1922.4 3844.7,3471.8 320.4,717.3 -160.2,2123.2 -774.2,2553.6 -1094.8,774.7 -2403,487.8 -3711.3,860.8 5473.3,9210.2 10946.7,18449.2 16393.3,27688.2 -2242.7,3787.3 -4485.4,7574.7 -6754.9,11362.1 -934.4,2352.8 -1842.3,4160.4 -2803.4,7087.1 -747.5,2295.3 -1174.8,3041.4 -3257.3,3414.4 -1441.7,258.2 -2856.8,-832.1 -4191.7,-1463.4 -1148.1,-573.8 -2055.8,-1979.7 -3310.7,-2295.4 -747.5,-200.8 -1895.6,57.4 -2376.2,746 -934.5,1291.2 -1735.4,3127.5 -1521.9,4763 133.5,1233.8 1388.4,2352.8 2509.8,2639.7 1201.4,344.3 2509.6,-832.1 3764.5,-746 1014.6,57.4 2055.9,774.7 3017,1176.4 -2456.4,1635.5 -4992.7,4303.9 -6728.2,5222 -1014.5,545.2 -2429.6,344.3 -3364.1,1061.6 -667.5,516.5 -1254.8,1549.4 -1121.3,2438.9 293.6,1635.5 1148.1,3156.2 2456.3,4103 827.7,573.9 2136,86.1 2883.5,-545.1 1121.3,-889.5 934.5,-2266.7 1949.1,-3242.3 1308.2,-1205.1 3150.4,-2553.6 5046.1,-3529.2 -133.6,1893.7 -347.1,3672.7 -827.7,5164.7 -400.5,1291.1 -1842.2,2238 -1869,3615.2 -26.6,1205.1 720.9,2381.5 1708.8,2898 1308.3,688.6 3043.7,602.5 4351.9,0 854.4,-373 1281.6,-1606.8 1335,-2553.7 80.1,-1233.7 -1014.6,-2381.4 -907.8,-3615.2 213.6,-2611 1415,-3873.5 2162.7,-5738.5 1041.2,688.6 1682,1119 2162.6,2639.7 347.1,1090.3 160.2,2324.1 854.3,3242.3 560.7,688.6 1762.2,1147.7 2589.9,832 1228.1,-487.7 2216,-1492 2803.4,-2725.7 427.1,-918.2 507.2,-2152 133.5,-3041.4 -480.6,-1061.7 -1201.5,-1692.9 -2616.5,-2352.8 -907.8,-430.4 -1388.4,-1836.3 -1388.4,-2898 0,-2639.7 1548.6,-4504.7 3257.3,-4389.9 1788.8,114.8 3123.8,1836.3 4191.8,3930.9 2082.5,-2238.1 3390.7,-4189.1 5152.8,-6455.9 3684.5,4447.4 7075.4,8005.2 10786.5,11591.8 6140.8,5939.3 10412.7,10415.4 11987.9,16584.2 -1895.6,-1549.3 -4111.7,-2840.5 -6220.9,-3443 2910.1,2151.9 4992.7,4734.2 6434.4,7402.6 1441.8,2697.1 2296.1,5451.6 2616.5,8320.8 -1094.6,-659.9 -1895.6,-1176.4 -2349.4,-1492 -5393.3,-3672.6 -12415.2,-5279.4 -18742.8,-4418.6 -11000.1,1492 -14844.7,5250.7 -17434.5,11017.9 -2055.8,4562.1 -2029.1,11247.4 -1228.1,15149.6 907.7,-1032.9 1868.9,-1951.1 3150.4,-2496.2 1495.2,2897.9 3150.6,6570.5 4886,9784.1 -1495.1,2639.7 -3871.4,6455.8 -5713.7,6886.2 -1708.7,401.7 -3310.6,-1348.6 -4699,-2525 -1148,-975.5 -1788.8,-2811.8 -2616.5,-3758.7 -587.4,-688.6 -1949.1,-631.2 -2669.8,-114.7 -1281.6,946.8 -2376.3,2467.5 -2910.3,4074.3 -320.4,946.8 -133.4,2352.8 667.5,2897.9 1121.4,774.7 2589.8,-114.7 3844.6,143.5 987.9,200.8 2349.6,631.2 3230.7,1865 -881.1,1520.7 -1655.4,2123.2 -3230.7,2582.3 -1495.1,430.4 -3230.5,373 -4565.4,1233.8 -667.6,430.4 -1228.2,1492 -1094.8,2352.8 213.7,1492 1014.7,3012.7 2055.9,3959.5 667.4,602.6 1708.7,774.7 2456.3,287 1121.4,-746 1548.5,-2668.4 2509.7,-3615.3 1335,-1319.8 3017,-1979.8 4966,-2180.6 53.4,2180.6 -186.8,3988.2 -1121.3,5623.7 -720.9,1262.5 -2055.8,2123.3 -2376.2,3357 -373.8,1377.3 -160.2,2984 640.7,3730.1 1121.4,1032.9 2936.9,1549.3 4405.4,1434.6 881.1,-57.4 1842.3,-1205.1 1922.3,-2123.3 80.1,-1004.2 -694.2,-2639.7 -453.9,-3873.5 534,-2783.1 1174.8,-3816 2669.9,-5078.5 1228.1,746 3097.1,659.9 3470.9,2151.9 160.2,631.3 -106.8,2238 720.9,3758.7 347.1,631.3 1655.4,1004.3 2269.4,746 1281.6,-545.1 2509.7,-1520.7 3230.6,-2754.4 453.9,-803.4 373.8,-2123.3 0,-2984.1 -320.4,-746 -2055.8,-1405.9 -2669.9,-1893.7 -1334.9,-1061.6 -2509.8,-1606.7 -3177.2,-2783.1 -640.7,-1119 53.4,-2869.3 881.1,-3787.4 881.1,-975.6 2216,-1635.5 3444.2,-1377.3 774.2,172.2 1014.5,1721.6 1388.3,2496.3 2456.3,-2094.6 5019.4,-4074.4 7342.2,-6226.3 2563.2,-2381.5 4699.1,-4676.9 7075.3,-8177.3 -1762.1,-631.3 -3898.1,-975.6 -5393.2,-2152 -2189.4,-1721.5 -2963.6,-4533.4 -3150.6,-7144.4 -160,-2238 720.9,-4820.3 2242.8,-6369.7 2029.2,-2037.2 4939.3,-3500.5 7662.6,-3586.6 1815.6,-28.7 4592.3,430.4 6781.6,1291.2 427.2,143.4 1014.6,516.4 1762.1,918.1 -26.6,545.2 -106.7,1119 -160.2,1578.1 -667.4,5365.5 -3097,9755.5 -5206.2,14403.6 -2937,6455.8 -8623.8,13342 -8623.8,19482.2 0,4504.7 2242.7,10300.6 4138.3,13715 560.7,1032.9 1868.9,3586.6 3043.7,3500.5 2936.9,-229.5 5286.4,-5193.3 8196.6,-5078.6 1521.9,57.4 2055.8,1033 2055.8,2582.4 0,2180.6 -881.1,4016.9 -2082.5,6226.2 -1067.9,1951.1 -1842.3,3902.2 -2483,6341.1 -186.9,746 -720.9,1606.7 -2002.5,1635.4 -2029.1,57.4 -3470.8,-1061.6 -4805.7,-1664.1 -1415.2,-631.3 -1762.2,-1377.3 -3123.8,-1578.1 -881.1,-114.8 -2029.2,401.7 -2483.1,1176.4 -667.5,1205 -694.1,2840.5 -480.6,4246.4 133.5,889.5 801,1635.5 1628.7,1865.1 1388.3,373 2696.6,-602.6 4138.4,-516.5 1441.7,86.1 2963.6,459.1 4378.6,1176.4 -373.8,1262.5 -774.2,2180.6 -1441.8,3012.7 -587.4,746 -1788.8,860.8 -2296,1635.5 -587.5,889.4 -1281.6,2209.3 -827.8,3213.5 587.5,1348.6 2189.4,2065.9 3497.6,2639.7 694.2,287 1788.9,487.8 2269.5,-143.4 747.5,-975.6 133.4,-2668.4 694.1,-3758.7 907.8,-1750.3 2135.9,-3844.8 3737.9,-5049.9 640.7,1951.1 854.3,4619.5 827.7,6714 -26.8,1434.6 -747.6,2410.2 -667.5,3557.9 80.1,1032.9 907.8,1922.4 1842.2,2209.3 1281.6,373 2643.2,-229.5 3791.3,-918.2 667.4,-401.7 1094.7,-1147.7 1014.6,-1979.7 -133.5,-1492 -1174.8,-2065.9 -1602,-3299.7 -614,-1750.2 -640.8,-4849 -587.4,-6656.6 1682,86.1 3364.1,286.9 4832.6,975.5 827.6,401.7 801,1664.2 1628.6,2123.3 827.7,459 2055.9,459 2856.8,-86.1 1148,-803.4 1975.7,-1778.9 2349.5,-3184.9 213.6,-803.4 -133.5,-1893.7 -747.6,-2352.8 -961.1,-717.3 -2002.3,-659.9 -3417.5,-717.3 -1842.2,-57.4 -3951.4,-1233.7 -5500,-2037.1 -533.9,-258.3 -987.8,-717.3 -854.3,-1348.6 373.7,-1664.1 1014.5,-4389.9 2616.5,-4389.9 934.4,0 1922.3,1004.2 2563.1,2094.5 2856.8,-8263.4 5767,-17531.1 6461.2,-26655.3 186.9,-2467.5 -747.6,-5451.5 -2696.6,-6140.2 -1121.4,-401.7 -2670,2668.4 -4325.3,3242.3 -1174.7,401.7 -2990.2,573.8 -3631,-459.1 -1041.3,-1721.5 -1575.3,-6054.1 -1495.2,-9038.1 106.8,-4619.5 881,-8693.8 1628.7,-12423.9 320.3,-1635.4 720.8,-3357 1067.9,-4935.1 1735.5,746 3310.7,1233.8 4405.3,1233.8 2136,0 4538.9,-1262.5 5740.3,-3127.5 2136,-3299.6 3738,-5365.5 3791.3,-11419.6 106.8,-10128.4 -4805.8,-21318.5 -5019.4,-24302.5 -160.2,-2266.7 1762.2,-4217.8 2509.7,-6369.7 854.4,-2525 2216.1,-5021.2 2376.3,-7689.6 133.4,-2324.1 -53.5,-4303.9 -1014.7,-6972.3 -266.9,3529.2 -1121.3,5853.3 -2322.8,8263.5 -1121.4,2238 -2135.9,4533.4 -3230.5,6800.1 -667.5,-2725.8 -2322.9,-5394.2 -2055.8,-8177.4 347,-3672.6 1788.7,-7546.1 3871.3,-10300.6 2589.8,-3443.1 4271.9,-7976.5 4432.1,-12481.1 80.1,-2123.2 -507.3,-4045.6 -1521.9,-5968 373.8,5164.6 -1575.3,7775.6 -3017,10443.9 -2055.9,3787.4 -3844.6,5681.1 -5500,10903.2 -534,-2410.2 -1308.2,-4906.4 -1094.7,-7201.8 507.3,-5566.3 2536.4,-11276.1 5980.6,-15522.6 3284,-4074.3 5713.6,-8492.9 5927.2,-13370.7 133.5,-3012.7 -1815.5,-8062.5 -4779.1,-10472.7 720.9,2352.8 1121.4,5968 667.4,8148.7 -640.8,2984 -4618.9,8062.5 -6060.7,11103.9 -3177.1,6685.4 -5126.1,13686.3 -5099.5,19625.6 26.8,5451.6 2696.6,15149.6 4592.3,22581 2349.5,9181.5 6167.4,21088.9 6167.4,30672.2 0,2754.5 -907.7,8779.9 -5099.5,8779.9 -720.9,0 -1975.7,-373 -3497.5,-1032.9z"/>
  <path fill="#000000" d="M120990 996.2l20015.3 0 0 231622c-6375.4,2819.4 -13208,4927.7 -20015.3,6375.5l0 -237997zm40005.1 0l20015.3 0 0 199947c-5638.8,7493.1 -12522.3,14478.2 -20015.3,20040.9l0 -219988z"/>
  <path fill="#000000" fill-rule="nonzero" d="M102000 1992.3l0 238005c26949.4,-266.8 51315.4,-11302 69010.1,-29003.3 17915.3,-17921.8 28993.5,-42673.1 28993.8,-69994l-3.9 0 0 -1.5 3.9 0 0 -139006 -98003.9 0zm-2000 238005l0 -238005 -98003.9 0 0 139006 3.9 0 0 0.7 -3.9 0c0.1,27321.4 11078.5,52073.3 28994.2,69995.2 17694.6,17701 42060.6,28736.1 69009.7,29002.9zm-99996.1 -98998.8l0.1 -140999 201992 0 0.1 140999 3.9 0 0 1.5 -3.9 0c-0.4,27872.6 -11299.4,53121.1 -29572,71400.3 -18275,18281.9 -43524.9,29595.5 -71423.4,29595.7l0 3.9 -0.7 0 -1.5 0 0 -3.9c-27897.9,-0.4 -53147.4,-11313.9 -71422.2,-29595.3 -18272.9,-18279.4 -29572.2,-43528.4 -29572.4,-71401.5l-3.9 0 0 -0.7 3.9 0z"/>
 </g>
</svg>